STARTFONT 2.1
COMMENT
COMMENT Converted from OpenType font "RozhaOne-Regular.ttf" by "otf2bdf 3.0".
COMMENT
FONT -FreeType-Rozha One-Medium-R-Normal--37-270-100-100-P-188-ISO10646-1
SIZE 27 100 100
FONTBOUNDINGBOX 59 51 -20 -16
STARTPROPERTIES 19
FOUNDRY "FreeType"
FAMILY_NAME "Rozha One"
WEIGHT_NAME "Medium"
SLANT "R"
SETWIDTH_NAME "Normal"
ADD_STYLE_NAME ""
PIXEL_SIZE 37
POINT_SIZE 270
RESOLUTION_X 100
RESOLUTION_Y 100
SPACING "P"
AVERAGE_WIDTH 188
CHARSET_REGISTRY "ISO10646"
CHARSET_ENCODING "1"
FONT_ASCENT 37
FONT_DESCENT 16
COPYRIGHT "Copyright (c) 2014 Indian Type Foundry (info@indiantypefoundry.com)"
_OTF_FONTFILE "RozhaOne-Regular.ttf"
_OTF_PSNAME "RozhaOne-Regular"
ENDPROPERTIES
CHARS 481
STARTCHAR 0000
ENCODING 0
SWIDTH 0 0
DWIDTH 0 0
BBX 0 0 0 0
BITMAP
ENDCHAR
STARTCHAR 000D
ENCODING 13
SWIDTH 0 0
DWIDTH 0 0
BBX 0 0 0 0
BITMAP
ENDCHAR
STARTCHAR 0020
ENCODING 32
SWIDTH 213 0
DWIDTH 8 0
BBX 0 0 0 0
BITMAP
ENDCHAR
STARTCHAR 0021
ENCODING 33
SWIDTH 320 0
DWIDTH 12 0
BBX 8 22 2 -1
BITMAP
3C
FE
FF
FF
FF
FF
7E
7E
3C
38
18
18
10
00
10
3C
7E
FE
7F
7E
7C
10
ENDCHAR
STARTCHAR 0022
ENCODING 34
SWIDTH 266 0
DWIDTH 10 0
BBX 9 10 1 17
BITMAP
E700
E700
E780
E700
E700
E700
E300
4200
4200
4200
ENDCHAR
STARTCHAR 0023
ENCODING 35
SWIDTH 506 0
DWIDTH 19 0
BBX 18 21 1 0
BITMAP
008100
010100
010200
010200
020200
020400
7FFFC0
040400
040800
040800
040800
080800
081000
081000
FFFF00
102000
102000
202000
204000
204000
604000
ENDCHAR
STARTCHAR 0024
ENCODING 36
SWIDTH 560 0
DWIDTH 21 0
BBX 17 27 2 -2
BITMAP
008000
008000
008000
008000
07E100
189E00
388600
788200
788200
788100
FE8100
FF8000
7FE000
7FF800
3FFE00
1FFF00
07FF80
80FF80
80BF80
808F80
C08780
C08780
E08700
F88F00
879C00
00E000
008000
ENDCHAR
STARTCHAR 0025
ENCODING 37
SWIDTH 640 0
DWIDTH 24 0
BBX 20 21 2 0
BITMAP
3F0100
738200
E3C200
E1C400
E1C400
E1C800
E3C800
739000
3E2000
002000
004000
0047C0
009CE0
00BC70
013870
013870
023870
023870
043C70
081CE0
080FC0
ENDCHAR
STARTCHAR 0026
ENCODING 38
SWIDTH 880 0
DWIDTH 33 0
BBX 31 24 1 0
BITMAP
0007E000
001C7800
00383C00
00783C00
00F81E00
00F81E00
00F81E00
00F83E00
00F83C00
00FC3800
0FFC7000
1EFE03F0
3C7E0FF8
7C7F18F8
7C3F90F8
FC3FE0F8
FC1FE0F2
FC0FF002
7E07F806
7F03FE0E
7F81FFFC
3FC1FFFC
1FFE3FF8
07F80FE0
ENDCHAR
STARTCHAR 0027
ENCODING 39
SWIDTH 186 0
DWIDTH 7 0
BBX 4 10 2 17
BITMAP
E0
E0
F0
E0
E0
E0
60
40
40
40
ENDCHAR
STARTCHAR 0028
ENCODING 40
SWIDTH 320 0
DWIDTH 12 0
BBX 10 28 2 -3
BITMAP
00C0
0380
0700
0E00
1E00
3C00
7C00
7C00
F800
F800
F800
F800
F800
F800
F800
F800
F800
F800
F800
F800
7800
7C00
3C00
1C00
1E00
0F00
0300
01C0
ENDCHAR
STARTCHAR 0029
ENCODING 41
SWIDTH 320 0
DWIDTH 12 0
BBX 11 28 0 -3
BITMAP
C000
7000
3800
1C00
0E00
0F00
0F80
0780
07C0
07C0
07C0
07C0
07E0
07E0
07E0
07E0
07C0
07C0
07C0
07C0
0780
0F80
0F00
0F00
1E00
1C00
3000
E000
ENDCHAR
STARTCHAR 002A
ENCODING 42
SWIDTH 320 0
DWIDTH 12 0
BBX 12 12 1 11
BITMAP
0600
0F00
6F60
76E0
FDF0
3DC0
3FC0
7DE0
F6F0
6F60
0F00
0600
ENDCHAR
STARTCHAR 002B
ENCODING 43
SWIDTH 480 0
DWIDTH 18 0
BBX 17 18 1 0
BITMAP
008000
008000
008000
008000
008000
008000
008000
008000
008000
FFFF80
008000
008000
008000
008000
008000
008000
008000
008000
ENDCHAR
STARTCHAR 002C
ENCODING 44
SWIDTH 293 0
DWIDTH 11 0
BBX 8 12 1 -6
BITMAP
3C
7E
FE
FF
7F
3F
06
06
04
08
30
40
ENDCHAR
STARTCHAR 002D
ENCODING 45
SWIDTH 266 0
DWIDTH 10 0
BBX 6 3 2 8
BITMAP
FC
FC
FC
ENDCHAR
STARTCHAR 002E
ENCODING 46
SWIDTH 266 0
DWIDTH 10 0
BBX 7 8 1 -1
BITMAP
10
7C
7E
FE
FE
7E
7C
10
ENDCHAR
STARTCHAR 002F
ENCODING 47
SWIDTH 266 0
DWIDTH 10 0
BBX 7 21 2 0
BITMAP
06
04
04
04
08
08
08
10
10
10
20
20
20
20
40
40
40
80
80
80
80
ENDCHAR
STARTCHAR 0030
ENCODING 48
SWIDTH 586 0
DWIDTH 22 0
BBX 18 21 2 0
BITMAP
03F000
0E1C00
3C1E00
3C0F00
7C0F80
F80F80
F80FC0
F80FC0
F807C0
F807C0
F807C0
F807C0
F80FC0
F80FC0
F80FC0
F80F80
7C0F80
7C0F00
3C1E00
1E1C00
07F000
ENDCHAR
STARTCHAR 0031
ENCODING 49
SWIDTH 373 0
DWIDTH 14 0
BBX 11 23 2 0
BITMAP
0180
0780
1F80
7F80
9F80
1F80
1F80
1F80
1F80
1F80
1F80
1F80
1F80
1F80
1F80
1F80
1F80
1F80
1F80
1F80
1F80
1F80
FFE0
ENDCHAR
STARTCHAR 0032
ENCODING 50
SWIDTH 533 0
DWIDTH 20 0
BBX 17 21 1 0
BITMAP
0FF000
307C00
603F00
783F00
7C1F80
7C1F80
7C3F80
383F00
007F00
007E00
00FC00
01E000
070000
0C0080
17C180
1FFF80
3FFF80
7FFF80
6FFF80
81FF00
803E00
ENDCHAR
STARTCHAR 0033
ENCODING 51
SWIDTH 533 0
DWIDTH 20 0
BBX 16 22 2 -1
BITMAP
1FE0
60FC
C07E
F87E
F87E
F87E
20FC
01F8
0FC0
00F8
007E
003F
203F
F83F
F83F
F83F
F83F
F03F
C07E
40FC
33F0
0E00
ENDCHAR
STARTCHAR 0034
ENCODING 52
SWIDTH 533 0
DWIDTH 20 0
BBX 19 23 0 0
BITMAP
001E00
001E00
003E00
007E00
007E00
00FE00
017E00
017E00
027E00
047E00
047E00
087E00
107E00
107E00
207E20
407E20
407E20
FFFFE0
007E20
007E20
007E00
007E00
01FF80
ENDCHAR
STARTCHAR 0035
ENCODING 53
SWIDTH 533 0
DWIDTH 20 0
BBX 17 24 1 0
BITMAP
000100
000300
180700
1FFF00
1FFF00
1FFE00
17FE00
23FE00
20F800
200000
2FF000
307C00
203F00
003F00
001F80
781F80
7C1F80
FC1F80
FC1F80
F83F80
E03F00
403E00
207C00
1FE000
ENDCHAR
STARTCHAR 0036
ENCODING 54
SWIDTH 560 0
DWIDTH 21 0
BBX 18 21 1 0
BITMAP
01FC00
070300
1E0380
3E0380
3C07C0
7C0FC0
7C0FC0
FC0780
FCFC00
FF1F00
FC0F80
FC07C0
FC07C0
FC07C0
7C07C0
7E07C0
7E07C0
3E07C0
1E0F80
0F0F00
03FC00
ENDCHAR
STARTCHAR 0037
ENCODING 55
SWIDTH 480 0
DWIDTH 18 0
BBX 17 24 0 0
BITMAP
000080
1F0080
7FF080
7FFF80
FFFF80
FFFF00
FFFD00
C00200
800600
000C00
001800
003000
007000
00F000
01E000
03E000
03E000
07E000
07F000
07F000
07F000
07F000
03E000
03C000
ENDCHAR
STARTCHAR 0038
ENCODING 56
SWIDTH 533 0
DWIDTH 20 0
BBX 18 21 1 0
BITMAP
03F800
0C1E00
1C0F00
380780
3C0780
3E0780
3F8780
3FEF00
1FFC00
0FFC00
07FE00
1FFF00
38FF80
783FC0
F81FC0
F807C0
F807C0
F80780
7C0780
3E0E00
07F800
ENDCHAR
STARTCHAR 0039
ENCODING 57
SWIDTH 560 0
DWIDTH 21 0
BBX 18 21 2 0
BITMAP
0FF000
3C3C00
781E00
F81F00
F81F80
F80F80
F80F80
F80FC0
F80FC0
7C1FC0
0FEFC0
000FC0
000FC0
780F80
FC0F80
FC0F80
F81F00
701F00
701E00
303800
0FE000
ENDCHAR
STARTCHAR 003A
ENCODING 58
SWIDTH 266 0
DWIDTH 10 0
BBX 7 19 1 -1
BITMAP
3C
7E
FE
FE
7E
7E
3C
00
00
00
00
10
7C
7E
FE
FE
7E
7C
10
ENDCHAR
STARTCHAR 003B
ENCODING 59
SWIDTH 266 0
DWIDTH 10 0
BBX 8 24 1 -6
BITMAP
3C
7E
FE
FE
7E
7E
3C
00
00
00
00
00
3C
7E
FE
FF
7F
3F
06
06
04
08
30
40
ENDCHAR
STARTCHAR 003C
ENCODING 60
SWIDTH 480 0
DWIDTH 18 0
BBX 16 17 1 1
BITMAP
0001
0003
000C
0030
00C0
0300
0C00
3000
C000
6000
1800
0600
0180
0060
0018
0006
0001
ENDCHAR
STARTCHAR 003D
ENCODING 61
SWIDTH 480 0
DWIDTH 18 0
BBX 16 7 1 5
BITMAP
FFFF
0000
0000
0000
0000
0000
FFFF
ENDCHAR
STARTCHAR 003E
ENCODING 62
SWIDTH 480 0
DWIDTH 18 0
BBX 16 17 1 1
BITMAP
8000
C000
3000
0C00
0300
00C0
0030
000C
0003
0006
0018
0020
00C0
0300
0C00
3000
C000
ENDCHAR
STARTCHAR 003F
ENCODING 63
SWIDTH 453 0
DWIDTH 17 0
BBX 16 22 0 -1
BITMAP
0FF0
307C
603E
703F
F83F
FC3F
78FF
11FE
03FC
07F0
0780
0700
0300
0000
0100
07C0
07E0
0FE0
0FE0
07E0
07C0
0100
ENDCHAR
STARTCHAR 0040
ENCODING 64
SWIDTH 1013 0
DWIDTH 38 0
BBX 26 26 5 -5
BITMAP
007FC000
01803000
06000C00
08000200
10000100
207DF900
40FFF080
41F1F080
43E1F040
83C1F040
87C1F040
87C1F040
87C1F040
87C1F040
87C1F040
87C1F040
83E1F080
83E1F080
41FFF100
407CFF00
20003C00
10000000
08000000
04000000
03800000
007E0000
ENDCHAR
STARTCHAR 0041
ENCODING 65
SWIDTH 640 0
DWIDTH 24 0
BBX 24 21 0 0
BITMAP
001800
001800
001C00
003C00
003E00
007E00
007F00
00BF00
009F80
011F80
010FC0
010FC0
0207E0
0207E0
07FFF0
0403F0
0801F0
0801F8
0801F8
1000FC
FE03FF
ENDCHAR
STARTCHAR 0042
ENCODING 66
SWIDTH 613 0
DWIDTH 23 0
BBX 20 21 2 0
BITMAP
FFFC00
7E1F00
7E0F80
7E07C0
7E07C0
7E07C0
7E07C0
7E0FC0
7E1F80
7FF800
7E0F80
7E07C0
7E03E0
7E03F0
7E03F0
7E03F0
7E03F0
7E03E0
7E07E0
7E0FC0
FFFF00
ENDCHAR
STARTCHAR 0043
ENCODING 67
SWIDTH 560 0
DWIDTH 21 0
BBX 19 22 1 -1
BITMAP
01FC20
0F8320
1F00E0
3E00E0
7E0060
7E0020
FC0020
FC0020
FC0020
FC0000
FC0000
FC0000
FC0000
FC0000
FC0020
7C0020
7E0020
3E0040
1E0040
0F0080
03C700
003800
ENDCHAR
STARTCHAR 0044
ENCODING 68
SWIDTH 613 0
DWIDTH 23 0
BBX 21 21 2 0
BITMAP
FFF800
7E1E00
7E0F80
7E07C0
7E03E0
7E03E0
7E03F0
7E01F0
7E01F0
7E01F8
7E01F8
7E01F8
7E01F0
7E01F0
7E01F0
7E03F0
7E03E0
7E07E0
7E07C0
7E1F00
FFF800
ENDCHAR
STARTCHAR 0045
ENCODING 69
SWIDTH 560 0
DWIDTH 21 0
BBX 17 21 2 0
BITMAP
FFFF80
7E0380
7E0180
7E0080
7E0080
7E0080
7E0400
7E0400
7E0C00
7FFC00
7E0C00
7E0400
7E0400
7E0400
7E0080
7E0080
7E0080
7E0080
7E0180
7E0380
FFFF80
ENDCHAR
STARTCHAR 0046
ENCODING 70
SWIDTH 533 0
DWIDTH 20 0
BBX 17 21 2 0
BITMAP
FFFF80
7E0380
7E0180
7E0080
7E0080
7E0080
7E0000
7E0400
7E0400
7E0C00
7FFC00
7E0C00
7E0400
7E0400
7E0400
7E0000
7E0000
7E0000
7E0000
7E0000
FF8000
ENDCHAR
STARTCHAR 0047
ENCODING 71
SWIDTH 613 0
DWIDTH 23 0
BBX 21 22 1 -1
BITMAP
01FC20
0F8320
1F00E0
3E0060
3E0060
7E0020
7E0020
FC0020
FC0000
FC0000
FC0FF8
FC01F0
FC01F0
FC01F0
FC01F0
7E01F0
7E03F0
3E03F0
1E03F0
0F0630
07CC10
003000
ENDCHAR
STARTCHAR 0048
ENCODING 72
SWIDTH 666 0
DWIDTH 25 0
BBX 23 21 1 0
BITMAP
FFC7FE
3F01F8
3F01F8
3F01F8
3F01F8
3F01F8
3F01F8
3F01F8
3F01F8
3FFFF8
3F01F8
3F01F8
3F01F8
3F01F8
3F01F8
3F01F8
3F01F8
3F01F8
3F01F8
3F01F8
FFC7FE
ENDCHAR
STARTCHAR 0049
ENCODING 73
SWIDTH 346 0
DWIDTH 13 0
BBX 9 21 2 0
BITMAP
FF80
7E00
7E00
7E00
7E00
7E00
7E00
7E00
7E00
7E00
7E00
7E00
7E00
7E00
7E00
7E00
7E00
7E00
7E00
7E00
FF80
ENDCHAR
STARTCHAR 004A
ENCODING 74
SWIDTH 506 0
DWIDTH 19 0
BBX 18 21 0 0
BITMAP
00FFC0
003F00
003F00
003F00
003F00
003F00
003F00
003F00
003F00
003F00
003F00
003F00
103F00
7C3F00
7C3F00
FC3F00
FC3E00
703E00
607C00
20F800
1FE000
ENDCHAR
STARTCHAR 004B
ENCODING 75
SWIDTH 640 0
DWIDTH 24 0
BBX 22 21 2 0
BITMAP
FF8FF0
7E0100
7E0100
7E0200
7E0400
7E0800
7E1800
7E1800
7E3C00
7E7C00
7EFE00
7F7E00
7F7F00
7E3F00
7E1F80
7E1FC0
7E0FC0
7E0FE0
7E07E0
7E07F0
FF8FFC
ENDCHAR
STARTCHAR 004C
ENCODING 76
SWIDTH 533 0
DWIDTH 20 0
BBX 17 21 2 0
BITMAP
FF8000
7E0000
7E0000
7E0000
7E0000
7E0000
7E0000
7E0000
7E0000
7E0000
7E0000
7E0000
7E0000
7E0000
7E0080
7E0080
7E0080
7E0080
7E0080
7E0380
FFFF80
ENDCHAR
STARTCHAR 004D
ENCODING 77
SWIDTH 800 0
DWIDTH 30 0
BBX 28 21 1 0
BITMAP
FF800FF0
3F801FC0
2FC01FC0
2FC01FC0
2FE02FC0
27E02FC0
27E04FC0
23F04FC0
23F04FC0
21F88FC0
21F88FC0
21F90FC0
20FD0FC0
20FD0FC0
207E0FC0
207E0FC0
203C0FC0
203C0FC0
201C0FC0
20180FC0
FC183FF0
ENDCHAR
STARTCHAR 004E
ENCODING 78
SWIDTH 613 0
DWIDTH 23 0
BBX 21 21 1 0
BITMAP
FE03F8
7F0040
3F8040
3FC040
2FE040
2FF040
27F040
23F840
21FC40
20FE40
207F40
203FC0
203FC0
201FC0
200FC0
2007C0
2003C0
2001C0
2001C0
2000C0
FC0040
ENDCHAR
STARTCHAR 004F
ENCODING 79
SWIDTH 640 0
DWIDTH 24 0
BBX 22 21 1 0
BITMAP
01FE00
078780
1F03C0
3E01E0
7E01F0
7C01F8
FC01F8
FC00FC
FC00FC
FC00FC
FC00FC
FC00FC
FC00FC
FC00FC
FC01F8
7C01F8
7E01F0
3E01F0
1F03E0
0F8780
01FE00
ENDCHAR
STARTCHAR 0050
ENCODING 80
SWIDTH 560 0
DWIDTH 21 0
BBX 18 21 2 0
BITMAP
FFF000
7E3E00
7E0F00
7E0F80
7E0FC0
7E0FC0
7E0FC0
7E0FC0
7E0FC0
7E0FC0
7E0F80
7E0F00
7E3E00
7FE000
7E0000
7E0000
7E0000
7E0000
7E0000
7E0000
FF8000
ENDCHAR
STARTCHAR 0051
ENCODING 81
SWIDTH 693 0
DWIDTH 26 0
BBX 26 31 1 -10
BITMAP
00FE0000
0783C000
0F01E000
1F00F000
3E00F800
7E007C00
7E007C00
7C007E00
FC007E00
FC007E00
FC007E00
FC007E00
FC007E00
FC007E00
7E007E00
7E007E00
7E00FC00
3E00F800
1F00F800
0781F000
01E3C000
000F8000
007C0000
03E00040
07FC00C0
081FFFC0
000FFF80
0007FF80
0001FF80
0000FF00
00003E00
ENDCHAR
STARTCHAR 0052
ENCODING 82
SWIDTH 640 0
DWIDTH 24 0
BBX 23 21 1 0
BITMAP
FFFE00
3F0FC0
3F07E0
3F03E0
3F03F0
3F03F0
3F03F0
3F03E0
3F07E0
3F0F80
3FFE00
3F1F80
3F0FC0
3F0FE0
3F0FE0
3F07E0
3F07F0
3F07F0
3F03F0
3F01F8
FFC07E
ENDCHAR
STARTCHAR 0053
ENCODING 83
SWIDTH 560 0
DWIDTH 21 0
BBX 18 22 2 -1
BITMAP
07F100
1C1F00
380700
380300
780100
7C0100
7F0100
7FC000
7FF000
3FFC00
1FFF00
0FFF80
03FF80
80FFC0
803FC0
C00FC0
C007C0
E00780
F00780
F80700
871C00
00E000
ENDCHAR
STARTCHAR 0054
ENCODING 84
SWIDTH 586 0
DWIDTH 22 0
BBX 20 21 1 0
BITMAP
FFFFF0
C1F870
81F830
81F810
81F810
81F810
01F800
01F800
01F800
01F800
01F800
01F800
01F800
01F800
01F800
01F800
01F800
01F800
01F800
01F800
0FFE00
ENDCHAR
STARTCHAR 0055
ENCODING 85
SWIDTH 613 0
DWIDTH 23 0
BBX 22 22 1 -1
BITMAP
FFC0FC
3F0010
3F0010
3F0010
3F0010
3F0010
3F0010
3F0010
3F0010
3F0010
3F0010
3F0010
3F0010
3F0010
3F0010
3F0020
3F0020
1F0020
0F8040
07C080
03E300
001C00
ENDCHAR
STARTCHAR 0056
ENCODING 86
SWIDTH 640 0
DWIDTH 24 0
BBX 23 21 0 0
BITMAP
FFE07E
1FC008
1FC010
1FC010
0FE020
0FE020
07F020
07F040
03F840
03F880
01FC80
01FC80
00FD00
00FF00
007E00
007E00
003E00
003C00
001C00
001800
001800
ENDCHAR
STARTCHAR 0057
ENCODING 87
SWIDTH 933 0
DWIDTH 35 0
BBX 35 21 0 0
BITMAP
FFF7FF0FE0
1FC1FC0100
1FC0FE0200
1FE0FE0200
0FE0FF0200
0FF07F0400
07F07F0400
07F87F8400
03F8BF8800
03FC9FC800
01FC9FC800
01FD0FF000
00FF0FF000
00FE0FF000
00FE07E000
007E07E000
007C03C000
003C03C000
003801C000
0018018000
0010008000
ENDCHAR
STARTCHAR 0058
ENCODING 88
SWIDTH 640 0
DWIDTH 24 0
BBX 23 21 0 0
BITMAP
7FE1FC
1FC020
0FE040
0FE080
07F080
03F900
03FA00
01FE00
00FC00
00FE00
007F00
007F00
00BF80
011F80
011FC0
020FE0
060FE0
0407F0
0803F0
0803F8
FE07FE
ENDCHAR
STARTCHAR 0059
ENCODING 89
SWIDTH 613 0
DWIDTH 23 0
BBX 23 21 0 0
BITMAP
FFE0FE
1FC010
1FC020
0FE020
07E040
07F040
03F080
03F880
01F900
01FD00
00FE00
007E00
007E00
007E00
007E00
007E00
007E00
007E00
007E00
007E00
00FF00
ENDCHAR
STARTCHAR 005A
ENCODING 90
SWIDTH 533 0
DWIDTH 20 0
BBX 18 21 1 0
BITMAP
7FFF80
703F80
603F00
607F00
407E00
40FE00
40FC00
01FC00
01F800
03F000
03F000
07E000
0FE000
0FC040
1FC040
1F8040
3F8040
3F00C0
7E00C0
7E01C0
FFFFC0
ENDCHAR
STARTCHAR 005B
ENCODING 91
SWIDTH 266 0
DWIDTH 10 0
BBX 8 26 2 -2
BITMAP
FF
F8
F8
F8
F8
F8
F8
F8
F8
F8
F8
F8
F8
F8
F8
F8
F8
F8
F8
F8
F8
F8
F8
F8
F8
FF
ENDCHAR
STARTCHAR 005C
ENCODING 92
SWIDTH 266 0
DWIDTH 10 0
BBX 7 21 2 0
BITMAP
80
80
80
80
40
40
40
20
20
20
10
10
10
10
08
08
08
04
04
04
06
ENDCHAR
STARTCHAR 005D
ENCODING 93
SWIDTH 266 0
DWIDTH 10 0
BBX 8 26 0 -2
BITMAP
FF
0F
0F
0F
0F
0F
0F
0F
0F
0F
0F
0F
0F
0F
0F
0F
0F
0F
0F
0F
0F
0F
0F
0F
0F
FF
ENDCHAR
STARTCHAR 005E
ENCODING 94
SWIDTH 346 0
DWIDTH 13 0
BBX 11 11 1 8
BITMAP
0400
0A00
0A00
0A00
1100
1100
2080
2080
4040
4040
8020
ENDCHAR
STARTCHAR 005F
ENCODING 95
SWIDTH 533 0
DWIDTH 20 0
BBX 18 1 1 -3
BITMAP
FFFFC0
ENDCHAR
STARTCHAR 0060
ENCODING 96
SWIDTH 533 0
DWIDTH 20 0
BBX 5 6 8 19
BITMAP
E0
F0
F0
F0
38
08
ENDCHAR
STARTCHAR 0061
ENCODING 97
SWIDTH 560 0
DWIDTH 21 0
BBX 18 18 2 0
BITMAP
0FF000
387C00
783E00
7C3E00
FC3E00
FC3F00
783F00
303F00
007F00
0FBF00
3C3F00
F83F00
F83F00
F83F00
F83F00
F83F00
FE7F00
3F9FC0
ENDCHAR
STARTCHAR 0062
ENCODING 98
SWIDTH 560 0
DWIDTH 21 0
BBX 20 26 0 0
BITMAP
FF0000
3F0000
3F0000
3F0000
3F0000
3F0000
3F0000
3F0000
3F3E00
3F7F80
3F8FC0
3F07E0
3F07E0
3F03F0
3F03F0
3F03F0
3F03F0
3F03F0
3F03F0
3F03F0
3F03F0
3F03E0
3F03E0
3307C0
218F80
207E00
ENDCHAR
STARTCHAR 0063
ENCODING 99
SWIDTH 506 0
DWIDTH 19 0
BBX 17 18 1 0
BITMAP
03F800
0F1E00
1E1F00
3E1F00
7C1F80
7C1F80
FC1F80
FC0F00
FC0200
FC0000
FC0000
FC0000
7C0000
7C0000
3E0000
3E0180
0F8200
03FC00
ENDCHAR
STARTCHAR 0064
ENCODING 100
SWIDTH 586 0
DWIDTH 22 0
BBX 20 26 1 0
BITMAP
001FC0
0007C0
0007C0
0007C0
0007C0
0007C0
0007C0
0007C0
07C7C0
1FF7C0
3F17C0
7E0FC0
7E07C0
7C07C0
FC07C0
FC07C0
FC07C0
FC07C0
FC07C0
FC07C0
7C07C0
7C0FC0
7C0FC0
3E0FC0
1F0FC0
07F7F0
ENDCHAR
STARTCHAR 0065
ENCODING 101
SWIDTH 533 0
DWIDTH 20 0
BBX 17 18 1 0
BITMAP
03F000
0E3C00
3E1E00
3C1F00
7C0F00
7C0F80
FC0F80
FC0F80
FC0F80
FFFF80
FC0000
FC0000
7C0000
7C0000
3E0000
3E0080
0F0300
03FC00
ENDCHAR
STARTCHAR 0066
ENCODING 102
SWIDTH 426 0
DWIDTH 16 0
BBX 15 26 1 0
BITMAP
01F8
079C
0F9E
1F1E
1F0E
1F00
3F00
3F00
FFF8
3F00
3F00
3F00
3F00
3F00
3F00
3F00
3F00
3F00
3F00
3F00
3F00
3F00
3F00
3F00
3F00
7FC0
ENDCHAR
STARTCHAR 0067
ENCODING 103
SWIDTH 560 0
DWIDTH 21 0
BBX 19 33 1 -8
BITMAP
0003C0
0007E0
0009E0
0009E0
0009E0
0009C0
000800
03FC00
1E1F00
3E0F80
7E0F80
7C0FC0
FC0FC0
FC0FC0
FC0FC0
7C0F80
7E0F80
3E0F00
1F1E00
0FF000
180000
380000
3FFF00
3FFFC0
3FFFC0
3FFFE0
2FFFE0
6000E0
E00040
F000C0
780080
3C0300
0FFC00
ENDCHAR
STARTCHAR 0068
ENCODING 104
SWIDTH 666 0
DWIDTH 25 0
BBX 21 26 2 0
BITMAP
FE0000
7E0000
7E0000
7E0000
7E0000
7E0000
7E0000
7E0000
7E3F00
7EFF80
7F87C0
7F07E0
7E03E0
7E03E0
7E03E0
7E03E0
7E03E0
7E03E0
7E03E0
7E03E0
7E03E0
7E03E0
7E03E0
7E03E0
7E03E0
FF8FF8
ENDCHAR
STARTCHAR 0069
ENCODING 105
SWIDTH 320 0
DWIDTH 12 0
BBX 9 26 2 0
BITMAP
3C00
7E00
7E00
7E00
7E00
7E00
3C00
0000
FE00
7E00
7E00
7E00
7E00
7E00
7E00
7E00
7E00
7E00
7E00
7E00
7E00
7E00
7E00
7E00
7E00
FF80
ENDCHAR
STARTCHAR 006A
ENCODING 106
SWIDTH 346 0
DWIDTH 13 0
BBX 14 34 -4 -8
BITMAP
0070
00F8
01FC
01FC
01FC
00F8
0070
0000
03FC
00FC
00FC
00FC
00FC
00FC
00FC
00FC
00FC
00FC
00FC
00FC
00FC
00FC
00FC
00FC
00FC
00FC
00F8
00F8
20F8
70F8
F8F8
79F0
79E0
1F80
ENDCHAR
STARTCHAR 006B
ENCODING 107
SWIDTH 613 0
DWIDTH 23 0
BBX 21 26 2 0
BITMAP
FE0000
7E0000
7E0000
7E0000
7E0000
7E0000
7E0000
7E0000
7E0FE0
7E0300
7E0600
7E0C00
7E1800
7E3000
7E3000
7E7800
7EFC00
7FFC00
7EFE00
7E7F00
7E7F00
7E3F80
7E1FC0
7E0FC0
7E07E0
FF81F8
ENDCHAR
STARTCHAR 006C
ENCODING 108
SWIDTH 320 0
DWIDTH 12 0
BBX 9 26 2 0
BITMAP
FE00
7E00
7E00
7E00
7E00
7E00
7E00
7E00
7E00
7E00
7E00
7E00
7E00
7E00
7E00
7E00
7E00
7E00
7E00
7E00
7E00
7E00
7E00
7E00
7E00
FF80
ENDCHAR
STARTCHAR 006D
ENCODING 109
SWIDTH 960 0
DWIDTH 36 0
BBX 33 18 2 0
BITMAP
FE3F03F000
7EFFCFF800
7F87D8FC00
7F07E07E00
7E03E03E00
7E03E03E00
7E03E03E00
7E03E03E00
7E03E03E00
7E03E03E00
7E03E03E00
7E03E03E00
7E03E03E00
7E03E03E00
7E03E03E00
7E03E03E00
7E03E03E00
FF9FF8FF80
ENDCHAR
STARTCHAR 006E
ENCODING 110
SWIDTH 666 0
DWIDTH 25 0
BBX 21 18 2 0
BITMAP
FE3F00
7EFF80
7F87C0
7F07E0
7E03E0
7E03E0
7E03E0
7E03E0
7E03E0
7E03E0
7E03E0
7E03E0
7E03E0
7E03E0
7E03E0
7E03E0
7E03E0
FF8FF8
ENDCHAR
STARTCHAR 006F
ENCODING 111
SWIDTH 560 0
DWIDTH 21 0
BBX 19 18 1 0
BITMAP
01F800
0F0E00
1E0F80
3C07C0
7C07C0
7C07E0
FC07E0
FC07E0
FC07E0
FC07E0
FC07E0
FC07E0
7C07E0
7C07C0
3C0780
1E0F80
0F0E00
03F800
ENDCHAR
STARTCHAR 0070
ENCODING 112
SWIDTH 586 0
DWIDTH 22 0
BBX 20 26 1 -8
BITMAP
FE7E00
3EFF80
3F0FC0
3F07C0
3F03E0
3E03E0
3E03F0
3E03F0
3E03F0
3E03F0
3E03F0
3E03F0
3E03E0
3E07E0
3E07E0
3F0FC0
3EDF80
3E7F00
3E0800
3E0000
3E0000
3E0000
3E0000
3E0000
3E0000
3F8000
ENDCHAR
STARTCHAR 0071
ENCODING 113
SWIDTH 586 0
DWIDTH 22 0
BBX 20 26 1 -8
BITMAP
07C7F0
1FF7C0
3F1FC0
3E0FC0
7C0FC0
7C0FC0
FC07C0
FC07C0
FC07C0
FC07C0
FC07C0
FC07C0
7C07C0
7C07C0
7E07C0
3F0FC0
1FB7C0
0FE7C0
0107C0
0007C0
0007C0
0007C0
0007C0
0007C0
0007C0
001FF0
ENDCHAR
STARTCHAR 0072
ENCODING 114
SWIDTH 480 0
DWIDTH 18 0
BBX 16 18 2 0
BITMAP
FE3E
7E7F
7EBF
7F1F
7F1E
7F00
7E00
7E00
7E00
7E00
7E00
7E00
7E00
7E00
7E00
7E00
7E00
FF80
ENDCHAR
STARTCHAR 0073
ENCODING 115
SWIDTH 480 0
DWIDTH 18 0
BBX 17 18 1 0
BITMAP
07F000
180C00
300E00
701E00
F81E00
FC1E00
FFC000
7FF800
7FFE00
3FFF00
0FFF00
61FF00
F83F80
F80F00
F00700
700700
300E00
0FF800
ENDCHAR
STARTCHAR 0074
ENCODING 116
SWIDTH 373 0
DWIDTH 14 0
BBX 13 24 0 0
BITMAP
0080
0080
0180
0180
0380
0F80
FFF8
1F80
1F80
1F80
1F80
1F80
1F80
1F80
1F80
1F80
1F80
1F80
1F80
1F80
1F80
0FC0
07F8
03F0
ENDCHAR
STARTCHAR 0075
ENCODING 117
SWIDTH 613 0
DWIDTH 23 0
BBX 22 18 0 0
BITMAP
FF07F0
3F01F0
3F01F0
3F01F0
3F01F0
3F01F0
3F01F0
3F01F0
3F01F0
3F01F0
3F01F0
3F01F0
3F01F0
1F01F0
1F03F0
1F85F0
0FF9F0
03F1FC
ENDCHAR
STARTCHAR 0076
ENCODING 118
SWIDTH 533 0
DWIDTH 20 0
BBX 20 18 0 0
BITMAP
FFC3F0
3F8040
1F8080
1FC080
0FC080
0FE100
07E100
07E200
03F200
03F200
01FC00
01FC00
00F800
00F800
007000
007000
003000
002000
ENDCHAR
STARTCHAR 0077
ENCODING 119
SWIDTH 853 0
DWIDTH 32 0
BBX 31 18 0 0
BITMAP
FFE7FC7E
3F83F808
1F81F810
1FC1FC10
0FC1FC10
0FE1FC20
07E2FE20
07F27E40
03F47F40
03F43F40
01FC3F80
01F81F80
01F81F80
00F00F00
00F00F00
00700E00
00600600
00200600
ENDCHAR
STARTCHAR 0078
ENCODING 120
SWIDTH 586 0
DWIDTH 22 0
BBX 22 18 0 0
BITMAP
FFC3F0
3F80C0
1F8080
1FC100
0FE200
07E400
03F400
03F800
01FC00
00FC00
00FE00
017F00
023F80
021F80
041FC0
080FE0
1007E0
FE0FFC
ENDCHAR
STARTCHAR 0079
ENCODING 121
SWIDTH 560 0
DWIDTH 21 0
BBX 21 26 0 -8
BITMAP
FFC1F8
3F8040
3F8040
1FC040
1FC080
0FE080
07E100
07F100
03F200
03FA00
01FA00
01FC00
00FC00
00F800
007800
007000
003000
002000
002000
002000
784000
7C4000
FE8000
FF8000
7F0000
3E0000
ENDCHAR
STARTCHAR 007A
ENCODING 122
SWIDTH 506 0
DWIDTH 19 0
BBX 18 18 0 0
BITMAP
3FFFC0
381F80
303F00
207F00
207E00
40FC00
41FC00
01F800
03F000
07F000
07E040
0FE040
0FC080
1F8080
3F8080
3F0180
7E0380
FFFF80
ENDCHAR
STARTCHAR 007B
ENCODING 123
SWIDTH 293 0
DWIDTH 11 0
BBX 10 27 1 -3
BITMAP
07C0
0F00
1E00
1E00
3E00
3E00
1F00
1F00
1F00
1F00
1F00
1F00
1E00
F800
1E00
1F00
1F00
1F00
1F00
1F00
1F00
3E00
3E00
1E00
1E00
0F00
07C0
ENDCHAR
STARTCHAR 007C
ENCODING 124
SWIDTH 133 0
DWIDTH 5 0
BBX 1 26 2 -4
BITMAP
80
80
80
80
80
80
80
80
80
80
80
80
80
80
80
80
80
80
80
80
80
80
80
80
80
80
ENDCHAR
STARTCHAR 007D
ENCODING 125
SWIDTH 293 0
DWIDTH 11 0
BBX 10 27 0 -3
BITMAP
F800
3C00
1E00
1E00
1F00
1E00
3E00
3E00
3E00
3E00
3C00
3E00
1E00
07C0
1E00
3E00
3C00
3E00
3E00
3E00
3E00
1E00
1F00
1E00
1E00
3C00
F800
ENDCHAR
STARTCHAR 007E
ENCODING 126
SWIDTH 480 0
DWIDTH 18 0
BBX 16 7 1 6
BITMAP
0001
1F01
7FE1
7FFF
FFFF
87FE
80FC
ENDCHAR
STARTCHAR 00A0
ENCODING 160
SWIDTH 213 0
DWIDTH 8 0
BBX 0 0 0 0
BITMAP
ENDCHAR
STARTCHAR 00A1
ENCODING 161
SWIDTH 266 0
DWIDTH 10 0
BBX 7 21 1 0
BITMAP
38
7C
7E
7E
7C
38
00
10
10
18
18
38
3C
7C
7E
7E
FE
FE
FE
7E
3C
ENDCHAR
STARTCHAR 00A2
ENCODING 162
SWIDTH 426 0
DWIDTH 16 0
BBX 12 17 2 2
BITMAP
0010
0FD0
3C20
7820
F8F0
F8F0
F8E0
F0C0
F100
F900
FA10
FE10
7E30
3FE0
1F80
0800
1000
ENDCHAR
STARTCHAR 00A3
ENCODING 163
SWIDTH 506 0
DWIDTH 19 0
BBX 16 21 2 0
BITMAP
07F0
1E0C
3C06
7C3E
7C7E
7C7E
7C3C
7E00
3E00
FFF0
3E00
1E00
1C00
3801
3001
6F83
7FFF
FFFF
C7FE
81FE
807C
ENDCHAR
STARTCHAR 00A4
ENCODING 164
SWIDTH 453 0
DWIDTH 17 0
BBX 14 14 2 2
BITMAP
800C
C018
6FB0
3060
2020
2020
2020
2020
2020
2020
1040
2FA0
4010
800C
ENDCHAR
STARTCHAR 00A5
ENCODING 165
SWIDTH 613 0
DWIDTH 23 0
BBX 23 21 0 0
BITMAP
FFE0FE
1FC010
1FC010
0FE020
07E040
07F040
03F080
03F880
01F900
1FFDF8
00FE00
007E00
007E00
1FFFF8
007E00
007E00
007E00
007E00
007E00
007E00
01FF80
ENDCHAR
STARTCHAR 00A6
ENCODING 166
SWIDTH 133 0
DWIDTH 5 0
BBX 1 21 2 0
BITMAP
80
80
80
80
80
80
80
80
80
00
00
00
80
80
80
80
80
80
80
80
80
ENDCHAR
STARTCHAR 00A7
ENCODING 167
SWIDTH 400 0
DWIDTH 15 0
BBX 13 21 1 0
BITMAP
0FF0
3870
7830
7C10
7F80
3FE0
3FF0
1FF8
63F8
E078
F038
FC30
FF60
7FC0
7FE0
1FE0
47F0
41F0
60E0
7060
4F80
ENDCHAR
STARTCHAR 00A8
ENCODING 168
SWIDTH 693 0
DWIDTH 26 0
BBX 11 5 8 20
BITMAP
61C0
F3E0
F3E0
F3E0
61C0
ENDCHAR
STARTCHAR 00A9
ENCODING 169
SWIDTH 613 0
DWIDTH 23 0
BBX 21 21 1 0
BITMAP
01FC00
060300
080080
100040
207C20
41E210
43C210
878F10
878F08
878E08
878008
878008
878108
87C110
43E210
41FE10
207820
100040
080080
060300
01FC00
ENDCHAR
STARTCHAR 00AB
ENCODING 171
SWIDTH 453 0
DWIDTH 17 0
BBX 14 11 2 3
BITMAP
020C
0618
1C38
3870
79E0
F1E0
79E0
3C70
1C30
0618
020C
ENDCHAR
STARTCHAR 00AC
ENCODING 172
SWIDTH 506 0
DWIDTH 19 0
BBX 16 10 2 0
BITMAP
FFFF
0001
0001
0001
0001
0001
0001
0001
0001
0001
ENDCHAR
STARTCHAR 00AE
ENCODING 174
SWIDTH 613 0
DWIDTH 23 0
BBX 21 21 1 0
BITMAP
01FC00
060300
080080
100040
200020
43F810
41CE10
81CE10
81CE08
81CC08
81F808
81DC08
81CE08
81CE10
41CF10
43E710
200020
100040
080080
060300
01FC00
ENDCHAR
STARTCHAR 00AF
ENCODING 175
SWIDTH 613 0
DWIDTH 23 0
BBX 7 2 8 21
BITMAP
FE
FE
ENDCHAR
STARTCHAR 00B0
ENCODING 176
SWIDTH 426 0
DWIDTH 16 0
BBX 8 8 4 22
BITMAP
3C
E6
C7
C7
C7
C7
E6
3C
ENDCHAR
STARTCHAR 00B1
ENCODING 177
SWIDTH 506 0
DWIDTH 19 0
BBX 16 18 2 1
BITMAP
0100
0100
0100
0100
0100
0100
0100
FFFF
0100
0100
0100
0100
0100
0100
0100
0000
0000
FFFF
ENDCHAR
STARTCHAR 00B2
ENCODING 178
SWIDTH 266 0
DWIDTH 10 0
BBX 6 9 2 12
BITMAP
78
9C
CC
DC
18
30
44
FC
BC
ENDCHAR
STARTCHAR 00B3
ENCODING 179
SWIDTH 266 0
DWIDTH 10 0
BBX 6 9 2 12
BITMAP
F8
9C
D8
78
1C
CC
CC
9C
70
ENDCHAR
STARTCHAR 00B4
ENCODING 180
SWIDTH 533 0
DWIDTH 20 0
BBX 5 6 8 19
BITMAP
30
78
78
F0
C0
80
ENDCHAR
STARTCHAR 00B5
ENCODING 181
SWIDTH 613 0
DWIDTH 23 0
BBX 22 26 0 -8
BITMAP
FF07F0
3F01F0
3F01F0
3F01F0
3F01F0
3F01F0
3F01F0
3F01F0
3F01F0
3F01F0
3F01F0
3F01F0
3F01F0
3F01F0
3F03F0
3F85F0
3FF9F0
3FF1FC
3F0000
3F0000
3F0000
3F0000
3F0000
3F0000
3F0000
3F0000
ENDCHAR
STARTCHAR 00B6
ENCODING 182
SWIDTH 480 0
DWIDTH 18 0
BBX 16 21 1 0
BITMAP
1FFF
7E04
FE04
FE04
FE04
FE04
FE04
FE04
FE04
FE04
7E04
1E04
0204
0204
0204
0204
0204
0204
0204
0204
0E07
ENDCHAR
STARTCHAR 00B7
ENCODING 183
SWIDTH 240 0
DWIDTH 9 0
BBX 7 8 1 6
BITMAP
78
FC
FE
FE
FE
FE
FC
78
ENDCHAR
STARTCHAR 00B8
ENCODING 184
SWIDTH 586 0
DWIDTH 22 0
BBX 7 10 8 -9
BITMAP
10
10
20
20
78
0C
0E
0E
8C
78
ENDCHAR
STARTCHAR 00B9
ENCODING 185
SWIDTH 213 0
DWIDTH 8 0
BBX 5 9 2 12
BITMAP
70
F0
70
70
70
70
70
70
F8
ENDCHAR
STARTCHAR 00BB
ENCODING 187
SWIDTH 426 0
DWIDTH 16 0
BBX 13 11 2 3
BITMAP
8200
C300
61C0
79E0
3CF0
3EF8
3CF0
71E0
6180
C300
8200
ENDCHAR
STARTCHAR 00BC
ENCODING 188
SWIDTH 533 0
DWIDTH 20 0
BBX 17 21 2 0
BITMAP
300400
F00800
700800
701000
701000
702000
702000
704000
708000
708000
F90600
010E00
021E00
021E00
042E00
044E00
084E00
088E80
10FF80
100E80
201F00
ENDCHAR
STARTCHAR 00BD
ENCODING 189
SWIDTH 560 0
DWIDTH 21 0
BBX 18 21 2 0
BITMAP
300400
F00800
700800
701000
701000
702000
702000
704000
708000
709E00
F92380
016380
0273C0
023380
040380
040700
080800
081040
103FC0
103FC0
204780
ENDCHAR
STARTCHAR 00BE
ENCODING 190
SWIDTH 613 0
DWIDTH 23 0
BBX 19 21 2 0
BITMAP
7C0100
8E0200
CE0200
0E0400
380400
0E0800
471000
C71000
C72000
8E2180
784180
004380
008580
008580
010980
011180
021180
0421A0
043FE0
0801A0
0807E0
ENDCHAR
STARTCHAR 00BF
ENCODING 191
SWIDTH 453 0
DWIDTH 17 0
BBX 16 21 1 0
BITMAP
01C0
03E0
03F0
03F0
03E0
01C0
0000
0080
00C0
01C0
03E0
0FC0
3F80
7F0C
7E1F
FC3F
FC1F
7C0F
7E06
3F04
0FF8
ENDCHAR
STARTCHAR 00C0
ENCODING 192
SWIDTH 640 0
DWIDTH 24 0
BBX 24 28 0 0
BITMAP
00E000
01E000
01F000
00F000
003000
000800
000000
001800
001800
001C00
003C00
003E00
007E00
007F00
00BF00
009F80
011F80
010FC0
010FC0
0207E0
0207E0
07FFF0
0403F0
0801F0
0801F8
0801F8
1000FC
FE03FF
ENDCHAR
STARTCHAR 00C1
ENCODING 193
SWIDTH 640 0
DWIDTH 24 0
BBX 24 28 0 0
BITMAP
000300
000780
000780
000F00
000C00
000800
000000
001800
001800
001C00
003C00
003E00
007E00
007F00
00BF00
009F80
011F80
010FC0
010FC0
0207E0
0207E0
07FFF0
0403F0
0801F0
0801F8
0801F8
1000FC
FE03FF
ENDCHAR
STARTCHAR 00C2
ENCODING 194
SWIDTH 640 0
DWIDTH 24 0
BBX 24 29 0 0
BITMAP
000800
001800
003C00
003E00
007600
004300
000000
000000
001800
001800
001C00
003C00
003E00
007E00
007F00
00BF00
009F80
011F80
010FC0
010FC0
0207E0
0207E0
07FFF0
0403F0
0801F0
0801F8
0801F8
1000FC
FE03FF
ENDCHAR
STARTCHAR 00C3
ENCODING 195
SWIDTH 640 0
DWIDTH 24 0
BBX 24 28 0 0
BITMAP
003000
007900
007F00
009F00
000E00
000000
000000
001800
001800
001C00
003C00
003E00
007E00
007F00
00BF00
009F80
011F80
010FC0
010FC0
0207E0
0207E0
07FFF0
0403F0
0801F0
0801F8
0801F8
1000FC
FE03FF
ENDCHAR
STARTCHAR 00C4
ENCODING 196
SWIDTH 640 0
DWIDTH 24 0
BBX 24 29 0 0
BITMAP
01C380
01E7C0
03E7C0
01E7C0
01C380
000000
000000
000000
001800
001800
001C00
003C00
003E00
007E00
007F00
00BF00
009F80
011F80
010FC0
010FC0
0207E0
0207E0
07FFF0
0403F0
0801F0
0801F8
0801F8
1000FC
FE03FF
ENDCHAR
STARTCHAR 00C5
ENCODING 197
SWIDTH 640 0
DWIDTH 24 0
BBX 24 30 0 0
BITMAP
001800
007C00
006600
004200
004200
006600
003C00
000000
000000
001800
001800
001C00
003C00
003E00
007E00
007F00
00BF00
009F80
011F80
010FC0
010FC0
0207E0
0207E0
07FFF0
0403F0
0801F0
0801F8
0801F8
1000FC
FE03FF
ENDCHAR
STARTCHAR 00C6
ENCODING 198
SWIDTH 826 0
DWIDTH 31 0
BBX 30 21 0 0
BITMAP
000FFFFC
0003F81C
0007F804
0005F804
0009F804
0009F804
0011F820
0021F820
0021F860
0041FFE0
0041F860
0081F820
0101F820
01FFF820
0201F804
0201F804
0401F804
0801F804
0801F80C
1001F81C
FE07FFFC
ENDCHAR
STARTCHAR 00C7
ENCODING 199
SWIDTH 560 0
DWIDTH 21 0
BBX 19 30 1 -9
BITMAP
01FC20
0F8320
1F00E0
3E00E0
7E0060
7E0020
FC0020
FC0020
FC0020
FC0000
FC0000
FC0000
FC0000
FC0000
FC0020
7C0020
7E0020
3E0040
1E0040
0F0080
03C700
003800
001000
001000
003C00
000600
000700
000700
00C600
003C00
ENDCHAR
STARTCHAR 00C8
ENCODING 200
SWIDTH 560 0
DWIDTH 21 0
BBX 17 28 2 1
BITMAP
078000
078000
07C000
03C000
004000
002000
000000
FFFF80
7E0380
7E0180
7E0080
7E0080
7E0080
7E0400
7E0400
7E0C00
7FFC00
7E0C00
7E0400
7E0400
7E0400
7E0080
7E0080
7E0080
7E0080
7E0180
7E0380
FFFF80
ENDCHAR
STARTCHAR 00C9
ENCODING 201
SWIDTH 560 0
DWIDTH 21 0
BBX 17 28 2 1
BITMAP
007800
007800
007800
00F000
008000
000000
000000
FFFF80
7E0380
7E0180
7E0080
7E0080
7E0080
7E0400
7E0400
7E0C00
7FFC00
7E0C00
7E0400
7E0400
7E0400
7E0080
7E0080
7E0080
7E0080
7E0180
7E0380
FFFF80
ENDCHAR
STARTCHAR 00CA
ENCODING 202
SWIDTH 560 0
DWIDTH 21 0
BBX 17 29 2 0
BITMAP
004000
00C000
01E000
01F000
033000
040800
000000
000000
FFFF80
7E0380
7E0180
7E0080
7E0080
7E0080
7E0400
7E0400
7E0C00
7FFC00
7E0C00
7E0400
7E0400
7E0400
7E0080
7E0080
7E0080
7E0080
7E0180
7E0380
FFFF80
ENDCHAR
STARTCHAR 00CB
ENCODING 203
SWIDTH 560 0
DWIDTH 21 0
BBX 17 29 2 0
BITMAP
0E1C00
0F3C00
1F3E00
1F3C00
0E1C00
000000
000000
000000
FFFF80
7E0380
7E0180
7E0080
7E0080
7E0080
7E0400
7E0400
7E0C00
7FFC00
7E0C00
7E0400
7E0400
7E0400
7E0080
7E0080
7E0080
7E0080
7E0180
7E0380
FFFF80
ENDCHAR
STARTCHAR 00CC
ENCODING 204
SWIDTH 320 0
DWIDTH 12 0
BBX 9 28 2 1
BITMAP
F000
F000
F000
7000
0800
0000
0000
FF80
7E00
7E00
7E00
7E00
7E00
7E00
7E00
7E00
7E00
7E00
7E00
7E00
7E00
7E00
7E00
7E00
7E00
7E00
7E00
FF80
ENDCHAR
STARTCHAR 00CD
ENCODING 205
SWIDTH 320 0
DWIDTH 12 0
BBX 9 28 2 1
BITMAP
0F00
0F00
1F00
1E00
1000
0000
0000
FF80
7E00
7E00
7E00
7E00
7E00
7E00
7E00
7E00
7E00
7E00
7E00
7E00
7E00
7E00
7E00
7E00
7E00
7E00
7E00
FF80
ENDCHAR
STARTCHAR 00CE
ENCODING 206
SWIDTH 320 0
DWIDTH 12 0
BBX 9 29 2 0
BITMAP
1800
1800
3C00
7C00
6600
8100
0000
0000
FF80
7E00
7E00
7E00
7E00
7E00
7E00
7E00
7E00
7E00
7E00
7E00
7E00
7E00
7E00
7E00
7E00
7E00
7E00
7E00
FF80
ENDCHAR
STARTCHAR 00CF
ENCODING 207
SWIDTH 320 0
DWIDTH 12 0
BBX 12 29 0 0
BITMAP
70E0
F9E0
F9F0
F9E0
70E0
0000
0000
0000
3FE0
1F80
1F80
1F80
1F80
1F80
1F80
1F80
1F80
1F80
1F80
1F80
1F80
1F80
1F80
1F80
1F80
1F80
1F80
1F80
3FE0
ENDCHAR
STARTCHAR 00D0
ENCODING 208
SWIDTH 640 0
DWIDTH 24 0
BBX 21 21 2 0
BITMAP
FFF800
7E1E00
7E0F80
7E07C0
7E03E0
7E03E0
7E03F0
7E01F0
7E01F0
FFF1F8
7E01F8
7E01F8
7E01F0
7E01F0
7E01F0
7E03F0
7E03E0
7E07E0
7E07C0
7E1F00
FFF800
ENDCHAR
STARTCHAR 00D1
ENCODING 209
SWIDTH 613 0
DWIDTH 23 0
BBX 21 28 1 0
BITMAP
00E000
00F200
01FE00
013C00
001800
000000
000000
FE03F8
7F0040
3F8040
3FC040
2FE040
2FF040
27F040
23F840
21FC40
20FE40
207F40
203FC0
203FC0
201FC0
200FC0
2007C0
2003C0
2001C0
2001C0
2000C0
FC0040
ENDCHAR
STARTCHAR 00D2
ENCODING 210
SWIDTH 640 0
DWIDTH 24 0
BBX 22 28 1 0
BITMAP
018000
03C000
03C000
01E000
006000
002000
000000
01FE00
078780
1F03C0
3E01E0
7E01F0
7C01F8
FC01F8
FC00FC
FC00FC
FC00FC
FC00FC
FC00FC
FC00FC
FC00FC
FC01F8
7C01F8
7E01F0
3E01F0
1F03E0
0F8780
01FE00
ENDCHAR
STARTCHAR 00D3
ENCODING 211
SWIDTH 640 0
DWIDTH 24 0
BBX 22 28 1 0
BITMAP
000E00
000F00
001F00
001E00
001800
002000
000000
01FE00
078780
1F03C0
3E01E0
7E01F0
7C01F8
FC01F8
FC00FC
FC00FC
FC00FC
FC00FC
FC00FC
FC00FC
FC00FC
FC01F8
7C01F8
7E01F0
3E01F0
1F03E0
0F8780
01FE00
ENDCHAR
STARTCHAR 00D4
ENCODING 212
SWIDTH 640 0
DWIDTH 24 0
BBX 22 29 1 0
BITMAP
002000
003000
007800
00F800
00FC00
018600
000000
000000
01FE00
078780
1F03C0
3E01E0
7E01F0
7C01F8
FC01F8
FC00FC
FC00FC
FC00FC
FC00FC
FC00FC
FC00FC
FC00FC
FC01F8
7C01F8
7E01F0
3E01F0
1F03E0
0F8780
01FE00
ENDCHAR
STARTCHAR 00D5
ENCODING 213
SWIDTH 640 0
DWIDTH 24 0
BBX 22 28 1 0
BITMAP
00E000
01F200
01FC00
013C00
001800
000000
000000
01FE00
078780
1F03C0
3E01E0
7E01F0
7C01F8
FC01F8
FC00FC
FC00FC
FC00FC
FC00FC
FC00FC
FC00FC
FC00FC
FC01F8
7C01F8
7E01F0
3E01F0
1F03E0
0F8780
01FE00
ENDCHAR
STARTCHAR 00D6
ENCODING 214
SWIDTH 640 0
DWIDTH 24 0
BBX 22 29 1 0
BITMAP
038600
07CF00
07CF00
07CF00
038600
000000
000000
000000
01FE00
078780
1F03C0
3E01E0
7E01F0
7C01F8
FC01F8
FC00FC
FC00FC
FC00FC
FC00FC
FC00FC
FC00FC
FC00FC
FC01F8
7C01F8
7E01F0
3E01F0
1F03E0
0F8780
01FE00
ENDCHAR
STARTCHAR 00D7
ENCODING 215
SWIDTH 400 0
DWIDTH 15 0
BBX 11 12 2 3
BITMAP
8020
8020
4040
2080
1100
0A00
0400
0A00
1100
2080
4040
8020
ENDCHAR
STARTCHAR 00D8
ENCODING 216
SWIDTH 720 0
DWIDTH 27 0
BBX 22 21 2 0
BITMAP
00FE04
0783C8
0F03F0
1F01F0
3E01F8
7E00F8
7E01FC
7E02FC
FC04FC
FC08FC
FC10FC
FC20FC
FC40FC
7E80FC
7F00FC
7E00F8
3E00F8
1F01F0
2F01E0
4783C0
81FE00
ENDCHAR
STARTCHAR 00D9
ENCODING 217
SWIDTH 613 0
DWIDTH 23 0
BBX 22 29 1 0
BITMAP
007800
007800
007800
003800
000C00
000000
000000
FFC0FC
3F0010
3F0010
3F0010
3F0010
3F0010
3F0010
3F0010
3F0010
3F0010
3F0010
3F0010
3F0010
3F0010
3F0010
3F0020
3F0020
1F0020
0F8040
07C080
03E300
001C00
ENDCHAR
STARTCHAR 00DA
ENCODING 218
SWIDTH 613 0
DWIDTH 23 0
BBX 22 29 1 0
BITMAP
000780
000780
000780
000F00
000800
000000
000000
FFC0FC
3F0010
3F0010
3F0010
3F0010
3F0010
3F0010
3F0010
3F0010
3F0010
3F0010
3F0010
3F0010
3F0010
3F0010
3F0020
3F0020
1F0020
0F8040
07C080
03E300
001C00
ENDCHAR
STARTCHAR 00DB
ENCODING 219
SWIDTH 613 0
DWIDTH 23 0
BBX 22 30 1 -1
BITMAP
000800
001C00
001C00
003E00
007700
004100
000000
000000
FFC0FC
3F0010
3F0010
3F0010
3F0010
3F0010
3F0010
3F0010
3F0010
3F0010
3F0010
3F0010
3F0010
3F0010
3F0010
3F0020
3F0020
1F0020
0F8040
07C080
03E300
001C00
ENDCHAR
STARTCHAR 00DC
ENCODING 220
SWIDTH 613 0
DWIDTH 23 0
BBX 22 30 1 -1
BITMAP
00E180
01F3C0
01F3C0
01F3C0
00E1C0
000000
000000
000000
FFC0FC
3F0010
3F0010
3F0010
3F0010
3F0010
3F0010
3F0010
3F0010
3F0010
3F0010
3F0010
3F0010
3F0010
3F0010
3F0020
3F0020
1F0020
0F8040
07C080
03E300
001C00
ENDCHAR
STARTCHAR 00DD
ENCODING 221
SWIDTH 613 0
DWIDTH 23 0
BBX 23 28 0 1
BITMAP
000380
000780
000780
000700
000C00
000000
000000
FFE0FE
1FC010
1FC020
0FE020
07E040
07F040
03F080
03F880
01F900
01FD00
00FE00
007E00
007E00
007E00
007E00
007E00
007E00
007E00
007E00
007E00
00FF00
ENDCHAR
STARTCHAR 00DE
ENCODING 222
SWIDTH 560 0
DWIDTH 21 0
BBX 18 21 2 0
BITMAP
FF8000
7E0000
7E0000
7FF000
7E3E00
7E0F00
7E0F80
7E0FC0
7E0FC0
7E0FC0
7E0FC0
7E0FC0
7E0FC0
7E0F80
7E0F00
7E3E00
7FE000
7E0000
7E0000
7E0000
FF8000
ENDCHAR
STARTCHAR 00DF
ENCODING 223
SWIDTH 693 0
DWIDTH 26 0
BBX 24 26 2 0
BITMAP
00FF00
0781E0
0F00F0
1F00F8
3F00F8
3E00F0
3E00E0
7E01C0
FE0300
7E0C00
7E1800
7E3800
7E7C00
7E7F00
7E7FE0
7E3FF8
7E3FFE
7E0FFE
7E01FF
7E187F
7E3C3F
7E7C1F
7E3C1E
7E381C
7E1838
FF87E0
ENDCHAR
STARTCHAR 00E0
ENCODING 224
SWIDTH 533 0
DWIDTH 20 0
BBX 18 25 2 0
BITMAP
070000
0F0000
078000
078000
018000
004000
000000
0FF000
387C00
783E00
7C3E00
FC3E00
FC3F00
783F00
303F00
007F00
0FBF00
3C3F00
F83F00
F83F00
F83F00
F83F00
F83F00
FE7F00
3F9FC0
ENDCHAR
STARTCHAR 00E1
ENCODING 225
SWIDTH 533 0
DWIDTH 20 0
BBX 18 25 2 0
BITMAP
00E000
00F000
01F000
01E000
018000
020000
000000
0FF000
387C00
783E00
7C3E00
FC3E00
FC3F00
783F00
303F00
007F00
0FBF00
3C3F00
F83F00
F83F00
F83F00
F83F00
F83F00
FE7F00
3F9FC0
ENDCHAR
STARTCHAR 00E2
ENCODING 226
SWIDTH 533 0
DWIDTH 20 0
BBX 18 25 2 0
BITMAP
008000
01C000
03C000
03E000
063000
000000
000000
0FF000
387C00
783E00
7C3E00
FC3E00
FC3F00
783F00
303F00
007F00
0FBF00
3C3F00
F83F00
F83F00
F83F00
F83F00
F83F00
FE7F00
3F9FC0
ENDCHAR
STARTCHAR 00E3
ENCODING 227
SWIDTH 533 0
DWIDTH 20 0
BBX 18 25 2 0
BITMAP
070000
079000
0FF000
09E000
00C000
000000
000000
0FF000
387C00
783E00
7C3E00
FC3E00
FC3F00
783F00
303F00
007F00
0FBF00
3C3F00
F83F00
F83F00
F83F00
F83F00
F83F00
FE7F00
3F9FC0
ENDCHAR
STARTCHAR 00E4
ENCODING 228
SWIDTH 533 0
DWIDTH 20 0
BBX 18 25 2 0
BITMAP
1C3800
3E7800
3E7C00
3E7800
1C3800
000000
000000
0FF000
387C00
783E00
7C3E00
FC3E00
FC3F00
783F00
303F00
007F00
0FBF00
3C3F00
F83F00
F83F00
F83F00
F83F00
F83F00
FE7F00
3F9FC0
ENDCHAR
STARTCHAR 00E5
ENCODING 229
SWIDTH 533 0
DWIDTH 20 0
BBX 18 26 2 0
BITMAP
03C000
07E000
066000
042000
066000
03C000
000000
000000
0FF000
387C00
783E00
7C3E00
FC3E00
FC3F00
783F00
303F00
007F00
0FBF00
3C3F00
F83F00
F83F00
F83F00
F83F00
F83F00
FE7F00
3F9FC0
ENDCHAR
STARTCHAR 00E6
ENCODING 230
SWIDTH 800 0
DWIDTH 30 0
BBX 28 18 1 0
BITMAP
07F07E00
1C3DC780
3C1FC3C0
7E1F83E0
7E1F83E0
7E1F83F0
3C1F81F0
001F81F0
01FF81F0
1F1FFFF0
3C1F8000
7C1F8000
7C1F8000
FC0F8000
7C0F8010
7E0FC020
3FF3E0C0
1FC0FF00
ENDCHAR
STARTCHAR 00E7
ENCODING 231
SWIDTH 506 0
DWIDTH 19 0
BBX 17 27 1 -9
BITMAP
03F800
0F1E00
1E1F00
3E1F00
7C1F80
7C1F80
FC1F80
FC0F00
FC0200
FC0000
FC0000
FC0000
7C0000
7C0000
7E0000
3E0180
0F8200
03FC00
002000
004000
00C000
007800
001C00
001C00
001C00
011800
00F000
ENDCHAR
STARTCHAR 00E8
ENCODING 232
SWIDTH 533 0
DWIDTH 20 0
BBX 17 25 1 0
BITMAP
030000
078000
078000
03C000
00C000
004000
000000
03F000
0E3C00
3E1E00
3C1F00
7C0F00
7C0F80
FC0F80
FC0F80
FC0F80
FFFF80
FC0000
FC0000
7C0000
7C0000
3E0000
3E0080
0F0300
03FC00
ENDCHAR
STARTCHAR 00E9
ENCODING 233
SWIDTH 533 0
DWIDTH 20 0
BBX 17 25 1 0
BITMAP
003800
007800
007800
007000
00C000
008000
000000
03F000
0E3C00
3E1E00
3C1F00
7C0F00
7C0F80
FC0F80
FC0F80
FC0F80
FFFF80
FC0000
FC0000
7C0000
7C0000
3E0000
3E0080
0F0300
03FC00
ENDCHAR
STARTCHAR 00EA
ENCODING 234
SWIDTH 533 0
DWIDTH 20 0
BBX 17 26 1 0
BITMAP
004000
00C000
00E000
01E000
03F000
061800
000000
000000
03F000
0E3C00
3E1E00
3C1F00
7C0F00
7C0F80
FC0F80
FC0F80
FC0F80
FFFF80
FC0000
FC0000
7C0000
7C0000
3E0000
3E0080
0F0300
03FC00
ENDCHAR
STARTCHAR 00EB
ENCODING 235
SWIDTH 533 0
DWIDTH 20 0
BBX 17 25 1 0
BITMAP
0E1800
1F3C00
1F3C00
1F3C00
0E1800
000000
000000
03F000
0E3C00
3E1E00
3C1F00
7C0F00
7C0F80
FC0F80
FC0F80
FC0F80
FFFF80
FC0000
FC0000
7C0000
7C0000
3E0000
3E0080
0F0300
03FC00
ENDCHAR
STARTCHAR 00EC
ENCODING 236
SWIDTH 320 0
DWIDTH 12 0
BBX 9 25 2 1
BITMAP
7000
F800
7800
3800
0C00
0000
0000
FE00
7E00
7E00
7E00
7E00
7E00
7E00
7E00
7E00
7E00
7E00
7E00
7E00
7E00
7E00
7E00
7E00
FF80
ENDCHAR
STARTCHAR 00ED
ENCODING 237
SWIDTH 320 0
DWIDTH 12 0
BBX 9 25 2 1
BITMAP
0E00
1E00
1E00
1C00
3000
0000
0000
FE00
7E00
7E00
7E00
7E00
7E00
7E00
7E00
7E00
7E00
7E00
7E00
7E00
7E00
7E00
7E00
7E00
FF80
ENDCHAR
STARTCHAR 00EE
ENCODING 238
SWIDTH 320 0
DWIDTH 12 0
BBX 9 25 2 0
BITMAP
0800
1C00
3C00
7E00
4300
0000
0000
FE00
7E00
7E00
7E00
7E00
7E00
7E00
7E00
7E00
7E00
7E00
7E00
7E00
7E00
7E00
7E00
7E00
FF80
ENDCHAR
STARTCHAR 00EF
ENCODING 239
SWIDTH 320 0
DWIDTH 12 0
BBX 12 25 0 0
BITMAP
70E0
F9E0
F9F0
F9E0
70E0
0000
0000
3F80
1F80
1F80
1F80
1F80
1F80
1F80
1F80
1F80
1F80
1F80
1F80
1F80
1F80
1F80
1F80
1F80
3FE0
ENDCHAR
STARTCHAR 00F0
ENCODING 240
SWIDTH 586 0
DWIDTH 22 0
BBX 20 26 1 0
BITMAP
0F0060
01E180
007E00
007C00
039F00
0C0F80
000F80
0007C0
01F7C0
0F87E0
3E07E0
7E03F0
7C03F0
FC03F0
FC03F0
FC03F0
FC03F0
FC03F0
FC03F0
FC07E0
FC07E0
7C07E0
7E07C0
3E0F80
0F0F00
03FC00
ENDCHAR
STARTCHAR 00F1
ENCODING 241
SWIDTH 666 0
DWIDTH 25 0
BBX 21 24 2 0
BITMAP
007200
00FE00
00FE00
010800
000000
000000
FE3F00
7EFF80
7F87C0
7F07E0
7E03E0
7E03E0
7E03E0
7E03E0
7E03E0
7E03E0
7E03E0
7E03E0
7E03E0
7E03E0
7E03E0
7E03E0
7E03E0
FF8FF8
ENDCHAR
STARTCHAR 00F2
ENCODING 242
SWIDTH 560 0
DWIDTH 21 0
BBX 19 25 1 0
BITMAP
038000
07C000
03C000
03C000
00C000
002000
000000
01F800
0F0E00
1E0F80
3C07C0
7C07C0
7C07E0
FC07E0
FC07E0
FC07E0
FC07E0
FC07E0
FC07E0
7C07E0
7C07C0
3C0780
1E0F80
0F0E00
03F800
ENDCHAR
STARTCHAR 00F3
ENCODING 243
SWIDTH 560 0
DWIDTH 21 0
BBX 19 25 1 0
BITMAP
003800
003C00
007C00
007800
006000
008000
000000
01F800
0F0E00
1E0F80
3C07C0
7C07C0
7C07E0
FC07E0
FC07E0
FC07E0
FC07E0
FC07E0
FC07E0
7C07E0
7C07C0
3C0780
1E0F80
0F0E00
03F800
ENDCHAR
STARTCHAR 00F4
ENCODING 244
SWIDTH 560 0
DWIDTH 21 0
BBX 19 26 1 0
BITMAP
004000
006000
00E000
01F000
01F800
030800
000000
000000
01F800
0F0E00
1E0F80
3C07C0
7C07C0
7C07E0
FC07E0
FC07E0
FC07E0
FC07E0
FC07E0
FC07E0
7C07E0
7C07C0
3C0780
1E0F80
0F0E00
03F800
ENDCHAR
STARTCHAR 00F5
ENCODING 245
SWIDTH 560 0
DWIDTH 21 0
BBX 19 25 1 0
BITMAP
01C400
03F800
03F800
027000
000000
000000
000000
01F800
0F0E00
1E0F80
3C07C0
7C07C0
7C07E0
FC07E0
FC07E0
FC07E0
FC07E0
FC07E0
FC07E0
7C07E0
7C07C0
3C0780
1E0F80
0F0E00
03F800
ENDCHAR
STARTCHAR 00F6
ENCODING 246
SWIDTH 560 0
DWIDTH 21 0
BBX 19 25 1 0
BITMAP
070E00
079F00
0F9F00
079F00
070E00
000000
000000
01F800
0F0E00
1E0F80
3C07C0
7C07C0
7C07E0
FC07E0
FC07E0
FC07E0
FC07E0
FC07E0
FC07E0
7C07E0
7C07C0
3C0780
1E0F80
0F0E00
03F800
ENDCHAR
STARTCHAR 00F7
ENCODING 247
SWIDTH 480 0
DWIDTH 18 0
BBX 15 14 2 2
BITMAP
0380
0780
0780
0380
0000
0000
FFFE
0000
0000
0000
0380
0780
0780
0380
ENDCHAR
STARTCHAR 00F8
ENCODING 248
SWIDTH 560 0
DWIDTH 21 0
BBX 19 18 1 0
BITMAP
01F820
0F0E40
1E0F80
3C0780
7C07C0
7C07E0
FC0FE0
FC17E0
FC27E0
FC47E0
FC87E0
FD07E0
7E07E0
7C07C0
3E07C0
3E0780
4F0E00
83F800
ENDCHAR
STARTCHAR 00F9
ENCODING 249
SWIDTH 640 0
DWIDTH 24 0
BBX 22 25 0 1
BITMAP
03C000
03C000
03E000
01E000
002000
000000
000000
FF07F0
3F01F0
3F01F0
3F01F0
3F01F0
3F01F0
3F01F0
3F01F0
3F01F0
3F01F0
3F01F0
3F01F0
3F01F0
1F01F0
1F03F0
1F85F0
0FF9F0
03F1FC
ENDCHAR
STARTCHAR 00FA
ENCODING 250
SWIDTH 640 0
DWIDTH 24 0
BBX 22 25 0 1
BITMAP
001E00
001E00
003E00
003C00
002000
004000
000000
FF07F0
3F01F0
3F01F0
3F01F0
3F01F0
3F01F0
3F01F0
3F01F0
3F01F0
3F01F0
3F01F0
3F01F0
3F01F0
1F01F0
1F03F0
1F85F0
0FF9F0
03F1FC
ENDCHAR
STARTCHAR 00FB
ENCODING 251
SWIDTH 640 0
DWIDTH 24 0
BBX 22 26 0 0
BITMAP
002000
003000
007000
00F800
00DC00
010400
000000
000000
FF07F0
3F01F0
3F01F0
3F01F0
3F01F0
3F01F0
3F01F0
3F01F0
3F01F0
3F01F0
3F01F0
3F01F0
3F01F0
1F01F0
1F03F0
1F85F0
0FF9F0
03F1FC
ENDCHAR
STARTCHAR 00FC
ENCODING 252
SWIDTH 640 0
DWIDTH 24 0
BBX 22 25 0 0
BITMAP
00E1C0
01F3C0
01F3E0
01F3C0
00E1C0
000000
000000
FF07F0
3F01F0
3F01F0
3F01F0
3F01F0
3F01F0
3F01F0
3F01F0
3F01F0
3F01F0
3F01F0
3F01F0
3F01F0
1F01F0
1F03F0
1F85F0
0FF9F0
03F1FC
ENDCHAR
STARTCHAR 00FD
ENCODING 253
SWIDTH 560 0
DWIDTH 21 0
BBX 21 33 0 -7
BITMAP
000F00
000F00
001F00
001E00
001000
000000
000000
FFC1F8
3F8040
3F8040
1FC040
1FC080
0FE080
07E100
07F100
03F200
03FA00
01FA00
01FC00
00FC00
00F800
007800
007000
003000
002000
002000
002000
784000
7C4000
FE8000
FF8000
7F0000
3E0000
ENDCHAR
STARTCHAR 00FE
ENCODING 254
SWIDTH 613 0
DWIDTH 23 0
BBX 20 34 2 -8
BITMAP
FE0000
7E0000
7E0000
7E0000
7E0000
7E0000
7E0000
7E0000
7E3E00
7E9F00
7F0F80
7E07C0
7E07E0
7E07E0
7E03E0
7E03E0
7E03F0
7E03F0
7E03F0
7E03E0
7E03E0
7E07E0
7E07C0
7E0FC0
7F0F00
7EFE00
7E0000
7E0000
7E0000
7E0000
7E0000
7E0000
7E0000
FF8000
ENDCHAR
STARTCHAR 00FF
ENCODING 255
SWIDTH 560 0
DWIDTH 21 0
BBX 21 33 0 -8
BITMAP
038700
03CF00
07CF80
07CF00
038700
000000
000000
FFC1F8
3F8040
3F8040
1FC040
1FC080
0FE080
07E100
07F100
03F200
03FA00
01FA00
01FC00
00FC00
00F800
007800
007000
003000
002000
002000
002000
784000
7C4000
FE8000
FF8000
7F0000
3E0000
ENDCHAR
STARTCHAR 0100
ENCODING 256
SWIDTH 640 0
DWIDTH 24 0
BBX 24 27 0 0
BITMAP
00FF00
00FF00
000000
000000
000000
000000
001800
001800
001C00
003C00
003E00
007E00
007F00
00BF00
009F80
011F80
010FC0
010FC0
0207E0
0207E0
07FFF0
0403F0
0801F0
0801F8
0801F8
1000FC
FE03FF
ENDCHAR
STARTCHAR 0101
ENCODING 257
SWIDTH 533 0
DWIDTH 20 0
BBX 18 23 2 0
BITMAP
0FF000
0FF000
000000
000000
000000
0FF000
387C00
783E00
7C3E00
FC3E00
FC3F00
783F00
303F00
007F00
0FBF00
3C3F00
F83F00
F83F00
F83F00
F83F00
F83F00
FE7F00
3F9FC0
ENDCHAR
STARTCHAR 0102
ENCODING 258
SWIDTH 640 0
DWIDTH 24 0
BBX 24 29 0 0
BITMAP
008200
008200
00C200
007E00
007E00
003C00
000000
000000
001800
001800
001C00
003C00
003E00
007E00
007F00
00BF00
009F80
011F80
010FC0
010FC0
0207E0
0207E0
07FFF0
0403F0
0801F0
0801F8
0801F8
1000FC
FE03FF
ENDCHAR
STARTCHAR 0103
ENCODING 259
SWIDTH 533 0
DWIDTH 20 0
BBX 18 25 2 0
BITMAP
081000
042000
07E000
07E000
03C000
000000
000000
0FF000
387C00
783E00
7C3E00
FC3E00
FC3F00
783F00
303F00
007F00
0FBF00
3C3F00
F83F00
F83F00
F83F00
F83F00
F83F00
FE7F00
3F9FC0
ENDCHAR
STARTCHAR 0104
ENCODING 260
SWIDTH 640 0
DWIDTH 24 0
BBX 24 27 0 -6
BITMAP
001800
001800
001C00
003C00
003E00
007E00
007F00
00BF00
009F80
011F80
010FC0
010FC0
0207E0
0207E0
07FFF0
0403F0
0801F0
0801F8
0801F8
1000FC
FE03FF
000018
000010
000030
000070
000072
00007C
ENDCHAR
STARTCHAR 0105
ENCODING 261
SWIDTH 533 0
DWIDTH 20 0
BBX 18 24 2 -6
BITMAP
0FF000
387C00
783E00
7C3E00
FC3E00
FC3F00
783F00
303F00
007F00
0FBF00
3C3F00
F83F00
F83F00
F83F00
F83F00
F83F00
FE7F00
3F9FC0
001000
003000
003000
007000
007200
007C00
ENDCHAR
STARTCHAR 0106
ENCODING 262
SWIDTH 560 0
DWIDTH 21 0
BBX 19 29 1 -1
BITMAP
000C00
001E00
003E00
003C00
003000
002000
000000
01FC20
0F8320
1F00E0
3E00E0
7E0060
7E0020
FC0020
FC0020
FC0020
FC0000
FC0000
FC0000
FC0000
FC0000
FC0020
7C0020
7E0020
3E0040
1E0040
0F0080
03C700
003800
ENDCHAR
STARTCHAR 0107
ENCODING 263
SWIDTH 506 0
DWIDTH 19 0
BBX 17 25 1 0
BITMAP
003800
007800
007800
007800
004000
008000
000000
03F800
0F1E00
1E1F00
3E1F00
7C1F80
7C1F80
FC1F80
FC0F00
FC0200
FC0000
FC0000
FC0000
7C0000
7C0000
3E0000
3E0180
0F8200
03FC00
ENDCHAR
STARTCHAR 010A
ENCODING 266
SWIDTH 560 0
DWIDTH 21 0
BBX 19 30 1 -1
BITMAP
006000
00F000
00F000
00F000
006000
000000
000000
000000
01FC20
0F8320
1F00E0
3E00E0
7E0060
7E0020
FC0020
FC0020
FC0020
FC0000
FC0000
FC0000
FC0000
FC0000
FC0020
7C0020
7E0020
3E0040
1E0040
0F0080
03C700
003800
ENDCHAR
STARTCHAR 010B
ENCODING 267
SWIDTH 506 0
DWIDTH 19 0
BBX 17 25 1 0
BITMAP
00E000
01F000
01F000
01F000
00E000
000000
000000
03F800
0F1E00
1E1F00
3E1F00
7C1F80
7C1F80
FC1F80
FC0F00
FC0200
FC0000
FC0000
FC0000
7C0000
7C0000
3E0000
3E0180
0F8200
03FC00
ENDCHAR
STARTCHAR 010C
ENCODING 268
SWIDTH 560 0
DWIDTH 21 0
BBX 19 30 1 -1
BITMAP
010200
00CC00
007800
007800
003000
001000
000000
000000
01FC20
0F8320
1F00E0
3E00E0
7E0060
7E0020
FC0020
FC0020
FC0020
FC0000
FC0000
FC0000
FC0000
FC0000
FC0020
7C0020
7E0020
3E0040
1E0040
0F0080
03C700
003800
ENDCHAR
STARTCHAR 010D
ENCODING 269
SWIDTH 506 0
DWIDTH 19 0
BBX 17 25 1 0
BITMAP
031800
01F000
01F000
00E000
004000
000000
000000
03F800
0F1E00
1E1F00
3E1F00
7C1F80
7C1F80
FC1F80
FC0F00
FC0200
FC0000
FC0000
FC0000
7C0000
7C0000
3E0000
3E0180
0F8200
03FC00
ENDCHAR
STARTCHAR 010E
ENCODING 270
SWIDTH 613 0
DWIDTH 23 0
BBX 21 29 2 0
BITMAP
041000
077000
03E000
01C000
01C000
008000
000000
000000
FFF800
7E1E00
7E0F80
7E07C0
7E03E0
7E03E0
7E03F0
7E01F0
7E01F0
7E01F8
7E01F8
7E01F8
7E01F0
7E01F0
7E01F0
7E03F0
7E03E0
7E07E0
7E07C0
7E1F00
FFF800
ENDCHAR
STARTCHAR 010F
ENCODING 271
SWIDTH 720 0
DWIDTH 27 0
BBX 24 26 1 0
BITMAP
001FCE
0007CF
0007CF
0007CF
0007C1
0007C1
0007C4
0007C8
07C7C0
1FF7C0
3F17C0
7E0FC0
7E07C0
7C07C0
FC07C0
FC07C0
FC07C0
FC07C0
FC07C0
FC07C0
7C07C0
7C0FC0
7C0FC0
3E0FC0
1F0FC0
07F7F0
ENDCHAR
STARTCHAR 0110
ENCODING 272
SWIDTH 640 0
DWIDTH 24 0
BBX 21 21 2 0
BITMAP
FFF800
7E1E00
7E0F80
7E07C0
7E03E0
7E03E0
7E03F0
7E01F0
7E01F0
FFF1F8
7E01F8
7E01F8
7E01F0
7E01F0
7E01F0
7E03F0
7E03E0
7E07E0
7E07C0
7E1F00
FFF800
ENDCHAR
STARTCHAR 0111
ENCODING 273
SWIDTH 613 0
DWIDTH 23 0
BBX 20 26 1 0
BITMAP
001FC0
0007C0
0007C0
01FFF0
0007C0
0007C0
0007C0
0007C0
07E7C0
1F97C0
3F0FC0
7E07C0
7E07C0
7C07C0
FC03C0
FC03C0
FC03C0
FC03C0
FC03C0
FC03C0
7C07C0
7C07C0
7E07C0
3E0FC0
1F0FC0
07F7F0
ENDCHAR
STARTCHAR 0112
ENCODING 274
SWIDTH 560 0
DWIDTH 21 0
BBX 17 27 2 0
BITMAP
07F800
07F800
000000
000000
000000
000000
FFFF80
7E0380
7E0180
7E0080
7E0080
7E0080
7E0400
7E0400
7E0C00
7FFC00
7E0C00
7E0400
7E0400
7E0400
7E0080
7E0080
7E0080
7E0080
7E0180
7E0380
FFFF80
ENDCHAR
STARTCHAR 0113
ENCODING 275
SWIDTH 533 0
DWIDTH 20 0
BBX 17 24 1 0
BITMAP
07F800
07F800
000000
000000
000000
000000
03F000
0E3C00
3E1E00
3C1F00
7C0F00
7C0F80
FC0F80
FC0F80
FC0F80
FFFF80
FC0000
FC0000
7C0000
7C0000
3E0000
3E0080
0F0300
03FC00
ENDCHAR
STARTCHAR 0114
ENCODING 276
SWIDTH 560 0
DWIDTH 21 0
BBX 17 29 2 0
BITMAP
040800
020800
021000
03F000
03F000
01E000
000000
000000
FFFF80
7E0380
7E0180
7E0080
7E0080
7E0080
7E0400
7E0400
7E0C00
7FFC00
7E0C00
7E0400
7E0400
7E0400
7E0080
7E0080
7E0080
7E0080
7E0180
7E0380
FFFF80
ENDCHAR
STARTCHAR 0115
ENCODING 277
SWIDTH 533 0
DWIDTH 20 0
BBX 17 25 1 0
BITMAP
040800
021000
03F000
03F000
01E000
000000
000000
03F000
0E3C00
3E1E00
3C1F00
7C0F00
7C0F80
FC0F80
FC0F80
FC0F80
FFFF80
FC0000
FC0000
7C0000
7C0000
3E0000
3E0080
0F0300
03FC00
ENDCHAR
STARTCHAR 0116
ENCODING 278
SWIDTH 560 0
DWIDTH 21 0
BBX 17 29 2 0
BITMAP
00E000
01F000
01F000
01F000
00E000
000000
000000
000000
FFFF80
7E0380
7E0180
7E0080
7E0080
7E0080
7E0400
7E0400
7E0C00
7FFC00
7E0C00
7E0400
7E0400
7E0400
7E0080
7E0080
7E0080
7E0080
7E0180
7E0380
FFFF80
ENDCHAR
STARTCHAR 0117
ENCODING 279
SWIDTH 533 0
DWIDTH 20 0
BBX 17 25 1 0
BITMAP
00C000
01E000
01E000
01E000
00C000
000000
000000
03F000
0E3C00
3E1E00
3C1F00
7C0F00
7C0F80
FC0F80
FC0F80
FC0F80
FFFF80
FC0000
FC0000
7C0000
7C0000
3E0000
3E0080
0F0300
03FC00
ENDCHAR
STARTCHAR 0118
ENCODING 280
SWIDTH 560 0
DWIDTH 21 0
BBX 17 27 2 -6
BITMAP
FFFF80
7E0380
7E0180
7E0080
7E0080
7E0080
7E0400
7E0400
7E0C00
7FFC00
7E0C00
7E0400
7E0400
7E0400
7E0080
7E0080
7E0080
7E0080
7E0180
7E0380
FFFF80
000800
001000
003000
003000
007A00
003C00
ENDCHAR
STARTCHAR 0119
ENCODING 281
SWIDTH 533 0
DWIDTH 20 0
BBX 17 24 1 -6
BITMAP
03F000
0E3C00
3E1E00
3C1F00
7C0F00
7C0F80
FC0F80
FC0F80
FC0F80
FFFF80
FC0000
FC0000
7C0000
7C0000
7E0000
3E0080
0F0300
03F800
004000
00C000
008000
018000
01C800
01F000
ENDCHAR
STARTCHAR 011A
ENCODING 282
SWIDTH 560 0
DWIDTH 21 0
BBX 17 29 2 0
BITMAP
020800
03B000
01F000
00E000
00C000
004000
000000
000000
FFFF80
7E0380
7E0180
7E0080
7E0080
7E0080
7E0400
7E0400
7E0C00
7FFC00
7E0C00
7E0400
7E0400
7E0400
7E0080
7E0080
7E0080
7E0080
7E0180
7E0380
FFFF80
ENDCHAR
STARTCHAR 011B
ENCODING 283
SWIDTH 533 0
DWIDTH 20 0
BBX 17 25 1 0
BITMAP
031800
01F000
01E000
00E000
004000
000000
000000
03F000
0E3C00
3E1E00
3C1F00
7C0F00
7C0F80
FC0F80
FC0F80
FC0F80
FFFF80
FC0000
FC0000
7C0000
7C0000
3E0000
3E0080
0F0300
03FC00
ENDCHAR
STARTCHAR 011C
ENCODING 284
SWIDTH 613 0
DWIDTH 23 0
BBX 21 30 1 -1
BITMAP
002000
007000
007800
00F800
00DC00
018400
000000
000000
01FC20
0F8320
1F00E0
3E0060
3E0060
7E0020
7E0020
FC0020
FC0000
FC0000
FC0FF8
FC01F0
FC01F0
FC01F0
FC01F0
7E01F0
7E03F0
3E03F0
1E03F0
0F0630
07CC10
003000
ENDCHAR
STARTCHAR 011D
ENCODING 285
SWIDTH 533 0
DWIDTH 20 0
BBX 19 34 1 -8
BITMAP
004000
00C000
00E000
01F000
01F000
031800
000000
000000
03F800
1E1E00
3E0F00
7E0F80
7C0FC0
FC0FC0
FC0FC0
FC0FC0
7C0FC0
7E0F80
3E0F00
1F1E00
0FF000
180000
380000
3FFF00
3FFFC0
3FFFC0
3FFFE0
2FFFE0
6000E0
E00040
F000C0
780080
3C0300
0FFC00
ENDCHAR
STARTCHAR 011E
ENCODING 286
SWIDTH 613 0
DWIDTH 23 0
BBX 21 30 1 -1
BITMAP
010400
010400
018400
00FC00
00F800
007000
000000
000000
01FC20
0F8320
1F00E0
3E0060
3E0060
7E0020
7E0020
FC0020
FC0000
FC0000
FC0FF8
FC01F0
FC01F0
FC01F0
FC01F0
7E01F0
7E03F0
3E03F0
1E03F0
0F0630
07CC10
003000
ENDCHAR
STARTCHAR 011F
ENCODING 287
SWIDTH 533 0
DWIDTH 20 0
BBX 19 33 1 -8
BITMAP
020800
021800
03F000
03F000
01E000
000000
000000
03F800
1E1E00
3E0F00
7E0F80
7C0FC0
FC0FC0
FC0FC0
FC0FC0
7C0FC0
7E0F80
3E0F00
1F1E00
0FF000
180000
380000
3FFF00
3FFFC0
3FFFC0
3FFFE0
2FFFE0
6000E0
E00040
F000C0
780080
3C0300
0FFC00
ENDCHAR
STARTCHAR 0120
ENCODING 288
SWIDTH 613 0
DWIDTH 23 0
BBX 21 30 1 -1
BITMAP
007000
007800
00F800
007800
007000
000000
000000
000000
01FC20
0F8320
1F00E0
3E0060
3E0060
7E0020
7E0020
FC0020
FC0000
FC0000
FC0FF8
FC01F0
FC01F0
FC01F0
FC01F0
7E01F0
7E03F0
3E03F0
1E03F0
0F0630
07CC10
003000
ENDCHAR
STARTCHAR 0121
ENCODING 289
SWIDTH 533 0
DWIDTH 20 0
BBX 19 33 1 -8
BITMAP
00E000
01F000
01F000
01F000
00E000
000000
000000
03F800
1E1E00
3E0F00
7E0F80
7C0FC0
FC0FC0
FC0FC0
FC0FC0
7C0FC0
7E0F80
3E0F00
1F1E00
0FF000
180000
380000
3FFF00
3FFFC0
3FFFC0
3FFFE0
2FFFE0
6000E0
E00040
F000C0
780080
3C0300
0FFC00
ENDCHAR
STARTCHAR 0122
ENCODING 290
SWIDTH 613 0
DWIDTH 23 0
BBX 21 30 1 -9
BITMAP
01FC20
0F8320
1F00E0
3E0060
3E0060
7E0020
7E0020
FC0020
FC0000
FC0000
FC0FF8
FC01F0
FC01F0
FC01F0
FC01F0
7E01F0
7E03F0
3E03F0
1E03F0
0F0630
07CC10
003000
000000
00E000
01E000
01F000
00E000
002000
002000
00C000
ENDCHAR
STARTCHAR 0123
ENCODING 291
SWIDTH 533 0
DWIDTH 20 0
BBX 19 36 1 -8
BITMAP
006000
008000
010000
010000
03E000
03F000
01F000
00E000
000000
000000
03F800
1E1E00
3E0F00
7E0F80
7C0FC0
FC0FC0
FC0FC0
FC0FC0
7C0FC0
7E0F80
3E0F00
1F1E00
0FF000
180000
380000
3FFF00
3FFFC0
3FFFC0
3FFFE0
2FFFE0
6000E0
E00040
F000C0
780080
3C0300
0FFC00
ENDCHAR
STARTCHAR 0125
ENCODING 293
SWIDTH 666 0
DWIDTH 25 0
BBX 21 33 2 0
BITMAP
080000
180000
3C0000
3E0000
660000
810000
000000
FE0000
7E0000
7E0000
7E0000
7E0000
7E0000
7E0000
7E0000
7E3F00
7EFF80
7F87C0
7F07E0
7E03E0
7E03E0
7E03E0
7E03E0
7E03E0
7E03E0
7E03E0
7E03E0
7E03E0
7E03E0
7E03E0
7E03E0
7E03E0
FF8FF8
ENDCHAR
STARTCHAR 0126
ENCODING 294
SWIDTH 693 0
DWIDTH 26 0
BBX 22 21 2 0
BITMAP
FF87FC
7E01F0
7E01F0
7E01F0
FFFFFC
7E01F0
7E01F0
7E01F0
7E01F0
7FFFF0
7E01F0
7E01F0
7E01F0
7E01F0
7E01F0
7E01F0
7E01F0
7E01F0
7E01F0
7E01F0
FF87FC
ENDCHAR
STARTCHAR 0127
ENCODING 295
SWIDTH 666 0
DWIDTH 25 0
BBX 21 26 2 0
BITMAP
FE0000
7E0000
7E0000
7E0000
FFF800
7E0000
7E0000
7E0000
7E3F00
7EFF80
7F87C0
7F07E0
7E03E0
7E03E0
7E03E0
7E03E0
7E03E0
7E03E0
7E03E0
7E03E0
7E03E0
7E03E0
7E03E0
7E03E0
7E03E0
FF8FF8
ENDCHAR
STARTCHAR 0128
ENCODING 296
SWIDTH 320 0
DWIDTH 12 0
BBX 9 28 2 0
BITMAP
3000
7900
7F00
9F00
0E00
0000
0000
FF80
7E00
7E00
7E00
7E00
7E00
7E00
7E00
7E00
7E00
7E00
7E00
7E00
7E00
7E00
7E00
7E00
7E00
7E00
7E00
FF80
ENDCHAR
STARTCHAR 0129
ENCODING 297
SWIDTH 320 0
DWIDTH 12 0
BBX 9 24 2 0
BITMAP
3900
7F00
7F00
8400
0000
0000
FE00
7E00
7E00
7E00
7E00
7E00
7E00
7E00
7E00
7E00
7E00
7E00
7E00
7E00
7E00
7E00
7E00
FF80
ENDCHAR
STARTCHAR 012A
ENCODING 298
SWIDTH 320 0
DWIDTH 12 0
BBX 9 27 2 0
BITMAP
FF00
FF00
0000
0000
0000
0000
FF80
7E00
7E00
7E00
7E00
7E00
7E00
7E00
7E00
7E00
7E00
7E00
7E00
7E00
7E00
7E00
7E00
7E00
7E00
7E00
FF80
ENDCHAR
STARTCHAR 012B
ENCODING 299
SWIDTH 320 0
DWIDTH 12 0
BBX 9 23 2 0
BITMAP
FF00
FF00
0000
0000
0000
FE00
7E00
7E00
7E00
7E00
7E00
7E00
7E00
7E00
7E00
7E00
7E00
7E00
7E00
7E00
7E00
7E00
FF80
ENDCHAR
STARTCHAR 012C
ENCODING 300
SWIDTH 320 0
DWIDTH 12 0
BBX 9 29 2 0
BITMAP
8100
4100
4200
7E00
7E00
3C00
0000
0000
FF80
7E00
7E00
7E00
7E00
7E00
7E00
7E00
7E00
7E00
7E00
7E00
7E00
7E00
7E00
7E00
7E00
7E00
7E00
7E00
FF80
ENDCHAR
STARTCHAR 012D
ENCODING 301
SWIDTH 320 0
DWIDTH 12 0
BBX 9 25 2 0
BITMAP
4100
4100
7F00
7E00
3C00
0000
0000
FE00
7E00
7E00
7E00
7E00
7E00
7E00
7E00
7E00
7E00
7E00
7E00
7E00
7E00
7E00
7E00
7E00
FF80
ENDCHAR
STARTCHAR 012E
ENCODING 302
SWIDTH 320 0
DWIDTH 12 0
BBX 9 27 2 -6
BITMAP
FF80
7E00
7E00
7E00
7E00
7E00
7E00
7E00
7E00
7E00
7E00
7E00
7E00
7E00
7E00
7E00
7E00
7E00
7E00
7E00
FF80
1800
3000
3000
7000
7200
7C00
ENDCHAR
STARTCHAR 012F
ENCODING 303
SWIDTH 320 0
DWIDTH 12 0
BBX 9 32 2 -6
BITMAP
3C00
7E00
7E00
7E00
7E00
7E00
3C00
0000
FE00
7E00
7E00
7E00
7E00
7E00
7E00
7E00
7E00
7E00
7E00
7E00
7E00
7E00
7E00
7E00
7E00
FF80
0800
1000
3000
3000
7A00
3C00
ENDCHAR
STARTCHAR 0130
ENCODING 304
SWIDTH 320 0
DWIDTH 12 0
BBX 9 29 2 0
BITMAP
3800
3C00
7C00
3C00
3800
0000
0000
0000
FF80
7E00
7E00
7E00
7E00
7E00
7E00
7E00
7E00
7E00
7E00
7E00
7E00
7E00
7E00
7E00
7E00
7E00
7E00
7E00
FF80
ENDCHAR
STARTCHAR 0131
ENCODING 305
SWIDTH 346 0
DWIDTH 13 0
BBX 9 18 2 0
BITMAP
FE00
7E00
7E00
7E00
7E00
7E00
7E00
7E00
7E00
7E00
7E00
7E00
7E00
7E00
7E00
7E00
7E00
FF80
ENDCHAR
STARTCHAR 0132
ENCODING 306
SWIDTH 853 0
DWIDTH 32 0
BBX 28 21 2 0
BITMAP
FF801FF0
7E0007E0
7E0007E0
7E0007E0
7E0007E0
7E0007E0
7E0007E0
7E0007E0
7E0007E0
7E0007E0
7E0007E0
7E0007E0
7E0607E0
7E0F07E0
7E1F87E0
7E1F87C0
7E1F07C0
7E1E0FC0
7E080F80
7E041F00
FF83FC00
ENDCHAR
STARTCHAR 0133
ENCODING 307
SWIDTH 666 0
DWIDTH 25 0
BBX 21 36 2 -10
BITMAP
3C00E0
7E01F0
7E03F8
7E03F8
7E03F8
7E01F0
3C00E0
000000
FE07F0
7E01F0
7E01F0
7E01F0
7E01F0
7E01F0
7E01F0
7E01F0
7E01F0
7E01F0
7E01F0
7E01F0
7E01F0
7E01F0
7E01F0
7E01F0
7E01F0
FF81F0
0001F0
00F1F0
01F9F0
01F9F0
01F9F0
01F1F0
0183F0
0083E0
0043C0
003F00
ENDCHAR
STARTCHAR 0134
ENCODING 308
SWIDTH 506 0
DWIDTH 19 0
BBX 18 29 0 0
BITMAP
000C00
000C00
001E00
001F00
003300
004080
000000
000000
00FFC0
003F00
003F00
003F00
003F00
003F00
003F00
003F00
003F00
003F00
003F00
003F00
103F00
7C3F00
7C3F00
FC3F00
FC3E00
703E00
607C00
20F800
1FE000
ENDCHAR
STARTCHAR 0135
ENCODING 309
SWIDTH 320 0
DWIDTH 12 0
BBX 14 34 -4 -8
BITMAP
0040
0060
00F0
00F0
01F8
020C
0000
0000
03F8
01F8
01F8
01F8
01F8
01F8
01F8
01F8
01F8
01F8
01F8
01F8
01F8
01F8
01F8
01F8
01F8
01F8
01F8
01F8
61F8
F1F8
F1F0
F1F0
71E0
3F80
ENDCHAR
STARTCHAR 0136
ENCODING 310
SWIDTH 640 0
DWIDTH 24 0
BBX 22 30 2 -9
BITMAP
FF8FF0
7E0100
7E0100
7E0200
7E0400
7E0800
7E1800
7E1800
7E3C00
7E7C00
7EFE00
7F7E00
7F7F00
7E3F00
7E1F80
7E1FC0
7E0FC0
7E0FE0
7E07E0
7E07F0
FF8FFC
000000
000000
003000
007800
007800
003800
000800
001000
002000
ENDCHAR
STARTCHAR 0137
ENCODING 311
SWIDTH 613 0
DWIDTH 23 0
BBX 21 35 2 -9
BITMAP
FE0000
7E0000
7E0000
7E0000
7E0000
7E0000
7E0000
7E0000
7E0FE0
7E0300
7E0600
7E0C00
7E1800
7E3000
7E3000
7E7800
7EFC00
7FFC00
7EFE00
7E7F00
7E7F00
7E3F80
7E1FC0
7E0FC0
7E07E0
FF81F8
000000
000000
003800
007C00
007C00
003C00
000800
000800
003000
ENDCHAR
STARTCHAR 0139
ENCODING 313
SWIDTH 533 0
DWIDTH 20 0
BBX 17 28 2 1
BITMAP
0F0000
0F0000
1F0000
1C0000
100000
200000
000000
FF8000
7E0000
7E0000
7E0000
7E0000
7E0000
7E0000
7E0000
7E0000
7E0000
7E0000
7E0000
7E0000
7E0000
7E0080
7E0080
7E0080
7E0080
7E0080
7E0380
FFFF80
ENDCHAR
STARTCHAR 013A
ENCODING 314
SWIDTH 320 0
DWIDTH 12 0
BBX 9 34 2 0
BITMAP
0400
0E00
1F00
1E00
1C00
3000
0000
0000
FE00
7E00
7E00
7E00
7E00
7E00
7E00
7E00
7E00
7E00
7E00
7E00
7E00
7E00
7E00
7E00
7E00
7E00
7E00
7E00
7E00
7E00
7E00
7E00
7E00
FF80
ENDCHAR
STARTCHAR 013B
ENCODING 315
SWIDTH 533 0
DWIDTH 20 0
BBX 17 30 2 -9
BITMAP
FF8000
7E0000
7E0000
7E0000
7E0000
7E0000
7E0000
7E0000
7E0000
7E0000
7E0000
7E0000
7E0000
7E0000
7E0080
7E0080
7E0080
7E0080
7E0080
7E0380
FFFF80
000000
000000
01C000
03C000
03E000
01E000
004000
004000
018000
ENDCHAR
STARTCHAR 013C
ENCODING 316
SWIDTH 320 0
DWIDTH 12 0
BBX 9 35 2 -9
BITMAP
FE00
7E00
7E00
7E00
7E00
7E00
7E00
7E00
7E00
7E00
7E00
7E00
7E00
7E00
7E00
7E00
7E00
7E00
7E00
7E00
7E00
7E00
7E00
7E00
7E00
FF80
0000
0000
1C00
3C00
3E00
1C00
0400
0C00
1000
ENDCHAR
STARTCHAR 013D
ENCODING 317
SWIDTH 533 0
DWIDTH 20 0
BBX 17 21 2 0
BITMAP
FF8700
7E0F80
7E0F80
7E0780
7E0100
7E0100
7E0200
7E0400
7E0000
7E0000
7E0000
7E0000
7E0000
7E0000
7E0080
7E0080
7E0080
7E0080
7E0080
7E0380
FFFF80
ENDCHAR
STARTCHAR 013E
ENCODING 318
SWIDTH 426 0
DWIDTH 16 0
BBX 14 26 2 0
BITMAP
FE70
7E78
7E7C
7E7C
7E08
7E08
7E10
7E60
7E00
7E00
7E00
7E00
7E00
7E00
7E00
7E00
7E00
7E00
7E00
7E00
7E00
7E00
7E00
7E00
7E00
FF80
ENDCHAR
STARTCHAR 013F
ENCODING 319
SWIDTH 533 0
DWIDTH 20 0
BBX 17 21 2 0
BITMAP
FF8000
7E0000
7E0000
7E0000
7E0000
7E0000
7E1C00
7E3E00
7E3E00
7E3E00
7E3E00
7E1C00
7E0000
7E0000
7E0080
7E0080
7E0080
7E0080
7E0080
7E0380
FFFF80
ENDCHAR
STARTCHAR 0140
ENCODING 320
SWIDTH 426 0
DWIDTH 16 0
BBX 15 26 2 0
BITMAP
FE00
7E00
7E00
7E00
7E00
7E00
7E00
7E00
7E00
7E00
7E00
7E1C
7E3E
7E3E
7E3E
7E3E
7E1C
7E00
7E00
7E00
7E00
7E00
7E00
7E00
7E00
FF80
ENDCHAR
STARTCHAR 0141
ENCODING 321
SWIDTH 533 0
DWIDTH 20 0
BBX 18 21 1 0
BITMAP
7FC000
3F0000
3F0000
3F0400
3F1800
3F6000
3F8000
3F0000
3F0000
3F0000
FF0000
3F0000
3F0000
3F0000
3F0040
3F0040
3F0040
3F0040
3F0040
3F01C0
7FFFC0
ENDCHAR
STARTCHAR 0142
ENCODING 322
SWIDTH 373 0
DWIDTH 14 0
BBX 11 26 2 0
BITMAP
FF00
3F00
3F00
3F00
3F00
3F00
3F00
3F00
3F20
3FC0
3F00
3F00
3F00
3F00
7F00
BF00
3F00
3F00
3F00
3F00
3F00
3F00
3F00
3F00
3F00
FFC0
ENDCHAR
STARTCHAR 0143
ENCODING 323
SWIDTH 613 0
DWIDTH 23 0
BBX 21 28 1 1
BITMAP
001E00
001E00
001E00
001C00
003000
000000
000000
FE03F8
7F0040
3F8040
3FC040
2FE040
2FF040
27F040
23F840
21FC40
20FE40
207F40
203FC0
203FC0
201FC0
200FC0
2007C0
2003C0
2001C0
2001C0
2000C0
FC0040
ENDCHAR
STARTCHAR 0144
ENCODING 324
SWIDTH 666 0
DWIDTH 25 0
BBX 21 25 2 0
BITMAP
003800
007800
007800
007000
00C000
008000
000000
FE3F00
7EFF80
7F87C0
7F07E0
7E03E0
7E03E0
7E03E0
7E03E0
7E03E0
7E03E0
7E03E0
7E03E0
7E03E0
7E03E0
7E03E0
7E03E0
7E03E0
FF8FF8
ENDCHAR
STARTCHAR 0145
ENCODING 325
SWIDTH 613 0
DWIDTH 23 0
BBX 21 30 1 -9
BITMAP
FE03F8
7F0040
3F8040
3FC040
2FE040
2FF040
27F040
23F840
21FC40
20FE40
207F40
203FC0
203FC0
201FC0
200FC0
2007C0
2003C0
2001C0
2001C0
2000C0
FC0040
000000
003800
007800
007C00
003C00
000800
000800
001000
002000
ENDCHAR
STARTCHAR 0146
ENCODING 326
SWIDTH 666 0
DWIDTH 25 0
BBX 21 27 2 -9
BITMAP
FE3F00
7EFF80
7F87C0
7F07E0
7E03E0
7E03E0
7E03E0
7E03E0
7E03E0
7E03E0
7E03E0
7E03E0
7E03E0
7E03E0
7E03E0
7E03E0
7E03E0
FF8FF8
000000
000000
003000
007800
007800
003800
000800
001000
002000
ENDCHAR
STARTCHAR 0147
ENCODING 327
SWIDTH 613 0
DWIDTH 23 0
BBX 21 29 1 0
BITMAP
018600
00FC00
007800
003000
003000
000000
000000
000000
FE03F8
7F0040
3F8040
3FC040
2FE040
2FF040
27F040
23F840
21FC40
20FE40
207F40
203FC0
203FC0
201FC0
200FC0
2007C0
2003C0
2001C0
2001C0
2000C0
FC0040
ENDCHAR
STARTCHAR 0148
ENCODING 328
SWIDTH 666 0
DWIDTH 25 0
BBX 21 25 2 0
BITMAP
020800
01B800
01F000
00E000
006000
004000
000000
FE3F00
7EFF80
7F87C0
7F07E0
7E03E0
7E03E0
7E03E0
7E03E0
7E03E0
7E03E0
7E03E0
7E03E0
7E03E0
7E03E0
7E03E0
7E03E0
7E03E0
FF8FF8
ENDCHAR
STARTCHAR 014A
ENCODING 330
SWIDTH 640 0
DWIDTH 24 0
BBX 21 31 2 -10
BITMAP
FE03F8
7F0040
3F8040
3FC040
3FC040
2FE040
27F040
23F840
21FC40
21FE40
20FF40
207F40
203FC0
201FC0
201FC0
200FC0
2007C0
2003C0
2001C0
2001C0
FC00C0
000040
000040
000040
000040
000E40
001F40
001FC0
001F80
001F80
000F00
ENDCHAR
STARTCHAR 014B
ENCODING 331
SWIDTH 640 0
DWIDTH 24 0
BBX 19 27 2 -9
BITMAP
FE3F00
7EFF80
7F87C0
7F07E0
7E03E0
7E03E0
7E03E0
7E03E0
7E03E0
7E03E0
7E03E0
7E03E0
7E03E0
7E03E0
7E03E0
7E03E0
7E03E0
FF83E0
0003E0
0003E0
0003E0
0007E0
0007E0
0007C0
000F80
001F00
007800
ENDCHAR
STARTCHAR 014C
ENCODING 332
SWIDTH 640 0
DWIDTH 24 0
BBX 22 27 1 0
BITMAP
01FE00
01FE00
000000
000000
000000
000000
01FE00
078780
1F03C0
3E01E0
7E01F0
7C01F8
FC01F8
FC00FC
FC00FC
FC00FC
FC00FC
FC00FC
FC00FC
FC00FC
FC01F8
7C01F8
7E01F0
3E01F0
1F03E0
0F8780
01FE00
ENDCHAR
STARTCHAR 014D
ENCODING 333
SWIDTH 560 0
DWIDTH 21 0
BBX 19 24 1 0
BITMAP
03F800
03F800
000000
000000
000000
000000
01F800
0F0E00
1E0F80
3C07C0
7C07C0
7C07E0
FC07E0
FC07E0
FC07E0
FC07E0
FC07E0
FC07E0
7C07E0
7C07C0
3C0780
1E0F80
0F0E00
03F800
ENDCHAR
STARTCHAR 014E
ENCODING 334
SWIDTH 640 0
DWIDTH 24 0
BBX 22 29 1 0
BITMAP
010400
010400
008400
00FC00
00F800
007800
000000
000000
01FE00
078780
1F03C0
3E01E0
7E01F0
7C01F8
FC01F8
FC00FC
FC00FC
FC00FC
FC00FC
FC00FC
FC00FC
FC00FC
FC01F8
7C01F8
7E01F0
3E01F0
1F03E0
0F8780
01FE00
ENDCHAR
STARTCHAR 014F
ENCODING 335
SWIDTH 560 0
DWIDTH 21 0
BBX 19 25 1 0
BITMAP
020800
030800
03F800
01F000
00F000
000000
000000
01F800
0F0E00
1E0F80
3C07C0
7C07C0
7C07E0
FC07E0
FC07E0
FC07E0
FC07E0
FC07E0
FC07E0
7C07E0
7C07C0
3C0780
1E0F80
0F0E00
03F800
ENDCHAR
STARTCHAR 0150
ENCODING 336
SWIDTH 640 0
DWIDTH 24 0
BBX 22 29 1 0
BITMAP
006180
00F3C0
00F3C0
00F380
00E300
008200
008400
000000
01FE00
078780
1F03C0
3E01E0
7E01F0
7C01F8
FC01F8
FC00FC
FC00FC
FC00FC
FC00FC
FC00FC
FC00FC
FC00FC
FC01F8
7C01F8
7E01F0
3E01F0
1F03E0
0F8780
01FE00
ENDCHAR
STARTCHAR 0151
ENCODING 337
SWIDTH 560 0
DWIDTH 21 0
BBX 19 25 1 1
BITMAP
03CE00
03CF00
03CF00
038E00
030800
020800
000000
01F800
0F0E00
1E0F80
3C07C0
7C07C0
7C07E0
FC07E0
FC07E0
FC07E0
FC07E0
FC07E0
FC07E0
7C07E0
7C07C0
3C0780
1E0F80
0F0E00
03F800
ENDCHAR
STARTCHAR 0152
ENCODING 338
SWIDTH 826 0
DWIDTH 31 0
BBX 28 21 1 0
BITMAP
01FFFFF0
0787E070
0F07E030
1E07E010
3E07E010
7E07E010
7E07E080
FC07E100
FC07E100
FC07FF00
FC07E100
FC07E100
FC07E080
FC07E080
7E07E010
7E07E010
7E07E010
3E07E010
1F07E030
0787E070
01FFFFF0
ENDCHAR
STARTCHAR 0153
ENCODING 339
SWIDTH 880 0
DWIDTH 33 0
BBX 31 18 1 0
BITMAP
01F81FC0
0F0E78F0
1E0FF0F8
3C07F078
7C07F07C
7C07F07C
FC07E07E
FC07E07E
FC07E03E
FC07FFFE
FC07E000
FC07F000
7C07F000
7C07F000
3C07F000
1E0FF804
0F0F7C18
03F81FE0
ENDCHAR
STARTCHAR 0154
ENCODING 340
SWIDTH 640 0
DWIDTH 24 0
BBX 23 28 1 1
BITMAP
001C00
003C00
003C00
003800
002000
004000
000000
FFFE00
3F0FC0
3F07E0
3F03E0
3F03F0
3F03F0
3F03F0
3F03E0
3F07E0
3F0F80
3FFE00
3F1F80
3F0FC0
3F0FE0
3F0FE0
3F07E0
3F07F0
3F07F0
3F03F0
3F01F8
FFC07E
ENDCHAR
STARTCHAR 0155
ENCODING 341
SWIDTH 480 0
DWIDTH 18 0
BBX 16 25 2 0
BITMAP
00E0
01E0
01E0
01E0
0380
0200
0000
FE3E
7E7F
7EBF
7F1F
7F1E
7F00
7E00
7E00
7E00
7E00
7E00
7E00
7E00
7E00
7E00
7E00
7E00
FF80
ENDCHAR
STARTCHAR 0156
ENCODING 342
SWIDTH 640 0
DWIDTH 24 0
BBX 23 30 1 -9
BITMAP
FFFE00
3F0FC0
3F07E0
3F03E0
3F03F0
3F03F0
3F03F0
3F03E0
3F07E0
3F0F80
3FFE00
3F1F80
3F0FC0
3F0FE0
3F0FE0
3F07E0
3F07F0
3F07F0
3F03F0
3F01F8
FFC07E
000000
001C00
001E00
001E00
001E00
000200
000400
000800
001000
ENDCHAR
STARTCHAR 0157
ENCODING 343
SWIDTH 480 0
DWIDTH 18 0
BBX 16 27 2 -9
BITMAP
FE3E
7E7F
7EBF
7F1F
7F1E
7F00
7E00
7E00
7E00
7E00
7E00
7E00
7E00
7E00
7E00
7E00
7E00
FF80
0000
0000
1C00
3C00
3E00
1E00
0400
0400
1800
ENDCHAR
STARTCHAR 0158
ENCODING 344
SWIDTH 640 0
DWIDTH 24 0
BBX 23 29 1 0
BITMAP
030C00
01F800
00F000
006000
006000
000000
000000
000000
FFFE00
3F0FC0
3F07E0
3F03E0
3F03F0
3F03F0
3F03F0
3F03E0
3F07E0
3F0F80
3FFE00
3F1F80
3F0FC0
3F0FE0
3F0FE0
3F07E0
3F07F0
3F07F0
3F03F0
3F01F8
FFC07E
ENDCHAR
STARTCHAR 0159
ENCODING 345
SWIDTH 480 0
DWIDTH 18 0
BBX 16 25 2 0
BITMAP
0820
06E0
07C0
0380
0180
0100
0000
FE3E
7E7F
7EBF
7F1F
7F1E
7F00
7E00
7E00
7E00
7E00
7E00
7E00
7E00
7E00
7E00
7E00
7E00
FF80
ENDCHAR
STARTCHAR 015A
ENCODING 346
SWIDTH 533 0
DWIDTH 20 0
BBX 18 29 2 -1
BITMAP
006000
00F000
00F000
01E000
018000
010000
000000
07F100
1C1F00
380700
380300
780100
7C0100
7F0100
7FC000
7FF000
3FFC00
1FFF00
0FFF80
03FF80
80FFC0
803FC0
C00FC0
C007C0
E00780
F00780
F80700
871C00
00E000
ENDCHAR
STARTCHAR 015B
ENCODING 347
SWIDTH 480 0
DWIDTH 18 0
BBX 17 25 1 0
BITMAP
007000
00F000
00F000
00F000
00C000
010000
000000
07F000
180C00
300E00
701E00
F81E00
FC1E00
FFC000
7FF800
7FFE00
3FFF00
0FFF00
61FF00
F83F80
F80F00
F00700
700700
300E00
0FF800
ENDCHAR
STARTCHAR 015C
ENCODING 348
SWIDTH 533 0
DWIDTH 20 0
BBX 18 30 2 -1
BITMAP
008000
01C000
01C000
03E000
037000
041000
000000
000000
07F100
1C1F00
380700
380300
780100
7C0100
7F0100
7FC000
7FF000
3FFC00
1FFF00
0FFF80
03FF80
80FFC0
803FC0
C00FC0
C007C0
E00780
F00780
F80700
871C00
00E000
ENDCHAR
STARTCHAR 015D
ENCODING 349
SWIDTH 480 0
DWIDTH 18 0
BBX 17 26 1 0
BITMAP
008000
018000
01C000
03C000
07E000
0C3000
000000
000000
07F000
180C00
300E00
701E00
F81E00
FC1E00
FFC000
7FF800
7FFE00
3FFF00
0FFF00
61FF00
F83F80
F80F00
F00700
700700
300E00
0FF800
ENDCHAR
STARTCHAR 015E
ENCODING 350
SWIDTH 533 0
DWIDTH 20 0
BBX 18 30 2 -9
BITMAP
07F100
1C1F00
380700
380300
780100
7C0100
7F0100
7FC000
7FF000
3FFC00
1FFF00
0FFF80
03FF80
80FFC0
803FC0
C00FC0
C007C0
E00780
F00780
F80700
871C00
00E000
018000
010000
03E000
007000
007000
007000
046000
03C000
ENDCHAR
STARTCHAR 015F
ENCODING 351
SWIDTH 480 0
DWIDTH 18 0
BBX 17 27 1 -9
BITMAP
07F000
180C00
300E00
701E00
F81E00
FC1E00
FF8000
7FF800
7FFC00
3FFF00
0FFF00
61FF00
F83F80
F80F00
F00700
700700
300E00
0FF800
008000
008000
010000
00E000
007000
003000
003000
067000
01E000
ENDCHAR
STARTCHAR 0160
ENCODING 352
SWIDTH 533 0
DWIDTH 20 0
BBX 18 30 2 -1
BITMAP
041000
076000
03E000
03C000
018000
008000
000000
000000
07F100
1C1F00
380700
380300
780100
7C0100
7F0100
7FC000
7FF000
3FFC00
1FFF00
0FFF80
03FF80
80FFC0
803FC0
C00FC0
C007C0
E00780
F00780
F80700
871C00
00E000
ENDCHAR
STARTCHAR 0161
ENCODING 353
SWIDTH 480 0
DWIDTH 18 0
BBX 17 25 1 0
BITMAP
0E3000
07E000
03C000
01C000
018000
000000
000000
07F000
180C00
300E00
701E00
F81E00
FC1E00
FFC000
7FF800
7FFE00
3FFF00
0FFF00
61FF00
F83F80
F80F00
F00700
700700
300E00
0FF800
ENDCHAR
STARTCHAR 0162
ENCODING 354
SWIDTH 586 0
DWIDTH 22 0
BBX 20 30 1 -9
BITMAP
FFFFF0
C1F870
81F830
81F810
81F810
81F810
01F800
01F800
01F800
01F800
01F800
01F800
01F800
01F800
01F800
01F800
01F800
01F800
01F800
01F800
0FFE00
000000
000000
007000
00F000
00F000
007000
001000
002000
006000
ENDCHAR
STARTCHAR 0163
ENCODING 355
SWIDTH 373 0
DWIDTH 14 0
BBX 13 33 0 -9
BITMAP
0080
0080
0180
0180
0380
0F80
FFF8
1F80
1F80
1F80
1F80
1F80
1F80
1F80
1F80
1F80
1F80
1F80
1F80
1F80
1F80
0FC0
07F8
03F0
0000
0180
03C0
03C0
03C0
0040
0040
0080
0100
ENDCHAR
STARTCHAR 0164
ENCODING 356
SWIDTH 586 0
DWIDTH 22 0
BBX 20 29 1 0
BITMAP
020400
019800
00F000
00F000
006000
002000
000000
000000
FFFFF0
C1F870
81F830
81F810
81F810
81F810
01F800
01F800
01F800
01F800
01F800
01F800
01F800
01F800
01F800
01F800
01F800
01F800
01F800
01F800
0FFE00
ENDCHAR
STARTCHAR 0165
ENCODING 357
SWIDTH 400 0
DWIDTH 15 0
BBX 14 26 0 0
BITMAP
0038
003C
007C
00BC
0084
0188
03B0
0780
FFF8
1F80
1F80
1F80
1F80
1F80
1F80
1F80
1F80
1F80
1F80
1F80
1F80
1F80
1F80
0FC0
07F8
03F0
ENDCHAR
STARTCHAR 0166
ENCODING 358
SWIDTH 560 0
DWIDTH 21 0
BBX 20 21 0 0
BITMAP
FFFFF0
E0F830
C0F810
C0F810
80F810
80F810
00F800
00F800
00F800
00F800
1FFFC0
00F800
00F800
00F800
00F800
00F800
00F800
00F800
00F800
00F800
07FF00
ENDCHAR
STARTCHAR 0167
ENCODING 359
SWIDTH 373 0
DWIDTH 14 0
BBX 14 24 0 0
BITMAP
0080
0080
0080
0180
0380
0780
FFF8
1F80
1F80
1F80
1F80
1F80
FFF8
1F80
1F80
1F80
1F80
1F80
1F80
1F80
0F80
0FC0
07FC
01F0
ENDCHAR
STARTCHAR 0168
ENCODING 360
SWIDTH 613 0
DWIDTH 23 0
BBX 22 29 1 -1
BITMAP
003800
007C80
007F80
004F00
000600
000000
000000
FFC0FC
3F0010
3F0010
3F0010
3F0010
3F0010
3F0010
3F0010
3F0010
3F0010
3F0010
3F0010
3F0010
3F0010
3F0010
3F0020
3F0020
1F0020
0F8040
07C080
03E300
001C00
ENDCHAR
STARTCHAR 0169
ENCODING 361
SWIDTH 640 0
DWIDTH 24 0
BBX 22 25 0 0
BITMAP
00E200
00FE00
01FC00
013C00
000000
000000
000000
FF07F0
3F01F0
3F01F0
3F01F0
3F01F0
3F01F0
3F01F0
3F01F0
3F01F0
3F01F0
3F01F0
3F01F0
3F01F0
1F01F0
1F03F0
1F85F0
0FF9F0
03F1FC
ENDCHAR
STARTCHAR 016A
ENCODING 362
SWIDTH 613 0
DWIDTH 23 0
BBX 22 28 1 -1
BITMAP
007F00
007F00
000000
000000
000000
000000
FFC0FC
3F0010
3F0010
3F0010
3F0010
3F0010
3F0010
3F0010
3F0010
3F0010
3F0010
3F0010
3F0010
3F0010
3F0010
3F0020
3F0020
1F0020
0F8040
07C080
03E300
001C00
ENDCHAR
STARTCHAR 016B
ENCODING 363
SWIDTH 640 0
DWIDTH 24 0
BBX 22 24 0 0
BITMAP
01FE00
01FE00
000000
000000
000000
000000
FF07F0
3F01F0
3F01F0
3F01F0
3F01F0
3F01F0
3F01F0
3F01F0
3F01F0
3F01F0
3F01F0
3F01F0
3F01F0
1F01F0
1F03F0
1F85F0
0FF9F0
03F1FC
ENDCHAR
STARTCHAR 016C
ENCODING 364
SWIDTH 613 0
DWIDTH 23 0
BBX 22 30 1 -1
BITMAP
004100
004100
006300
007F00
003E00
001C00
000000
000000
FFC0FC
3F0010
3F0010
3F0010
3F0010
3F0010
3F0010
3F0010
3F0010
3F0010
3F0010
3F0010
3F0010
3F0010
3F0010
3F0020
3F0020
1F0020
0F8040
07C080
03E300
001C00
ENDCHAR
STARTCHAR 016D
ENCODING 365
SWIDTH 640 0
DWIDTH 24 0
BBX 22 25 0 0
BITMAP
010400
018400
00FC00
00FC00
007800
000000
000000
FF07F0
3F01F0
3F01F0
3F01F0
3F01F0
3F01F0
3F01F0
3F01F0
3F01F0
3F01F0
3F01F0
3F01F0
3F01F0
1F01F0
1F03F0
1F85F0
0FF9F0
03F1FC
ENDCHAR
STARTCHAR 016E
ENCODING 366
SWIDTH 613 0
DWIDTH 23 0
BBX 22 31 1 -1
BITMAP
001C00
003E00
003300
002300
002300
003200
001E00
000000
000000
FFC0FC
3F0010
3F0010
3F0010
3F0010
3F0010
3F0010
3F0010
3F0010
3F0010
3F0010
3F0010
3F0010
3F0010
3F0010
3F0020
3F0020
1F0020
0F8040
07C080
03E300
001C00
ENDCHAR
STARTCHAR 016F
ENCODING 367
SWIDTH 640 0
DWIDTH 24 0
BBX 22 26 0 0
BITMAP
007800
00FC00
00CC00
008400
00CC00
007800
000000
000000
FF07F0
3F01F0
3F01F0
3F01F0
3F01F0
3F01F0
3F01F0
3F01F0
3F01F0
3F01F0
3F01F0
3F01F0
3F01F0
1F01F0
1F03F0
1F85F0
0FF9F0
03F1FC
ENDCHAR
STARTCHAR 0170
ENCODING 368
SWIDTH 613 0
DWIDTH 23 0
BBX 22 30 1 -1
BITMAP
0018C0
0039E0
007DE0
0079E0
0071C0
006100
004100
000000
FFC0FC
3F0010
3F0010
3F0010
3F0010
3F0010
3F0010
3F0010
3F0010
3F0010
3F0010
3F0010
3F0010
3F0010
3F0010
3F0020
3F0020
1F0020
0F8040
07C080
03E300
001C00
ENDCHAR
STARTCHAR 0171
ENCODING 369
SWIDTH 640 0
DWIDTH 24 0
BBX 22 26 0 0
BITMAP
006180
00F380
00F7C0
00E780
00C300
008600
010400
000000
FF07F0
3F01F0
3F01F0
3F01F0
3F01F0
3F01F0
3F01F0
3F01F0
3F01F0
3F01F0
3F01F0
3F01F0
3F01F0
1F01F0
1F03F0
1F85F0
0FF9F0
03F1FC
ENDCHAR
STARTCHAR 0172
ENCODING 370
SWIDTH 613 0
DWIDTH 23 0
BBX 22 27 1 -6
BITMAP
FFC0FC
3F0010
3F0010
3F0010
3F0010
3F0010
3F0010
3F0010
3F0010
3F0010
3F0010
3F0010
3F0010
3F0010
3F0010
3F0020
3F0020
1F0020
0F8040
07C080
03E300
001C00
001000
003000
007000
007200
003C00
ENDCHAR
STARTCHAR 0173
ENCODING 371
SWIDTH 640 0
DWIDTH 24 0
BBX 22 24 0 -6
BITMAP
FF07F0
3F01F0
3F01F0
3F01F0
3F01F0
3F01F0
3F01F0
3F01F0
3F01F0
3F01F0
3F01F0
3F01F0
3F01F0
1F01F0
1F03F0
1F85F0
0FF9F0
03F1FC
000200
000600
000C00
000C00
000E80
000F80
ENDCHAR
STARTCHAR 0174
ENCODING 372
SWIDTH 933 0
DWIDTH 35 0
BBX 35 29 0 0
BITMAP
0000200000
0000700000
0000F00000
0000F80000
0001DC0000
0001040000
0000000000
0000000000
FFF7FF0FE0
1FC1FC0100
1FC0FE0200
1FE0FE0200
0FE0FF0200
0FF07F0400
07F07F0400
07F87F8400
03F8BF8800
03FC9FC800
01FC9FC800
01FD0FF000
00FF0FF000
00FE0FF000
00FE07E000
007E07E000
007C03C000
003C03C000
003801C000
0018018000
0010008000
ENDCHAR
STARTCHAR 0175
ENCODING 373
SWIDTH 853 0
DWIDTH 32 0
BBX 31 25 0 0
BITMAP
0000C000
0000C000
0001E000
0003F000
00061800
00000000
00000000
FFE7FC7E
3F83F808
1F81F810
1FC1FC10
0FC1FC10
0FE1FC20
07E2FE20
07F27E40
03F47F40
03F43F40
01FC3F80
01F81F80
01F81F80
00F00F00
00F00F00
00700E00
00600600
00200600
ENDCHAR
STARTCHAR 0176
ENCODING 374
SWIDTH 613 0
DWIDTH 23 0
BBX 23 29 0 0
BITMAP
000800
001C00
001C00
003E00
007700
004100
000000
000000
FFE0FE
1FC010
1FC020
0FE020
07E040
07F040
03F080
03F880
01F900
01FD00
00FE00
007E00
007E00
007E00
007E00
007E00
007E00
007E00
007E00
007E00
00FF00
ENDCHAR
STARTCHAR 0177
ENCODING 375
SWIDTH 560 0
DWIDTH 21 0
BBX 21 34 0 -8
BITMAP
000800
001800
001C00
003E00
007600
004100
000000
000000
FFC1F8
3F8040
3F8040
1FC040
1FC080
0FE080
07E100
07F100
03F200
03FA00
01FA00
01FC00
00FC00
00F800
007800
007000
003000
002000
002000
002000
784000
7C4000
FE8000
FF8000
7F0000
3E0000
ENDCHAR
STARTCHAR 0178
ENCODING 376
SWIDTH 613 0
DWIDTH 23 0
BBX 23 29 0 0
BITMAP
0070C0
00F9E0
00F9E0
00F9E0
0070C0
000000
000000
000000
FFE0FE
1FC010
1FC020
0FE020
07E040
07F040
03F080
03F880
01F900
01FD00
00FE00
007E00
007E00
007E00
007E00
007E00
007E00
007E00
007E00
007E00
00FF00
ENDCHAR
STARTCHAR 0179
ENCODING 377
SWIDTH 533 0
DWIDTH 20 0
BBX 18 28 1 1
BITMAP
003800
007C00
007800
007000
004000
008000
000000
7FFF80
703F80
603F00
607F00
407E00
40FE00
40FC00
01FC00
01F800
03F000
03F000
07E000
0FE000
0FC040
1FC040
1F8040
3F8040
3F00C0
7E00C0
7E01C0
FFFFC0
ENDCHAR
STARTCHAR 017A
ENCODING 378
SWIDTH 506 0
DWIDTH 19 0
BBX 18 25 0 1
BITMAP
003C00
003C00
007C00
007800
004000
000000
000000
3FFFC0
381F80
303F00
207F00
207E00
40FC00
41FC00
01F800
03F000
07F000
07E040
0FE040
0FC080
1F8080
3F8080
3F0180
7E0380
FFFF80
ENDCHAR
STARTCHAR 017B
ENCODING 379
SWIDTH 533 0
DWIDTH 20 0
BBX 18 29 1 0
BITMAP
00E000
01E000
01F000
01E000
00E000
000000
000000
000000
7FFF80
703F80
603F00
607F00
407E00
40FE00
40FC00
01FC00
01F800
03F000
03F000
07E000
0FE000
0FC040
1FC040
1F8040
3F8040
3F00C0
7E00C0
7E01C0
FFFFC0
ENDCHAR
STARTCHAR 017C
ENCODING 380
SWIDTH 506 0
DWIDTH 19 0
BBX 18 25 0 0
BITMAP
006000
00F000
00F000
00F000
006000
000000
000000
3FFFC0
381F80
303F00
207F00
207E00
40FC00
41FC00
01F800
03F000
07F000
07E040
0FE040
0FC080
1F8080
3F8080
3F0180
7E0380
FFFF80
ENDCHAR
STARTCHAR 017D
ENCODING 381
SWIDTH 533 0
DWIDTH 20 0
BBX 18 29 1 0
BITMAP
020800
03B000
01F000
00E000
00C000
004000
000000
000000
7FFF80
703F80
603F00
607F00
407E00
40FE00
40FC00
01FC00
01F800
03F000
03F000
07E000
0FE000
0FC040
1FC040
1F8040
3F8040
3F00C0
7E00C0
7E01C0
FFFFC0
ENDCHAR
STARTCHAR 017E
ENCODING 382
SWIDTH 506 0
DWIDTH 19 0
BBX 18 25 0 0
BITMAP
020400
01D800
00F800
00F000
006000
002000
000000
3FFFC0
381F80
303F00
207F00
207E00
40FC00
41FC00
01F800
03F000
07F000
07E040
0FE040
0FC080
1F8080
3F8080
3F0180
7E0380
FFFF80
ENDCHAR
STARTCHAR 0192
ENCODING 402
SWIDTH 586 0
DWIDTH 22 0
BBX 28 34 -3 -8
BITMAP
00003F80
0000F3C0
0001F3E0
0003E3F0
0003E3F0
0007E1F0
0007C0E0
0007C000
000FC000
000FC000
000FC000
000FC000
000F8000
000F8000
01FFFC00
001F8000
001F8000
001F8000
001F0000
003F0000
003F0000
003F0000
003F0000
003E0000
003E0000
007E0000
007E0000
707E0000
F87C0000
F8FC0000
F8F80000
F8F00000
79E00000
1F800000
ENDCHAR
STARTCHAR 01FC
ENCODING 508
SWIDTH 826 0
DWIDTH 31 0
BBX 30 28 0 1
BITMAP
00001E00
00001E00
00001E00
00003C00
00002000
00000000
00000000
000FFFFC
0003F81C
0007F804
0005F804
0009F804
0009F804
0011F820
0021F820
0021F860
0041FFE0
0041F860
0081F820
0101F820
01FFF820
0201F804
0201F804
0401F804
0801F804
0801F80C
1001F81C
FE07FFFC
ENDCHAR
STARTCHAR 01FD
ENCODING 509
SWIDTH 800 0
DWIDTH 30 0
BBX 28 25 1 0
BITMAP
0000E000
0001E000
0001E000
0003C000
00030000
00020000
00000000
07F07E00
1C3DC780
3C1FC3C0
7E1F83E0
7E1F83E0
7E1F83F0
3C1F81F0
001F81F0
01FF81F0
1F1FFFF0
3C1F8000
7C1F8000
7C1F8000
FC0F8000
7C0F8010
7E0FC020
3FF3E0C0
1FC0FF00
ENDCHAR
STARTCHAR 01FE
ENCODING 510
SWIDTH 720 0
DWIDTH 27 0
BBX 22 28 2 0
BITMAP
000700
000F00
000F00
000F00
001C00
001000
000000
00FE04
0783C8
0F03F0
1F01F0
3E01F8
7E00F8
7E01FC
7E02FC
FC04FC
FC08FC
FC10FC
FC20FC
FC40FC
7E80FC
7F00FC
7E00F8
3E00F8
1F01F0
2F01E0
4783C0
81FE00
ENDCHAR
STARTCHAR 01FF
ENCODING 511
SWIDTH 560 0
DWIDTH 21 0
BBX 19 25 1 0
BITMAP
001C00
003E00
003C00
003C00
003000
004000
000000
01F820
0F0E40
1E0F80
3C0780
7C07C0
7C07E0
FC0FE0
FC17E0
FC27E0
FC47E0
FC87E0
FD07E0
7E07E0
7C07C0
3E07C0
3E0780
4F0E00
83F800
ENDCHAR
STARTCHAR 0218
ENCODING 536
SWIDTH 533 0
DWIDTH 20 0
BBX 18 30 2 -9
BITMAP
07F100
1C1F00
380700
380300
780100
7C0100
7F0100
7FC000
7FF000
3FFC00
1FFF00
0FFF80
03FF80
80FFC0
803FC0
C00FC0
C007C0
E00780
F00780
F80700
871C00
00E000
000000
01C000
03C000
03E000
01E000
004000
004000
018000
ENDCHAR
STARTCHAR 0219
ENCODING 537
SWIDTH 480 0
DWIDTH 18 0
BBX 17 27 1 -9
BITMAP
07F000
180C00
300E00
701E00
F81E00
FC1E00
FFC000
7FF800
7FFE00
3FFF00
0FFF00
61FF00
F83F80
F80F00
F00700
700700
300E00
0FF800
000000
038000
03C000
03C000
03C000
004000
008000
010000
020000
ENDCHAR
STARTCHAR 02C6
ENCODING 710
SWIDTH 613 0
DWIDTH 23 0
BBX 7 5 8 20
BITMAP
10
38
78
7C
C6
ENDCHAR
STARTCHAR 02C7
ENCODING 711
SWIDTH 613 0
DWIDTH 23 0
BBX 7 5 8 20
BITMAP
C6
7C
78
38
10
ENDCHAR
STARTCHAR 02D8
ENCODING 728
SWIDTH 586 0
DWIDTH 22 0
BBX 7 5 8 20
BITMAP
82
86
FC
FC
78
ENDCHAR
STARTCHAR 02D9
ENCODING 729
SWIDTH 533 0
DWIDTH 20 0
BBX 4 5 8 20
BITMAP
60
F0
F0
F0
60
ENDCHAR
STARTCHAR 02DA
ENCODING 730
SWIDTH 586 0
DWIDTH 22 0
BBX 6 6 8 20
BITMAP
70
F8
8C
8C
CC
78
ENDCHAR
STARTCHAR 02DB
ENCODING 731
SWIDTH 560 0
DWIDTH 21 0
BBX 6 7 8 -7
BITMAP
10
20
60
60
E0
FC
78
ENDCHAR
STARTCHAR 02DC
ENCODING 732
SWIDTH 613 0
DWIDTH 23 0
BBX 7 4 8 20
BITMAP
72
FE
FE
9C
ENDCHAR
STARTCHAR 02DD
ENCODING 733
SWIDTH 666 0
DWIDTH 25 0
BBX 10 6 8 19
BITMAP
E380
F3C0
F780
E780
C200
8400
ENDCHAR
STARTCHAR 0901
ENCODING 2305
SWIDTH 0 0
DWIDTH 0 0
BBX 13 11 -12 24
BITMAP
0700
0F80
0F80
0F80
8708
8008
C018
E070
7FF0
3FE0
1F80
ENDCHAR
STARTCHAR 0902
ENCODING 2306
SWIDTH 0 0
DWIDTH 0 0
BBX 5 5 -8 23
BITMAP
70
F8
F8
F8
70
ENDCHAR
STARTCHAR 0903
ENCODING 2307
SWIDTH 213 0
DWIDTH 8 0
BBX 5 16 2 3
BITMAP
70
F0
F8
F8
70
00
00
00
00
00
00
70
F0
F8
F8
70
ENDCHAR
STARTCHAR 0905
ENCODING 2309
SWIDTH 720 0
DWIDTH 27 0
BBX 28 21 0 0
BITMAP
07F0FFF0
087C1F00
007C1F00
007C1F00
007C1F00
007C1F00
00F01F00
07E01F00
00FC1F00
007E1F00
103E1F00
7C3F1F00
FC3FFF00
FC3F1F00
F83F1F00
603E1F00
407E1F00
20F81F00
1FE01F00
00001F00
00001F00
ENDCHAR
STARTCHAR 0906
ENCODING 2310
SWIDTH 1013 0
DWIDTH 38 0
BBX 39 21 0 0
BITMAP
07F0FFFFFE
087C1F03E0
007C1F03E0
007C1F03E0
007C1F03E0
007C1F03E0
00F01F03E0
07E01F03E0
00FC1F03E0
007E1F03E0
103E1F03E0
7C3F1F03E0
FC3FFF03E0
FC3F1F03E0
F83F1F03E0
603E1F03E0
407E1F03E0
20F81F03E0
1FE01F03E0
00001F03E0
00001F03E0
ENDCHAR
STARTCHAR 0907
ENCODING 2311
SWIDTH 480 0
DWIDTH 18 0
BBX 19 25 -1 -4
BITMAP
FFFFE0
007E00
007E00
007E00
03FE00
0E0600
1C0000
1E0000
1F0000
1FF000
1FFC00
0FFE00
03FF00
00FF80
0C1F80
1F0F80
1F0780
1F0780
1F0700
0F0E00
03F800
020000
040000
040000
080000
ENDCHAR
STARTCHAR 0908
ENCODING 2312
SWIDTH 480 0
DWIDTH 18 0
BBX 19 34 -1 -4
BITMAP
007C00
00FF00
01F100
01E080
01E080
01E000
00E000
00F000
003800
FFFFE0
007E00
007E00
007E00
03FE00
0E0600
1C0000
1E0000
1F0000
1FF000
1FFC00
0FFE00
03FF00
00FF80
0C1F80
1F0F80
1F0780
1F0780
1F0700
0F0E00
03F800
020000
040000
040000
080000
ENDCHAR
STARTCHAR 0909
ENCODING 2313
SWIDTH 480 0
DWIDTH 18 0
BBX 20 21 -1 0
BITMAP
FFFFF0
007E00
003F00
001F00
001F00
001F00
003E00
007C00
03F000
007E00
001F00
001F80
1C0F80
3E0F80
7E0F80
7E0F80
7C1F80
301F00
201F00
103C00
0FF000
ENDCHAR
STARTCHAR 090A
ENCODING 2314
SWIDTH 693 0
DWIDTH 26 0
BBX 27 21 -1 0
BITMAP
FFFFFFE0
007E0000
003E0000
001F0000
001F0000
001F0000
003F0000
003E0000
00780000
03F03E00
003E7F00
001F8F80
001F87C0
3C0F87C0
3E0F87C0
7E0F87C0
7E0F87C0
781F87C0
201F0780
103E0F00
0FF07E00
ENDCHAR
STARTCHAR 090B
ENCODING 2315
SWIDTH 880 0
DWIDTH 33 0
BBX 35 21 -1 0
BITMAP
FFFFFFFFE0
0001F00000
0001F00000
0001F00000
0F81F07C00
1FE1F1E200
3FE1F1E100
43F1F1E200
01F9F1FA00
01F9FFFC00
00FFF0FE00
00FDF07F00
0079F03F00
0031F03F80
0041F01F80
0081F00F80
0101F40F00
0601F20F00
0801F10E00
0001F0F800
0001F00000
ENDCHAR
STARTCHAR 090C
ENCODING 2316
SWIDTH 773 0
DWIDTH 29 0
BBX 30 27 -1 -6
BITMAP
FFFFFFFC
00007E00
00007E00
00007E00
00F87E00
038CE780
0F8FC3C0
0F8FC3E0
1F07C3E0
1F07C3E0
1F07C3F0
1F07C3F0
1F07C3E0
1F07C3E0
1F07C7E0
1F0007C0
0F000780
0F800F00
07801E00
01F81C00
000038E0
000031F0
000031F0
000031F0
000011F0
000008E0
00000780
ENDCHAR
STARTCHAR 090D
ENCODING 2317
SWIDTH 560 0
DWIDTH 21 0
BBX 23 29 -1 1
BITMAP
020020
020060
0380C0
01FFC0
00FF80
007E00
000000
000000
000000
FFFFFE
0F81F0
0F81F0
0F81F0
0F81F0
0F81F0
0F81F0
0F81F0
0F83E0
0F9F80
0F8000
0F8000
0F80E0
0F81F0
0FC1F0
07C1F0
07C0F0
03E060
01F0C0
003F00
ENDCHAR
STARTCHAR 090E
ENCODING 2318
SWIDTH 560 0
DWIDTH 21 0
BBX 23 31 -1 1
BITMAP
0F0000
110000
100000
180000
1FFF00
1FFFC0
0FFFC0
07FFC0
000060
000020
000040
FFFFFE
0F81F0
0F81F0
0F81F0
0F81F0
0F81F0
0F81F0
0F81F0
0F83E0
0F9F80
0F8000
0F8000
0F80E0
0F81F0
0FC1F0
07C1F0
07C0F0
03E060
01F0C0
003F00
ENDCHAR
STARTCHAR 090F
ENCODING 2319
SWIDTH 560 0
DWIDTH 21 0
BBX 23 20 -1 1
BITMAP
FFFFFE
0F81F0
0F81F0
0F81F0
0F81F0
0F81F0
0F81F0
0F81F0
0F83E0
0F9F80
0F8000
0F8000
0F80E0
0F81F0
0FC1F0
07C1F0
07C0F0
03E060
01F0C0
003F00
ENDCHAR
STARTCHAR 0910
ENCODING 2320
SWIDTH 560 0
DWIDTH 21 0
BBX 23 29 -1 1
BITMAP
004000
00F000
01F800
00FC00
007E00
001F00
000380
0000C0
000000
FFFFFE
0F81F0
0F81F0
0F81F0
0F81F0
0F81F0
0F81F0
0F81F0
0F83E0
0F9F80
0F8000
0F8000
0F80E0
0F81F0
0FC1F0
07C1F0
07C0F0
03E060
01F0C0
003F00
ENDCHAR
STARTCHAR 0911
ENCODING 2321
SWIDTH 1040 0
DWIDTH 39 0
BBX 39 30 0 0
BITMAP
0000040040
00000400C0
0000070180
000003FF80
000001FF00
000000FC00
0000000000
0000000000
0000000000
07F0FFFFFE
087C1F03E0
007C1F03E0
007C1F03E0
007C1F03E0
007C1F03E0
00F01F03E0
07E01F03E0
00FC1F03E0
007E1F03E0
103E1F03E0
7C3F1F03E0
FC3FFF03E0
FC3F1F03E0
F83F1F03E0
603E1F03E0
407E1F03E0
20F81F03E0
1FE01F03E0
00001F03E0
00001F03E0
ENDCHAR
STARTCHAR 0912
ENCODING 2322
SWIDTH 1040 0
DWIDTH 39 0
BBX 39 32 0 0
BITMAP
00001C0000
0000220000
0000200000
0000600000
00007FFE00
00003FFF00
00003FFF80
00000FFF80
0000000080
0000000080
0000000080
07F0FFFFFE
087C1F03E0
007C1F03E0
007C1F03E0
007C1F03E0
007C1F03E0
00F01F03E0
07E01F03E0
00FC1F03E0
007E1F03E0
103E1F03E0
7C3F1F03E0
FC3FFF03E0
FC3F1F03E0
F83F1F03E0
603E1F03E0
407E1F03E0
20F81F03E0
1FE01F03E0
00001F03E0
00001F03E0
ENDCHAR
STARTCHAR 0913
ENCODING 2323
SWIDTH 1040 0
DWIDTH 39 0
BBX 39 30 0 0
BITMAP
0000008000
000001E000
000001F000
000001F800
000000FC00
0000003C00
0000000E00
0000000180
0000000000
07F0FFFFFE
087C1F03E0
007C1F03E0
007C1F03E0
007C1F03E0
007C1F03E0
00F01F03E0
07E01F03E0
00FC1F03E0
007E1F03E0
103E1F03E0
7C3F1F03E0
FC3FFF03E0
FC3F1F03E0
F83F1F03E0
603E1F03E0
407E1F03E0
20F81F03E0
1FE01F03E0
00001F03E0
00001F03E0
ENDCHAR
STARTCHAR 0914
ENCODING 2324
SWIDTH 1040 0
DWIDTH 39 0
BBX 39 31 0 0
BITMAP
0000001C00
0000003E00
0000003E00
00000F1F00
00000F8F00
00000FE780
000007F1C0
000001FCC0
0000001E60
0000000100
07F0FFFFFE
087C1F03E0
007C1F03E0
007C1F03E0
007C1F03E0
007C1F03E0
00F01F03E0
07E01F03E0
00FC1F03E0
007E1F03E0
103E1F03E0
7C3F1F03E0
FC3FFF03E0
FC3F1F03E0
F83F1F03E0
603E1F03E0
407E1F03E0
20F81F03E0
1FE01F03E0
00001F03E0
00001F03E0
ENDCHAR
STARTCHAR 0915
ENCODING 2325
SWIDTH 826 0
DWIDTH 31 0
BBX 33 21 -1 0
BITMAP
FFFFFFFF80
0003E00000
0003E00000
0003E00000
03E3E7E000
07F3EFF000
0F83F1F800
1F83F0FC00
1F03E07C00
3F03E07C00
3F03E07E00
3F03E07E00
3F03E07C00
1F03E07C00
1F87E0FC00
0FC7E1F800
0FFBEFF800
03F3E3E000
0003E00000
0003E00000
0003E00000
ENDCHAR
STARTCHAR 0916
ENCODING 2326
SWIDTH 773 0
DWIDTH 29 0
BBX 31 21 -1 0
BITMAP
FFFFFFFE
03E003E0
01F003E0
01F003E0
00F803E0
01F8FBE0
01F1E3E0
01F3C1E0
01E7C1E0
07C7C1E0
3F07C1E0
3F07C1E0
1F83E1E0
1F83F5E0
0FC1F9E0
07E003E0
07E003E0
03F007E0
01FC1BE0
00FFF3E0
003F83E0
ENDCHAR
STARTCHAR 0917
ENCODING 2327
SWIDTH 666 0
DWIDTH 25 0
BBX 27 21 -1 0
BITMAP
FFFFFFE0
01F03E00
00783E00
007C3E00
007E3E00
003E3E00
003E3E00
003F3E00
1E3E3E00
3F3E3E00
3F3E3E00
3F3E3E00
3C7C3E00
18783E00
08F03E00
07C03E00
00003E00
00003E00
00003E00
00003E00
00003E00
ENDCHAR
STARTCHAR 0918
ENCODING 2328
SWIDTH 640 0
DWIDTH 24 0
BBX 25 21 -1 0
BITMAP
FFFFFF80
07C0FC00
0F80FC00
1F80FC00
1F80FC00
1F80FC00
0F80FC00
07C0FC00
01F8FC00
07C0FC00
0F80FC00
1F80FC00
1F00FC00
1F00FC00
1F00FC00
1F80FC00
1F80FC00
0FC3FC00
07FEFC00
01F0FC00
0000FC00
ENDCHAR
STARTCHAR 0919
ENCODING 2329
SWIDTH 560 0
DWIDTH 21 0
BBX 23 21 -1 0
BITMAP
FFFFFE
003E00
003E00
003E00
03FE00
0E0200
1C0070
1E00F8
1F00F8
1FF0F8
1FFC70
0FFE00
03FF00
007F80
1C0F80
3E0780
3E0780
3E0700
1C0700
0C0E00
03F800
ENDCHAR
STARTCHAR 091A
ENCODING 2330
SWIDTH 586 0
DWIDTH 22 0
BBX 24 21 -1 0
BITMAP
FFFFFF
0001F0
0001F0
0001F0
3FF9F0
03C1F0
0781F0
0F81F0
1F01F0
1F01F0
1F01F0
1F01F0
1F01F0
1F81F0
1F83F0
0FC3F0
07FDF0
01F9F0
0001F0
0001F0
0001F0
ENDCHAR
STARTCHAR 091B
ENCODING 2331
SWIDTH 666 0
DWIDTH 25 0
BBX 27 20 -1 1
BITMAP
FFFFFFE0
07C0F800
0F80F800
1F80F800
1F83F800
1F843E00
1F8C1F00
0F801F00
07E01F80
07E01F80
0F801F80
1F801F80
1F001F80
1F001F00
1F001F00
1F801F00
0F803E00
07C03C00
03E07000
007F8000
ENDCHAR
STARTCHAR 091C
ENCODING 2332
SWIDTH 693 0
DWIDTH 26 0
BBX 28 21 -1 0
BITMAP
FFFFFFF0
00001F00
00001F00
00001F00
03FFFF00
00701F00
003C1F00
003E1F00
001F1F00
001F1F00
001F1F00
1C1F9F00
3E1F9F00
3E1F1F00
3E1F1F00
3E1F1F00
383E1F00
303E1F00
18781F00
07E01F00
00001F00
ENDCHAR
STARTCHAR 091D
ENCODING 2333
SWIDTH 746 0
DWIDTH 28 0
BBX 30 25 -1 -4
BITMAP
FFFFFFFC
007E07C0
007E07C0
007E07C0
03FE07C0
0E0207C0
1C0007C0
1E0007C0
1F0007C0
1FF007C0
1FFC07C0
0FFE07C0
03FF07C0
00FFFFC0
041F87C0
1F0F87C0
1F0787C0
1F0787C0
1F0707C0
0F0E07C0
03F807C0
02000000
04000000
08000000
08000000
ENDCHAR
STARTCHAR 091E
ENCODING 2334
SWIDTH 666 0
DWIDTH 25 0
BBX 26 21 -1 0
BITMAP
FFFFFFC0
00007E00
00007E00
00007E00
07C07E00
1FF07E00
21F87E00
00F87E00
00FC7E00
00FC7E00
00FFFE00
00FC7E00
00FC7E00
00FC7E00
00F87E00
20F87E00
21F07E00
1FE07E00
07807E00
00007E00
00007E00
ENDCHAR
STARTCHAR 091F
ENCODING 2335
SWIDTH 480 0
DWIDTH 18 0
BBX 20 21 -1 0
BITMAP
FFFFF0
003F00
003F00
003F00
003F00
003F00
03E100
07C000
0F8000
1F8000
1F0000
1F0000
1F0000
1F0000
1F0000
1F0000
1F8000
0F8000
07C040
03E180
00FE00
ENDCHAR
STARTCHAR 0920
ENCODING 2336
SWIDTH 533 0
DWIDTH 20 0
BBX 22 20 -1 1
BITMAP
FFFFFC
007C00
007C00
007C00
007C00
01CE00
078780
0F87C0
0F03E0
1F03E0
1F03E0
1F03F0
1F03F0
1F03E0
1F03E0
1F03E0
0F83C0
078780
038700
007C00
ENDCHAR
STARTCHAR 0921
ENCODING 2337
SWIDTH 453 0
DWIDTH 17 0
BBX 19 21 -1 0
BITMAP
FFFFE0
003E00
003E00
003E00
03FE00
0E0200
1C0000
1E0000
1F0000
1FF000
1FFC00
0FFE00
03FF00
007F80
1C0F80
3E0780
3E0780
3E0700
1C0700
0C0E00
03F800
ENDCHAR
STARTCHAR 0922
ENCODING 2338
SWIDTH 533 0
DWIDTH 20 0
BBX 22 21 -1 0
BITMAP
FFFFFC
003F00
003F00
003F00
003F00
003F00
01F100
07C000
0F8000
1F8000
1F0000
1F0F80
1F1FC0
1F13E0
1F03E0
1F03E0
1F03E0
0F83E0
0783E0
03C7C0
00FE00
ENDCHAR
STARTCHAR 0923
ENCODING 2339
SWIDTH 826 0
DWIDTH 31 0
BBX 33 21 -1 0
BITMAP
FFFFFFFF80
1F83E0F800
1F83E0F800
1F83E0F800
1F83E0F800
1F83E0F800
1F83E0F800
1F83E0F800
1F83E0F800
1F83E0F800
1F83E0F800
1F83E0F800
0F83C0F800
0F87C0F800
07C780F800
00FC00F800
000000F800
000000F800
000000F800
000000F800
000000F800
ENDCHAR
STARTCHAR 0924
ENCODING 2340
SWIDTH 560 0
DWIDTH 21 0
BBX 23 21 -1 0
BITMAP
FFFFFE
0003E0
0003E0
0003E0
0003E0
007FE0
03E3E0
0783E0
0F83E0
1F83E0
1F03E0
1F03E0
1F03E0
1F03E0
1F03E0
1F03E0
1F03E0
1F03E0
0F83E0
0783E0
01F3E0
ENDCHAR
STARTCHAR 0925
ENCODING 2341
SWIDTH 666 0
DWIDTH 25 0
BBX 25 21 1 0
BITMAP
0FC3FF80
1FE1F800
31F1F800
20F1F800
20F1F800
20F1F800
18F1F800
01F1F800
07E1F800
FF81F800
FC01F800
FC01F800
7C01F800
7C01F800
3E01F800
3E03F800
0F05F800
03F9F800
0001F800
0001F800
0001F800
ENDCHAR
STARTCHAR 0926
ENCODING 2342
SWIDTH 506 0
DWIDTH 19 0
BBX 20 24 -1 -3
BITMAP
FFFFF0
003F00
003F00
003F00
003F00
007F00
03E000
07C000
0F8000
1F8000
1F0000
1F0000
1F0000
1F0100
1F0780
1F0FC0
1F8FC0
0F8FC0
07C780
03E780
00FE00
000100
000080
000060
ENDCHAR
STARTCHAR 0927
ENCODING 2343
SWIDTH 640 0
DWIDTH 24 0
BBX 25 21 -1 0
BITMAP
FFF1FF80
07C0FC00
0F80FC00
1F80FC00
1F80FC00
1F80FC00
0F80FC00
07C0FC00
01F8FC00
07C0FC00
0F80FC00
1F80FC00
1F00FC00
1F00FC00
1F00FC00
1F80FC00
1F80FC00
0FC3FC00
07FEFC00
01F8FC00
0000FC00
ENDCHAR
STARTCHAR 0928
ENCODING 2344
SWIDTH 560 0
DWIDTH 21 0
BBX 23 21 -1 0
BITMAP
FFFFFE
0003E0
0003E0
0003E0
0003E0
0003E0
03FFE0
0C03E0
1803E0
1C03E0
3F83E0
3F83E0
3F83E0
1F83E0
1F83E0
0603E0
0003E0
0003E0
0003E0
0003E0
0003E0
ENDCHAR
STARTCHAR 0929
ENCODING 2345
SWIDTH 560 0
DWIDTH 21 0
BBX 23 22 -1 -1
BITMAP
FFFFFE
0003E0
0003E0
0003E0
0003E0
0003E0
03FFE0
0C03E0
1803E0
1E03E0
3F83E0
3F83E0
3F83E0
1F83E0
0F03E0
0003E0
0003E0
0703E0
0F83E0
0F83E0
0F83E0
070000
ENDCHAR
STARTCHAR 092A
ENCODING 2346
SWIDTH 560 0
DWIDTH 21 0
BBX 23 21 -1 0
BITMAP
FFFFFE
1F03E0
1F03E0
1F03E0
1F03E0
1F03E0
1F03E0
1F03E0
1F83E0
1F03E0
1F83E0
1F83E0
0F83E0
0FC7E0
07FBE0
03E3E0
0003E0
0003E0
0003E0
0003E0
0003E0
ENDCHAR
STARTCHAR 092B
ENCODING 2347
SWIDTH 826 0
DWIDTH 31 0
BBX 33 21 -1 0
BITMAP
FFFFFFFF80
1F03E00000
1F03E00000
1F03E00000
1F03E7E000
1F03EFF800
1F03F8F800
1F03F0FC00
1F83E07C00
1F03E07E00
1F83E07E00
1F83E07E00
0F83E07E00
0FC7E07C00
07FBE0FC00
03E3E0F800
0003E7F800
0003E3E000
0003E00000
0003E00000
0003E00000
ENDCHAR
STARTCHAR 092C
ENCODING 2348
SWIDTH 560 0
DWIDTH 21 0
BBX 23 21 -1 0
BITMAP
FFFFFE
0003E0
0003E0
0003E0
01F3E0
0783E0
0F83E0
1FC3E0
1F63E0
3F13E0
3F0BE0
3F07E0
3F03E0
1F03E0
1F83E0
0FC7E0
07FBE0
03F3E0
0003E0
0003E0
0003E0
ENDCHAR
STARTCHAR 092D
ENCODING 2349
SWIDTH 640 0
DWIDTH 24 0
BBX 23 21 1 0
BITMAP
3E0FFE
7F83F0
4F83F0
87C3F0
07C3F0
07C3F0
07C3F0
07C3F0
0FFFF0
37C3F0
47C3F0
C7C3F0
87C3F0
8F83F0
CF83F0
7F03F0
3E03F0
0003F0
0003F0
0003F0
0003F0
ENDCHAR
STARTCHAR 092E
ENCODING 2350
SWIDTH 640 0
DWIDTH 24 0
BBX 26 21 -1 0
BITMAP
FFFFFFC0
01F07C00
01F07C00
01F07C00
01F07C00
01F07C00
01F07C00
01F07C00
07FFFC00
09F07C00
11F07C00
21F07C00
21F07C00
23F07C00
33E07C00
1FC07C00
0F807C00
00007C00
00007C00
00007C00
00007C00
ENDCHAR
STARTCHAR 092F
ENCODING 2351
SWIDTH 640 0
DWIDTH 24 0
BBX 26 21 -1 0
BITMAP
FFFFFFC0
03E07C00
01F07C00
00F87C00
00F87C00
00F87C00
00F87C00
01F87C00
03F07C00
3FC07C00
3F007C00
3F007C00
1F007C00
1F007C00
0F80FC00
07C17C00
00FE7C00
00007C00
00007C00
00007C00
00007C00
ENDCHAR
STARTCHAR 0930
ENCODING 2352
SWIDTH 373 0
DWIDTH 14 0
BBX 16 21 -1 0
BITMAP
FFFF
03E0
01F0
00F8
00F8
00F8
00F8
00F8
01F0
03E0
7F80
3E00
1F80
0F80
0FC0
0FC0
07E0
07E0
03E0
01F0
00FE
ENDCHAR
STARTCHAR 0931
ENCODING 2353
SWIDTH 373 0
DWIDTH 14 0
BBX 16 26 -1 -5
BITMAP
FFFF
03E0
01F0
00F8
00F8
00F8
00F8
00F8
01F0
03E0
7F80
3E00
1F80
0F80
0FC0
0FC0
07E0
07E0
03E0
01F0
00FE
3800
7C00
7C00
7C00
3800
ENDCHAR
STARTCHAR 0932
ENCODING 2354
SWIDTH 746 0
DWIDTH 28 0
BBX 29 20 -1 1
BITMAP
FFFFFFF8
00007C00
00007C00
00007C00
01F07E00
079CC700
0F0FC7C0
1F0FC7C0
1F0F83E0
1F0F83E0
3F0F83E0
3F0F83E0
3F0F83E0
3F0F83E0
1F0F83E0
1F0003E0
1F0003C0
0F0007C0
07800780
01F07E00
ENDCHAR
STARTCHAR 0933
ENCODING 2355
SWIDTH 773 0
DWIDTH 29 0
BBX 31 21 -1 0
BITMAP
FFFFFFFE
00001F00
00001F00
00001F00
00001F00
01F03F00
0788F3C0
0F85F3E0
1F07E1F0
1F03E1F0
1F07E1F0
3F07E1F0
3F07E1F0
3F0FC1F0
3F0FC1F0
1F0FC1F0
1F0F83F0
1F1F83E0
0F1F43E0
079E43C0
01F83F80
ENDCHAR
STARTCHAR 0934
ENCODING 2356
SWIDTH 773 0
DWIDTH 29 0
BBX 31 27 -1 -6
BITMAP
FFFFFFFE
00001F00
00001F00
00001F00
00001F00
01F03F00
0788F3C0
0F85F3E0
1F07E1F0
1F03E1F0
1F07E1F0
3F07E1F0
3F07E1F0
3F0FC1F0
3F0FC1F0
1F0FC1F0
1F0F83F0
1F1F83E0
0F1F43E0
079E43C0
01F83F80
00000000
01C00000
03E00000
03E00000
03E00000
01C00000
ENDCHAR
STARTCHAR 0935
ENCODING 2357
SWIDTH 560 0
DWIDTH 21 0
BBX 23 21 -1 0
BITMAP
FFFFFE
0003E0
0003E0
0003E0
01F3E0
0783E0
0F83E0
1F03E0
1F03E0
3F03E0
3F03E0
3F03E0
3F03E0
1F03E0
1F83E0
0FC7E0
07FBE0
03F3E0
0003E0
0003E0
0003E0
ENDCHAR
STARTCHAR 0936
ENCODING 2358
SWIDTH 720 0
DWIDTH 27 0
BBX 29 21 -1 0
BITMAP
FFFFFFF8
0C3C0F80
0E3E0F80
0F9F0F80
0F9F0F80
0F9F0F80
071F0F80
001F0F80
003E0F80
007E0F80
01F80F80
3FE00F80
1F000F80
1F800F80
0FC00F80
07E00F80
07E00F80
03F00F80
03F00F80
01F80F80
007F8F80
ENDCHAR
STARTCHAR 0937
ENCODING 2359
SWIDTH 560 0
DWIDTH 21 0
BBX 23 21 -1 0
BITMAP
FFFFFE
1F03E0
1F03E0
1F03E0
1FC3E0
1F63E0
1F13E0
1F0BE0
1F07E0
1F03E0
1F83E0
1F83E0
0F83E0
0FC7E0
07FBE0
03E3E0
0003E0
0003E0
0003E0
0003E0
0003E0
ENDCHAR
STARTCHAR 0938
ENCODING 2360
SWIDTH 693 0
DWIDTH 26 0
BBX 27 21 -1 0
BITMAP
FFFFFFE0
03E03F00
01F03F00
01F03F00
00F83F00
00F83F00
01F83F00
01F03F00
01F03F00
03C03F00
7FFFFF00
3E003F00
1F003F00
0F803F00
0FC03F00
0FC03F00
07C03F00
07E03F00
03E03F00
01F03F00
00FE3F00
ENDCHAR
STARTCHAR 0939
ENCODING 2361
SWIDTH 506 0
DWIDTH 19 0
BBX 21 21 -1 0
BITMAP
FFFFF8
000F80
000F80
000F80
07FF80
1F8080
1F0000
1F0000
0F8000
07FE00
078780
0F83C0
1F03C0
1F03C0
3F07C0
3F3FC0
1F0F00
1F0000
0F8000
07C040
01FF80
ENDCHAR
STARTCHAR 093C
ENCODING 2364
SWIDTH 0 0
DWIDTH 0 0
BBX 5 5 -13 -6
BITMAP
70
F8
F8
F8
70
ENDCHAR
STARTCHAR 093D
ENCODING 2365
SWIDTH 480 0
DWIDTH 18 0
BBX 16 21 1 0
BITMAP
0FFF
3C00
7800
7800
7C00
7E00
7F00
7FC0
3FE0
1FF8
07F8
03FC
00FE
007E
003E
001E
001E
801E
401C
3038
0FE0
ENDCHAR
STARTCHAR 093E
ENCODING 2366
SWIDTH 293 0
DWIDTH 11 0
BBX 13 21 -1 0
BITMAP
FFF8
0F80
0F80
0F80
0F80
0F80
0F80
0F80
0F80
0F80
0F80
0F80
0F80
0F80
0F80
0F80
0F80
0F80
0F80
0F80
0F80
ENDCHAR
STARTCHAR 093F
ENCODING 2367
SWIDTH 293 0
DWIDTH 11 0
BBX 25 32 -1 0
BITMAP
00000200
00000100
03F00080
0FFE0080
0FFFE080
1FFFFF80
183FFF80
1803FF80
18003E00
08000000
0C000000
FFF80000
0F800000
0F800000
0F800000
0F800000
0F800000
0F800000
0F800000
0F800000
0F800000
0F800000
0F800000
0F800000
0F800000
0F800000
0F800000
0F800000
0F800000
0F800000
0F800000
0F800000
ENDCHAR
STARTCHAR 0940
ENCODING 2368
SWIDTH 293 0
DWIDTH 11 0
BBX 16 29 -4 0
BITMAP
3F00
47C0
83E0
83E0
81F0
81F0
01F0
01F0
1FFF
01F0
01F0
01F0
01F0
01F0
01F0
01F0
01F0
01F0
01F0
01F0
01F0
01F0
01F0
01F0
01F0
01F0
01F0
01F0
01F0
ENDCHAR
STARTCHAR 0941
ENCODING 2369
SWIDTH 0 0
DWIDTH 0 0
BBX 14 10 -15 -8
BITMAP
01F0
07F8
847C
887C
803C
403C
607C
307C
1FF8
07E0
ENDCHAR
STARTCHAR 0942
ENCODING 2370
SWIDTH 0 0
DWIDTH 0 0
BBX 15 9 -12 -8
BITMAP
1F80
3FE0
7C10
F808
F804
F804
7842
7CC2
1F82
ENDCHAR
STARTCHAR 0943
ENCODING 2371
SWIDTH 0 0
DWIDTH 0 0
BBX 13 9 -14 -8
BITMAP
07E0
3F00
7C00
FC00
F800
F800
FC08
7C30
1FC0
ENDCHAR
STARTCHAR 0944
ENCODING 2372
SWIDTH 0 0
DWIDTH 0 0
BBX 12 17 -14 -16
BITMAP
07E0
3E00
7C00
7C00
7C00
7C00
3E00
0FC0
3F00
7C00
7C00
FC00
FC00
7C00
7E10
3FE0
0F80
ENDCHAR
STARTCHAR 0945
ENCODING 2373
SWIDTH 0 0
DWIDTH 0 0
BBX 13 6 -12 24
BITMAP
8008
8008
E038
7FF0
3FE0
1F80
ENDCHAR
STARTCHAR 0946
ENCODING 2374
SWIDTH 0 0
DWIDTH 0 0
BBX 15 11 -19 21
BITMAP
7000
8800
8000
C000
FFF8
FFFC
FFFE
3FFE
0002
0002
0002
ENDCHAR
STARTCHAR 0947
ENCODING 2375
SWIDTH 0 0
DWIDTH 0 0
BBX 10 8 -15 22
BITMAP
E000
F000
F800
7C00
3E00
0700
0180
0040
ENDCHAR
STARTCHAR 0948
ENCODING 2376
SWIDTH 0 0
DWIDTH 0 0
BBX 15 10 -19 21
BITMAP
01C0
03E0
03E0
F1F0
F8F0
FE78
7F9C
0FCC
00F2
0010
ENDCHAR
STARTCHAR 0949
ENCODING 2377
SWIDTH 293 0
DWIDTH 11 0
BBX 13 30 -1 0
BITMAP
8008
C008
6038
7FF0
3FF0
0FC0
0000
0000
0000
FFF8
0F80
0F80
0F80
0F80
0F80
0F80
0F80
0F80
0F80
0F80
0F80
0F80
0F80
0F80
0F80
0F80
0F80
0F80
0F80
0F80
ENDCHAR
STARTCHAR 094A
ENCODING 2378
SWIDTH 293 0
DWIDTH 11 0
BBX 20 32 -8 0
BITMAP
700000
880000
800000
C00000
FFF800
FFFC00
FFFE00
3FFE00
000200
000200
000200
01FFF0
001F00
001F00
001F00
001F00
001F00
001F00
001F00
001F00
001F00
001F00
001F00
001F00
001F00
001F00
001F00
001F00
001F00
001F00
001F00
001F00
ENDCHAR
STARTCHAR 094B
ENCODING 2379
SWIDTH 293 0
DWIDTH 11 0
BBX 16 30 -4 0
BITMAP
4000
F000
F800
FC00
3E00
0F00
0380
0040
0000
1FFF
01F0
01F0
01F0
01F0
01F0
01F0
01F0
01F0
01F0
01F0
01F0
01F0
01F0
01F0
01F0
01F0
01F0
01F0
01F0
01F0
ENDCHAR
STARTCHAR 094C
ENCODING 2380
SWIDTH 293 0
DWIDTH 11 0
BBX 19 31 -7 0
BITMAP
01C000
03E000
03E000
71F000
FCF800
FE3800
7F9C00
0FCE00
00F200
000000
03FFE0
003E00
003E00
003E00
003E00
003E00
003E00
003E00
003E00
003E00
003E00
003E00
003E00
003E00
003E00
003E00
003E00
003E00
003E00
003E00
003E00
ENDCHAR
STARTCHAR 094D
ENCODING 2381
SWIDTH 0 0
DWIDTH 0 0
BBX 9 7 -6 -8
BITMAP
C000
6000
7000
7C00
3F80
3F80
1E00
ENDCHAR
STARTCHAR 0950
ENCODING 2384
SWIDTH 960 0
DWIDTH 36 0
BBX 36 30 0 0
BITMAP
00000E0000
00001F0000
00001F0000
00001F0000
00010E1000
0001001000
0001003000
0001C0E000
0001FFE000
07E0FFC000
18F87F8000
107C3F0000
007C000000
007C003E00
007C00F780
00F801E3C0
01F003E3E0
0FC007C3E0
01F807C3E0
007C0FC3E0
007E0FC3F0
383E1F83F0
7C3E1F83E0
FC3E1F83E0
FC3E3F03E0
FC3E3F07E0
F07F7E87C0
407DFC4780
20F8783E00
1FC0000000
ENDCHAR
STARTCHAR 0951
ENCODING 2385
SWIDTH 0 0
DWIDTH 0 0
BBX 2 10 -7 19
BITMAP
40
C0
C0
C0
C0
C0
C0
C0
40
40
ENDCHAR
STARTCHAR 0952
ENCODING 2386
SWIDTH 0 0
DWIDTH 0 0
BBX 18 1 -20 -6
BITMAP
FFFFC0
ENDCHAR
STARTCHAR 0953
ENCODING 2387
SWIDTH 0 0
DWIDTH 0 0
BBX 8 6 -8 22
BITMAP
60
F0
F8
78
3C
0F
ENDCHAR
STARTCHAR 0954
ENCODING 2388
SWIDTH 0 0
DWIDTH 0 0
BBX 8 6 -8 22
BITMAP
06
0F
0F
1E
3C
F0
ENDCHAR
STARTCHAR 0958
ENCODING 2392
SWIDTH 826 0
DWIDTH 31 0
BBX 33 26 -1 -5
BITMAP
FFFFFFFF80
0003E00000
0003E00000
0003E00000
03E3E7E000
07F3EFF000
0F83F1F800
1F83F0FC00
1F03E07C00
3F03E07C00
3F03E07E00
3F03E07E00
3F03E07C00
1F03E07C00
1F87E0FC00
0FC7E1F800
0FFBEFF800
03F3E3E000
0003E00000
0003E00000
0003E00000
0700000000
0F80000000
0F80000000
0F80000000
0700000000
ENDCHAR
STARTCHAR 0959
ENCODING 2393
SWIDTH 773 0
DWIDTH 29 0
BBX 31 26 -1 -5
BITMAP
FFFFFFFE
03E003E0
01F003E0
00F803E0
00F803E0
00F87FE0
00F9E3E0
01F3E1E0
01F3C1E0
03C7C1E0
3F07C1E0
3F07C1E0
1F83E1E0
0FC3FDE0
0FC0F9E0
07E003E0
07F003E0
03F007E0
01FC1BE0
00FFF3E0
003F83E0
0F000000
0F000000
1F800000
0F000000
0F000000
ENDCHAR
STARTCHAR 095A
ENCODING 2394
SWIDTH 666 0
DWIDTH 25 0
BBX 27 24 -1 -3
BITMAP
FFFFFFE0
01F03E00
00783E00
007C3E00
007E3E00
003E3E00
003E3E00
003F3E00
1E3E3E00
3F3E3E00
3F3E3E00
3F3E3E00
3C7C3E00
18783E00
08F03E00
07C03E00
00003E00
00003E00
00003E00
01C03E00
03E03E00
03F00000
03E00000
01C00000
ENDCHAR
STARTCHAR 095B
ENCODING 2395
SWIDTH 693 0
DWIDTH 26 0
BBX 28 27 -1 -6
BITMAP
FFFFFFF0
00001F00
00001F00
00001F00
03FFFF00
00701F00
003C1F00
003E1F00
001F1F00
001F1F00
001F1F00
1C1F9F00
3E1F9F00
3E1F1F00
3E1F1F00
3E1F1F00
383E1F00
303E1F00
18781F00
07E01F00
00001F00
00000000
01C00000
03E00000
03E00000
03E00000
01C00000
ENDCHAR
STARTCHAR 095C
ENCODING 2396
SWIDTH 453 0
DWIDTH 17 0
BBX 19 27 -1 -6
BITMAP
FFFFE0
003E00
003E00
003E00
03FE00
0E0200
1C0000
1E0000
1F0000
1FF000
1FFC00
0FFE00
03FF00
007F80
1C0F80
3E0780
3E0780
3E0700
1C0700
0C0E00
03F800
000000
01E000
01E000
03F000
01E000
01E000
ENDCHAR
STARTCHAR 095D
ENCODING 2397
SWIDTH 533 0
DWIDTH 20 0
BBX 22 28 -1 -7
BITMAP
FFFFFC
003F00
003F00
003F00
003F00
003F00
01F100
07C000
0F8000
1F8000
1F0000
1F0F80
1F1FC0
1F13E0
1F03E0
1F03E0
1F03E0
0F83E0
0783E0
03C7C0
00FE00
000000
000000
003800
007C00
007C00
007C00
003800
ENDCHAR
STARTCHAR 095E
ENCODING 2398
SWIDTH 826 0
DWIDTH 31 0
BBX 33 24 -1 -3
BITMAP
FFFFFFFF80
1F83F00000
1F83F00000
1F83F00000
1F83F3E000
1F83FFF800
1F83F8FC00
1F83F07C00
1F83F07E00
1F83F07E00
1F83F07E00
1F83F07E00
0F83F07E00
0FC7F07E00
07FBF07C00
03F3F0FC00
0003F7F800
0003F3E000
0003F00000
01C3F00000
03E3F00000
03E0000000
03E0000000
01C0000000
ENDCHAR
STARTCHAR 095F
ENCODING 2399
SWIDTH 640 0
DWIDTH 24 0
BBX 26 26 -1 -5
BITMAP
FFFFFFC0
03E07C00
01F07C00
00F87C00
00F87C00
00F87C00
00F87C00
01F87C00
03F07C00
3FC07C00
3F007C00
3F007C00
1F007C00
1F007C00
0F80FC00
07C17C00
00FE7C00
00007C00
00007C00
00007C00
00007C00
00E00000
01F00000
01F00000
01F00000
00E00000
ENDCHAR
STARTCHAR 0960
ENCODING 2400
SWIDTH 906 0
DWIDTH 34 0
BBX 35 21 -1 0
BITMAP
FFFFFFFFE0
0001F00000
0001F00000
0001F03F00
0F81F0F880
1FC1F0F000
3FE1F0F000
43F1F0F000
03F1F0F800
01F9F07C00
00F9FFFF00
00FFF07C00
007DF0F800
0031F1F000
0061F1F000
0081F1F800
0101F0F840
0601F0FF80
0801F03F00
0001F00000
0001F00000
ENDCHAR
STARTCHAR 0961
ENCODING 2401
SWIDTH 746 0
DWIDTH 28 0
BBX 30 28 -1 -7
BITMAP
FFFFFFFC
00007E00
00007E00
00007E00
00F87E00
038CE780
0F8FC3C0
0F8FC3E0
1F07C3E0
1F07C3E0
1F07C3F0
1F07C7F0
1F07CFF0
1F07DF00
1F07DF00
1F001F00
0F001F00
0F800F80
078003F0
01F807C0
00001F00
00001F00
00003F00
00003F00
00001F00
00001F8C
00000FF0
000003E0
ENDCHAR
STARTCHAR 0964
ENCODING 2404
SWIDTH 293 0
DWIDTH 11 0
BBX 5 21 3 0
BITMAP
F8
F8
F8
F8
F8
F8
F8
F8
F8
F8
F8
F8
F8
F8
F8
F8
F8
F8
F8
F8
F8
ENDCHAR
STARTCHAR 0965
ENCODING 2405
SWIDTH 613 0
DWIDTH 23 0
BBX 15 21 5 0
BITMAP
F87E
F87E
F87E
F87E
F87E
F87E
F87E
F87E
F87E
F87E
F87E
F87E
F87E
F87E
F87E
F87E
F87E
F87E
F87E
F87E
F87E
ENDCHAR
STARTCHAR 0966
ENCODING 2406
SWIDTH 586 0
DWIDTH 22 0
BBX 18 23 2 -2
BITMAP
03F000
0E1C00
1E1E00
3C0F00
7C0F80
7C0F80
FC0FC0
F807C0
F807C0
F807C0
F807C0
F807C0
F807C0
F807C0
F807C0
F80FC0
FC0FC0
7C0F80
7C0F80
3C0F00
1E1E00
0E1C00
03F000
ENDCHAR
STARTCHAR 0967
ENCODING 2407
SWIDTH 320 0
DWIDTH 12 0
BBX 10 22 1 0
BITMAP
0300
0700
3F00
DF00
1F00
1F00
1F00
1F00
1F00
1F00
1F00
1F00
1F00
1F00
1F00
1F00
1F00
1F00
1F00
1F00
1F00
FFC0
ENDCHAR
STARTCHAR 0968
ENCODING 2408
SWIDTH 506 0
DWIDTH 19 0
BBX 17 21 1 0
BITMAP
0FF000
307C00
603E00
703E00
FC3F00
FC3F00
7C3F00
383E00
007E00
00FC00
01F000
03E000
070000
0C0080
100080
3F8180
3FFF80
7FFF80
C7FF00
80FF00
803E00
ENDCHAR
STARTCHAR 0969
ENCODING 2409
SWIDTH 480 0
DWIDTH 18 0
BBX 16 23 1 -2
BITMAP
0FE0
30F8
607C
707E
787E
7C7E
7C7E
387C
007C
00F8
0780
0078
003E
003F
381F
7C1F
FC1F
FC1F
F83F
E03E
407C
30F8
0FC0
ENDCHAR
STARTCHAR 096A
ENCODING 2410
SWIDTH 453 0
DWIDTH 17 0
BBX 17 22 0 0
BITMAP
003800
007800
007800
00F800
01F800
01F800
02F800
02F800
04F800
08F800
08F800
10F800
30F800
20F880
40F880
40F880
FFFF80
00F880
00F880
00F800
00F800
03FF00
ENDCHAR
STARTCHAR 096B
ENCODING 2411
SWIDTH 480 0
DWIDTH 18 0
BBX 16 24 1 0
BITMAP
0002
0004
180E
3FFE
3FFC
2FFC
27F8
21F0
2000
2000
4FE0
70F8
407C
003E
003E
783F
F83F
F83F
F83F
F03E
C07E
407C
20F0
1FC0
ENDCHAR
STARTCHAR 096C
ENCODING 2412
SWIDTH 533 0
DWIDTH 20 0
BBX 17 22 1 -1
BITMAP
01F800
0F8600
1F0300
3E0300
3E0F80
7C1F80
7C1F80
7C1F00
FC0F00
FC0000
FDF800
FE1F00
FC0F80
FC0F80
FC0F80
7C0F80
7C0F80
7C0F80
3C0F80
1E0F00
0F1E00
03F000
ENDCHAR
STARTCHAR 096D
ENCODING 2413
SWIDTH 453 0
DWIDTH 17 0
BBX 16 23 1 -1
BITMAP
0001
3E01
7FC2
FFFE
FFFE
FFFC
83E4
8008
0010
0030
0020
0060
00C0
01C0
03C0
07C0
07C0
0FC0
0FC0
0FC0
0FC0
07C0
0380
ENDCHAR
STARTCHAR 096E
ENCODING 2414
SWIDTH 533 0
DWIDTH 20 0
BBX 16 23 2 -2
BITMAP
0FE0
1838
301C
701E
700E
780E
7C1E
7F1C
7FB8
3FF0
1FF0
0FF8
3BFC
71FE
F07F
E03F
E01F
E00F
E00F
F00F
700E
3C18
07E0
ENDCHAR
STARTCHAR 096F
ENCODING 2415
SWIDTH 533 0
DWIDTH 20 0
BBX 17 23 1 -2
BITMAP
07F000
1E3C00
3C1E00
7C1F00
FC1F00
FC0F80
FC0F80
FC0F80
FC0F80
7C0F80
7C0F80
1E1F80
07EF80
100F80
7C0F80
7C0F80
7C0F80
7C1F00
781F00
603E00
203C00
107800
0FE000
ENDCHAR
STARTCHAR 0970
ENCODING 2416
SWIDTH 533 0
DWIDTH 20 0
BBX 17 15 1 2
BITMAP
03F000
0E3C00
3E1E00
3C1F00
7C1F80
7C1F80
FC0F80
FC0F80
FC1F80
7C1F80
7C1F80
7C1F00
3E1E00
1E3C00
03E000
ENDCHAR
STARTCHAR 0972
ENCODING 2418
SWIDTH 720 0
DWIDTH 27 0
BBX 28 30 0 0
BITMAP
00010010
00010010
0001C070
0000FFE0
00007FC0
00001F00
00000000
00000000
00000000
07F0FFF0
087C1F00
007C1F00
007C1F00
007C1F00
007C1F00
00F01F00
07E01F00
00FC1F00
007E1F00
103E1F00
7C3F1F00
FC3FFF00
FC3F1F00
F83F1F00
603E1F00
407E1F00
20F81F00
1FE01F00
00001F00
00001F00
ENDCHAR
STARTCHAR 097D
ENCODING 2429
SWIDTH 453 0
DWIDTH 17 0
BBX 15 23 1 0
BITMAP
1FC0
61F0
40F8
E07C
F07E
F87E
F87E
707C
007C
0078
00F0
00C0
0180
0100
0100
0200
0200
0200
0200
0200
0200
0200
0200
ENDCHAR
STARTCHAR 1E80
ENCODING 7808
SWIDTH 933 0
DWIDTH 35 0
BBX 35 28 0 1
BITMAP
0003800000
0003C00000
0003C00000
0001C00000
0000600000
0000000000
0000000000
FFF7FF0FE0
1FC1FC0100
1FC0FE0200
1FE0FE0200
0FE0FF0200
0FF07F0400
07F07F0400
07F87F8400
03F8BF8800
03FC9FC800
01FC9FC800
01FD0FF000
00FF0FF000
00FE0FF000
00FE07E000
007E07E000
007C03C000
003C03C000
003801C000
0018018000
0010008000
ENDCHAR
STARTCHAR 1E81
ENCODING 7809
SWIDTH 853 0
DWIDTH 32 0
BBX 31 25 0 1
BITMAP
00038000
0007C000
0003C000
0001C000
00004000
00002000
00000000
FFE7FC7E
3F83F808
1F81F810
1FC1FC10
0FC1FC10
0FE1FC20
07E2FE20
07F27E40
03F47F40
03F43F40
01FC3F80
01F81F80
01F81F80
00F00F00
00F00F00
00700E00
00600600
00200600
ENDCHAR
STARTCHAR 1E82
ENCODING 7810
SWIDTH 933 0
DWIDTH 35 0
BBX 35 28 0 0
BITMAP
0000180000
00003C0000
00003C0000
00003C0000
0000700000
0000400000
0000000000
FFF7FF0FE0
1FC1FC0100
1FC0FE0200
1FE0FE0200
0FE0FF0200
0FF07F0400
07F07F0400
07F87F8400
03F8BF8800
03FC9FC800
01FC9FC800
01FD0FF000
00FF0FF000
00FE0FF000
00FE07E000
007E07E000
007C03C000
003C03C000
003801C000
0018018000
0010008000
ENDCHAR
STARTCHAR 1E83
ENCODING 7811
SWIDTH 853 0
DWIDTH 32 0
BBX 31 25 0 1
BITMAP
00007800
00007800
0000F000
0000E000
00008000
00010000
00000000
FFE7FC7E
3F83F808
1F81F810
1FC1FC10
0FC1FC10
0FE1FC20
07E2FE20
07F27E40
03F47F40
03F43F40
01FC3F80
01F81F80
01F81F80
00F00F00
00F00F00
00700E00
00600600
00200600
ENDCHAR
STARTCHAR 1E84
ENCODING 7812
SWIDTH 933 0
DWIDTH 35 0
BBX 35 29 0 0
BITMAP
00038E0000
00078F0000
0007DF0000
00078F0000
00038E0000
0000000000
0000000000
0000000000
FFF7FF0FE0
1FC1FC0100
1FC0FE0200
1FE0FE0200
0FE0FF0200
0FF07F0400
07F07F0400
07F87F8400
03F8BF8800
03FC9FC800
01FC9FC800
01FD0FF000
00FF0FF000
00FE0FF000
00FE07E000
007E07E000
007C03C000
003C03C000
003801C000
0018018000
0010008000
ENDCHAR
STARTCHAR 1E85
ENCODING 7813
SWIDTH 853 0
DWIDTH 32 0
BBX 31 25 0 0
BITMAP
000C3800
001E7C00
001E7C00
001E7C00
000C3800
00000000
00000000
FFE7FC7E
3F83F808
1F81F810
1FC1FC10
0FC1FC10
0FE1FC20
07E2FE20
07F27E40
03F47F40
03F43F40
01FC3F80
01F81F80
01F81F80
00F00F00
00F00F00
00700E00
00600600
00200600
ENDCHAR
STARTCHAR 1EF2
ENCODING 7922
SWIDTH 613 0
DWIDTH 23 0
BBX 23 28 0 1
BITMAP
007800
007800
007C00
003C00
000400
000000
000000
FFE0FE
1FC010
1FC020
0FE020
07E040
07F040
03F080
03F880
01F900
01FD00
00FE00
007E00
007E00
007E00
007E00
007E00
007E00
007E00
007E00
007E00
00FF00
ENDCHAR
STARTCHAR 1EF3
ENCODING 7923
SWIDTH 560 0
DWIDTH 21 0
BBX 21 33 0 -7
BITMAP
00E000
00F000
00F000
007000
001800
000000
000000
FFC1F8
3F8040
3F8040
1FC040
1FC080
0FE080
07E100
07F100
03F200
03FA00
01FA00
01FC00
00FC00
00F800
007800
007000
003000
002000
002000
002000
784000
7C4000
FE8000
FF8000
7F0000
3E0000
ENDCHAR
STARTCHAR 200B
ENCODING 8203
SWIDTH 0 0
DWIDTH 0 0
BBX 0 0 0 0
BITMAP
ENDCHAR
STARTCHAR 200C
ENCODING 8204
SWIDTH 0 0
DWIDTH 0 0
BBX 2 40 -1 -9
BITMAP
C0
C0
C0
C0
C0
C0
C0
C0
C0
C0
C0
C0
C0
C0
C0
C0
C0
C0
C0
C0
C0
C0
C0
C0
C0
C0
C0
C0
C0
C0
C0
C0
C0
C0
C0
C0
C0
C0
C0
C0
ENDCHAR
STARTCHAR 200D
ENCODING 8205
SWIDTH 0 0
DWIDTH 0 0
BBX 10 40 -5 -9
BITMAP
4080
E1C0
7380
3F00
1E00
1E00
3F00
7F80
EDC0
4C80
0C00
0C00
0C00
0C00
0C00
0C00
0C00
0C00
0C00
0C00
0C00
0C00
0C00
0C00
0C00
0C00
0C00
0C00
0C00
0C00
0C00
0C00
0C00
0C00
0C00
0C00
0C00
0C00
0C00
0C00
ENDCHAR
STARTCHAR 2013
ENCODING 8211
SWIDTH 533 0
DWIDTH 20 0
BBX 18 1 1 8
BITMAP
FFFFC0
ENDCHAR
STARTCHAR 2014
ENCODING 8212
SWIDTH 826 0
DWIDTH 31 0
BBX 29 1 1 8
BITMAP
FFFFFFF8
ENDCHAR
STARTCHAR 2018
ENCODING 8216
SWIDTH 213 0
DWIDTH 8 0
BBX 7 10 0 16
BITMAP
04
18
20
60
40
FC
FE
7E
7E
3C
ENDCHAR
STARTCHAR 2019
ENCODING 8217
SWIDTH 213 0
DWIDTH 8 0
BBX 7 10 0 17
BITMAP
38
7C
FE
FE
7E
06
04
0C
18
60
ENDCHAR
STARTCHAR 201A
ENCODING 8218
SWIDTH 213 0
DWIDTH 8 0
BBX 7 10 0 -5
BITMAP
38
7C
FE
7E
7E
06
04
08
10
60
ENDCHAR
STARTCHAR 201C
ENCODING 8220
SWIDTH 426 0
DWIDTH 16 0
BBX 15 10 1 16
BITMAP
080C
3010
6020
4040
C0C0
F8FC
FCFE
FCFE
FC7C
783C
ENDCHAR
STARTCHAR 201D
ENCODING 8221
SWIDTH 426 0
DWIDTH 16 0
BBX 15 10 1 17
BITMAP
7878
FCFC
FCFE
FCFE
FC7E
0C04
0C0C
0808
3010
4060
ENDCHAR
STARTCHAR 201E
ENCODING 8222
SWIDTH 426 0
DWIDTH 16 0
BBX 15 10 1 -5
BITMAP
7878
FCFC
FCFE
FCFE
7C7E
0C04
0C0C
1808
3010
4060
ENDCHAR
STARTCHAR 2020
ENCODING 8224
SWIDTH 453 0
DWIDTH 17 0
BBX 16 32 0 -6
BITMAP
01C0
03C0
03E0
03C0
01C0
01C0
0180
788F
FFFF
FFFF
788F
0080
0080
0180
01C0
07F0
07F0
03E0
03E0
03E0
01C0
01C0
01C0
01C0
0180
0080
0080
0080
0080
0080
0080
0080
ENDCHAR
STARTCHAR 2021
ENCODING 8225
SWIDTH 453 0
DWIDTH 17 0
BBX 16 30 0 -4
BITMAP
01C0
03C0
03E0
03C0
01C0
01C0
0180
788F
FFFF
FFFF
788F
0080
01C0
01C0
03E0
07E0
03E0
01C0
01C0
0080
788F
FFFF
FEFF
788F
0180
01C0
01C0
03E0
03E0
01C0
ENDCHAR
STARTCHAR 2022
ENCODING 8226
SWIDTH 320 0
DWIDTH 12 0
BBX 10 10 1 8
BITMAP
1E00
7F80
7F80
FFC0
FFC0
FFC0
FFC0
7F80
3F80
1E00
ENDCHAR
STARTCHAR 2026
ENCODING 8230
SWIDTH 826 0
DWIDTH 31 0
BBX 28 8 1 0
BITMAP
3C0F03C0
7E1F87E0
7F3F8FE0
FF3FCFF0
FF3FCFF0
7F3F8FE0
7E1F87E0
3C0F03C0
ENDCHAR
STARTCHAR 2030
ENCODING 8240
SWIDTH 933 0
DWIDTH 35 0
BBX 32 21 2 0
BITMAP
3F010000
73820000
E3C20000
E1C40000
E1C40000
E1C80000
E3C80000
73900000
3E200000
00200000
00400000
0047C07C
009CE1CE
00BC73C7
01387387
01387387
02387387
02387387
043C73C7
081CE1CE
080FC0FC
ENDCHAR
STARTCHAR 2039
ENCODING 8249
SWIDTH 266 0
DWIDTH 10 0
BBX 7 11 2 3
BITMAP
02
06
1C
38
78
F0
78
3C
1C
06
02
ENDCHAR
STARTCHAR 203A
ENCODING 8250
SWIDTH 266 0
DWIDTH 10 0
BBX 7 11 2 3
BITMAP
80
C0
60
78
3C
3E
3C
70
60
C0
80
ENDCHAR
STARTCHAR 2044
ENCODING 8260
SWIDTH 53 0
DWIDTH 2 0
BBX 12 21 -5 0
BITMAP
0010
0010
0020
0040
0040
0080
0080
0100
0100
0200
0200
0400
0400
0800
1000
1000
2000
2000
4000
4000
8000
ENDCHAR
STARTCHAR 2070
ENCODING 8304
SWIDTH 293 0
DWIDTH 11 0
BBX 7 10 2 11
BITMAP
78
CC
C6
C6
C6
C6
C6
C6
CC
38
ENDCHAR
STARTCHAR 20AC
ENCODING 8364
SWIDTH 613 0
DWIDTH 23 0
BBX 21 22 1 -1
BITMAP
003F80
01F060
03E070
0FC0F0
0FC1F8
1F80F0
1F8020
FFFC00
3F8000
3F8000
3F8000
3F8000
3F8000
FFFC00
3F8000
1F80F0
1F81F0
0FC0F8
07C070
03E070
00F8C0
000700
ENDCHAR
STARTCHAR 20B9
ENCODING 8377
SWIDTH 453 0
DWIDTH 17 0
BBX 15 21 1 0
BITMAP
FFFE
07C0
03E0
01F0
FFFE
01F0
01F0
01F0
03E0
07C0
FF00
7C00
3F00
1F80
1F80
1F80
0FC0
0FC0
07C0
03E0
01FC
ENDCHAR
STARTCHAR 2113
ENCODING 8467
SWIDTH 453 0
DWIDTH 17 0
BBX 15 22 1 -1
BITMAP
01F0
0798
0F1C
1F1E
1F1E
3F1E
3F1E
3F1E
3F1E
3F3C
3F3C
3F38
3F70
3FE0
3F80
3F00
FF00
3F00
1F00
1F80
0FF8
03E0
ENDCHAR
STARTCHAR 2122
ENCODING 8482
SWIDTH 773 0
DWIDTH 29 0
BBX 26 11 1 14
BITMAP
FFEF03C0
8E678780
8E278780
8E25CB80
0E05CB80
0E05F380
0E04F380
0E04F380
0E046380
0E046380
1F0E47C0
ENDCHAR
STARTCHAR 2126
ENCODING 8486
SWIDTH 506 0
DWIDTH 19 0
BBX 22 21 0 0
BITMAP
00FE00
078780
0F03C0
1F03E0
3F01F0
3E01F0
3E01F0
3E01F8
3E01F8
3E01F8
3E01F8
3F01F0
3F01F0
1F03F0
0F03E0
8787C4
81EF04
FFEFFC
FFEFFC
FFEFFC
FFEFFC
ENDCHAR
STARTCHAR 212E
ENCODING 8494
SWIDTH 506 0
DWIDTH 19 0
BBX 0 0 0 0
BITMAP
ENDCHAR
STARTCHAR 2202
ENCODING 8706
SWIDTH 613 0
DWIDTH 23 0
BBX 20 27 1 0
BITMAP
0F0000
01E000
007800
003C00
001E00
000F00
000F80
0007C0
0007C0
0007E0
01F3E0
0F83F0
1F03F0
3E03F0
7E03F0
7C03F0
FC03F0
FC03F0
FC03F0
FC03F0
FC03F0
7C03F0
7E07E0
3E07E0
1E07C0
0F0F00
01FC00
ENDCHAR
STARTCHAR 2206
ENCODING 8710
SWIDTH 560 0
DWIDTH 21 0
BBX 20 21 0 0
BITMAP
006000
006000
00F000
00F000
01F000
01F800
01F800
02FC00
02FC00
047E00
047E00
083F00
083F00
081F80
101F80
100FC0
200FC0
2007E0
4007E0
4003F0
FFFFF0
ENDCHAR
STARTCHAR 220F
ENCODING 8719
SWIDTH 506 0
DWIDTH 19 0
BBX 21 21 2 0
BITMAP
FFFFF8
7E07E0
7E07E0
7E07E0
7E07E0
7E07E0
7E07E0
7E07E0
7E07E0
7E07E0
7E07E0
7E07E0
7E07E0
7E07E0
7E07E0
7E07E0
7E07E0
7E07E0
7E07E0
7E07E0
FF8FF8
ENDCHAR
STARTCHAR 2211
ENCODING 8721
SWIDTH 506 0
DWIDTH 19 0
BBX 17 21 0 0
BITMAP
FFFF80
7E0380
7F0080
3F8080
1FC080
0FE080
07F000
03F000
03F800
01E000
00C000
008000
010080
020080
040080
080180
1FFF80
1FFF80
3FFF80
7FFF80
FFFF80
ENDCHAR
STARTCHAR 2212
ENCODING 8722
SWIDTH 506 0
DWIDTH 19 0
BBX 16 1 2 8
BITMAP
FFFF
ENDCHAR
STARTCHAR 221A
ENCODING 8730
SWIDTH 586 0
DWIDTH 22 0
BBX 18 21 2 0
BITMAP
007FC0
004000
004000
004000
008000
008000
008000
010000
010000
010000
810000
820000
820000
420000
420000
440000
240000
240000
180000
180000
080000
ENDCHAR
STARTCHAR 221E
ENCODING 8734
SWIDTH 773 0
DWIDTH 29 0
BBX 26 16 1 0
BITMAP
07C07C00
1E23CF00
3E17CF80
7C0FC780
7C0F87C0
7C1F87C0
FC1F87C0
FC1F87C0
FC3F07C0
FC3F07C0
7C3E07C0
7C3E0FC0
7C7E0F80
3C7D0F80
1E709F00
07E07E00
ENDCHAR
STARTCHAR 2248
ENCODING 8776
SWIDTH 480 0
DWIDTH 18 0
BBX 16 8 1 5
BITMAP
1C00
E381
807E
0000
0000
3C00
C381
807E
ENDCHAR
STARTCHAR 2260
ENCODING 8800
SWIDTH 506 0
DWIDTH 19 0
BBX 16 12 2 2
BITMAP
0018
0010
FFFF
0040
0080
0100
0200
0400
FFFF
0800
1000
2000
ENDCHAR
STARTCHAR 2264
ENCODING 8804
SWIDTH 480 0
DWIDTH 18 0
BBX 16 17 1 0
BITMAP
0001
0006
0038
01C0
0E00
3000
C000
3800
0700
00E0
001C
0003
0000
0000
0000
0000
FFFF
ENDCHAR
STARTCHAR 2265
ENCODING 8805
SWIDTH 480 0
DWIDTH 18 0
BBX 16 17 1 0
BITMAP
8000
7000
0E00
0180
0070
000E
0003
001C
00E0
0700
1800
E000
0000
0000
0000
0000
FFFF
ENDCHAR
STARTCHAR 25CA
ENCODING 9674
SWIDTH 426 0
DWIDTH 16 0
BBX 12 21 2 0
BITMAP
0400
0400
0600
0900
1900
1080
20C0
2040
4020
C020
8010
8030
4020
4060
2040
3080
1180
0900
0A00
0600
0400
ENDCHAR
STARTCHAR 25CC
ENCODING 9676
SWIDTH 666 0
DWIDTH 25 0
BBX 21 21 2 2
BITMAP
00E000
00E600
0CE700
1E0660
0C00F0
000060
600000
F00000
600038
000038
000038
E00000
E00000
E00038
000038
380038
3801C0
3801C0
0319C0
07BC00
031800
ENDCHAR
STARTCHAR F6C3
ENCODING 63171
SWIDTH 560 0
DWIDTH 21 0
BBX 5 8 8 -9
BITMAP
70
F0
F8
78
10
10
20
40
ENDCHAR
STARTCHAR FB01
ENCODING 64257
SWIDTH 640 0
DWIDTH 24 0
BBX 22 27 1 0
BITMAP
007F80
03C1C0
0781E0
0F81F0
1F03F0
1F01F0
1F00E0
3F0000
3F0000
FFFFF0
3F03F0
3F03F0
3F03F0
3F03F0
3F03F0
3F03F0
3F03F0
3F03F0
3F03F0
3F03F0
3F03F0
3F03F0
3F03F0
3F03F0
3F03F0
3F03F0
7FC7FC
ENDCHAR
STARTCHAR FB02
ENCODING 64258
SWIDTH 640 0
DWIDTH 24 0
BBX 22 27 1 1
BITMAP
00FFC0
03C7F0
0783F0
0F83F0
1F03F0
1F03F0
1F03F0
3F03F0
3F03F0
FFFBF0
3F03F0
3F03F0
3F03F0
3F03F0
3F03F0
3F03F0
3F03F0
3F03F0
3F03F0
3F03F0
3F03F0
3F03F0
3F03F0
3F03F0
3F03F0
3F03F0
7FC7FC
ENDCHAR
ENDFONT
